<?xml version="1.0" encoding="UTF-8"?>
<svg version="1.1" xmlns="http://www.w3.org/2000/svg" width="512" height="512">
<path d="M0 0 C1.46049774 0.00273422 1.46049774 0.00273422 2.95050049 0.00552368 C16.97111234 0.0497532 30.6054235 0.46000802 44.375 3.3125 C45.22400879 3.47347168 46.07301758 3.63444336 46.94775391 3.80029297 C78.38389257 9.79498437 108.35245318 21.76217485 135.09375 39.36328125 C136.14393311 40.04438965 136.14393311 40.04438965 137.21533203 40.73925781 C139.375 42.3125 139.375 42.3125 141.49951172 44.42480469 C150.90324232 53.0648291 162.465586 51.21682876 174.5 50.9375 C177.7577639 50.87276022 181.01355295 50.82052681 184.27194214 50.80502319 C186.28803632 50.79467938 188.30425549 50.75654955 190.31912231 50.68545532 C197.48317284 50.63700899 202.08146966 52.43331386 207.375 57.3125 C211.75713476 61.9686518 211.78493813 66.88515014 211.67285156 73.05371094 C211.63643555 74.17036133 211.60001953 75.28701172 211.5625 76.4375 C211.53797036 78.86195613 211.51591951 81.28643835 211.49609375 83.7109375 C211.44503186 87.48757208 211.37656428 91.26085846 211.26220703 95.03613281 C210.76104868 113.15936172 213.30011884 125.38270311 222.91758728 140.81750488 C232.58060175 157.35995274 237.89292743 178.05959828 241.6875 196.6875 C241.83477539 197.41001953 241.98205078 198.13253906 242.13378906 198.87695312 C245.03190533 214.22950349 245.74827835 229.41110164 245.6875 245 C245.68476578 246.4567514 245.68476578 246.4567514 245.68197632 247.94293213 C245.63771428 261.9450203 245.2237177 275.56114275 242.375 289.3125 C242.21402832 290.16150879 242.05305664 291.01051758 241.88720703 291.88525391 C237.19893055 316.47055778 229.37829242 347.17637747 213.71972656 367.45629883 C211.58443382 371.99166372 211.99496044 376.50950115 212.0390625 381.45703125 C212.02654847 383.68294562 212.01351128 385.90885709 212 388.13476562 C211.99607371 391.63039426 212.00000309 395.12573662 212.01464844 398.62133789 C212.02324544 402.00449897 212.00148898 405.38647442 211.9765625 408.76953125 C211.98990631 409.80624466 212.00325012 410.84295807 212.01699829 411.91108704 C211.9493659 418.59482904 210.82688322 423.20072961 206.375 428.3125 C200.66898536 433.3058178 196.16933151 434.34689679 188.625 434.875 C186.86929688 435.00068359 186.86929688 435.00068359 185.078125 435.12890625 C184.18609375 435.18949219 183.2940625 435.25007813 182.375 435.3125 C182.96968582 435.89719307 182.96968582 435.89719307 183.5763855 436.49369812 C187.70568832 440.55656862 191.82434369 444.63000988 195.93701172 448.7097168 C197.47272261 450.23035263 199.01111682 451.74828357 200.55224609 453.26342773 C202.76853093 455.44327462 204.97494533 457.6327056 207.1796875 459.82421875 C208.21414505 460.83545052 208.21414505 460.83545052 209.26950073 461.86711121 C213.83513194 466.43112724 216.10293025 469.54645757 216.75 476.125 C216.3968163 485.91988559 209.12026024 492.15215859 202.5625 498.5625 C201.68529297 499.44679688 200.80808594 500.33109375 199.90429688 501.2421875 C189.49257173 511.55267672 189.49257173 511.55267672 182.49609375 512.84375 C181.61050781 512.8334375 180.72492188 512.823125 179.8125 512.8125 C178.92433594 512.8228125 178.03617187 512.833125 177.12109375 512.84375 C171.42788184 511.7423605 167.38813127 507.56727182 163.45874023 503.52807617 C162.78184647 502.83716385 162.78184647 502.83716385 162.09127808 502.1322937 C161.12175326 501.14192532 160.15446277 500.14936547 159.18923759 499.15480614 C157.66043895 497.581642 156.12355451 496.01681326 154.58399963 494.45417786 C150.21110449 490.01436121 145.84698591 485.56618803 141.50317383 481.09790039 C138.83772292 478.35724804 136.15792716 475.63135314 133.4683094 472.91442299 C132.4480492 471.87804927 131.43337305 470.83614752 130.42446709 469.78871727 C129.01750547 468.32893049 127.59011733 466.88891412 126.16186523 465.44995117 C125.35611557 464.62484543 124.55036591 463.79973969 123.72019958 462.94963074 C121.48601597 461.0256394 121.48601597 461.0256394 118.71350098 461.49362183 C116.3222209 462.33098178 114.15357049 463.2868394 111.91015625 464.46484375 C88.62674264 476.3381294 64.23444661 484.37537224 38.375 488.3125 C36.63053589 488.58743286 36.63053589 488.58743286 34.85083008 488.86791992 C23.50227056 490.48729446 12.26318176 490.67169518 0.8125 490.625 C-0.64857178 490.62126877 -0.64857178 490.62126877 -2.13916016 490.61746216 C-49.4714591 490.43047588 -96.36197738 477.37155856 -135.625 450.3125 C-136.23085937 449.8990332 -136.83671875 449.48556641 -137.4609375 449.05957031 C-150.42615279 440.16308028 -162.21545733 430.10910025 -173.625 419.3125 C-174.305625 418.67441406 -174.98625 418.03632813 -175.6875 417.37890625 C-179.93128883 413.2824712 -183.61810371 408.78344021 -187.30859375 404.1875 C-188.79995378 402.3365034 -190.31161746 400.50159151 -191.84765625 398.6875 C-202.5539471 385.9985627 -210.93166325 371.98075391 -218.625 357.3125 C-219.0051123 356.59707031 -219.38522461 355.88164062 -219.77685547 355.14453125 C-237.51219771 321.35120234 -245.08921612 283.60395532 -244.9375 245.6875 C-244.93534485 244.71694672 -244.9331897 243.74639343 -244.93096924 242.74642944 C-244.8799334 228.41819102 -244.53258438 214.39064218 -241.625 200.3125 C-241.42632324 199.32942871 -241.22764648 198.34635742 -241.02294922 197.33349609 C-235.78098926 172.12889613 -227.64457128 144.58789629 -213.05813599 122.99276733 C-211.43224921 119.95201526 -211.26281592 118.16983187 -211.2878418 114.74707031 C-211.28741379 113.65533508 -211.28698578 112.56359985 -211.2865448 111.43878174 C-211.2989772 110.26789001 -211.31140961 109.09699829 -211.32421875 107.890625 C-211.31657521 105.39583069 -211.30808506 102.90103885 -211.29882812 100.40625 C-211.30103613 96.48482963 -211.31249011 92.56390508 -211.34008789 88.64257812 C-211.36086722 84.84975333 -211.34473738 81.0584205 -211.32421875 77.265625 C-211.34272385 76.1028302 -211.36122894 74.9400354 -211.3802948 73.74200439 C-211.3116261 66.07000026 -210.01196464 60.94342859 -204.625 55.3125 C-199.37707389 50.5655935 -193.7963015 50.86880405 -187.0390625 51.125 C-184.95184951 51.14951525 -182.86460644 51.17156927 -180.77734375 51.19140625 C-177.52668027 51.242617 -174.27986579 51.31145359 -171.03076172 51.42529297 C-155.55827036 51.92012858 -146.25600557 50.11001274 -134.47572327 39.8296051 C-131.37093286 37.28449561 -127.9594924 35.27254641 -124.5 33.25 C-123.72148682 32.79423584 -122.94297363 32.33847168 -122.14086914 31.86889648 C-95.56591818 17.17944605 -67.71135135 6.89353962 -37.625 2.3125 C-36.46274902 2.12921143 -35.30049805 1.94592285 -34.10302734 1.75708008 C-22.73310168 0.1339371 -11.4721311 -0.04452615 0 0 Z " fill="#D3F1F5" transform="translate(255.625,-0.3125)"/>
<path d="M0 0 C121.77 0 243.54 0 369 0 C385.83984986 32.4768533 385.83984986 32.4768533 391 48 C391.27779297 48.83047852 391.55558594 49.66095703 391.84179688 50.51660156 C394.83864042 59.62348025 397.3268199 68.79413893 399.25 78.1875 C399.40114258 78.92170166 399.55228516 79.65590332 399.70800781 80.41235352 C402.66178491 95.81300058 403.3734956 111.04288172 403.3125 126.6875 C403.30976578 128.1442514 403.30976578 128.1442514 403.30697632 129.63043213 C403.26271428 143.6325203 402.8487177 157.24864275 400 171 C399.83902832 171.84900879 399.67805664 172.69801758 399.51220703 173.57275391 C394.82393055 198.15805778 387.00329242 228.86387747 371.34472656 249.14379883 C369.20943382 253.67916372 369.61996044 258.19700115 369.6640625 263.14453125 C369.65154847 265.37044562 369.63851128 267.59635709 369.625 269.82226562 C369.62107371 273.31789426 369.62500309 276.81323662 369.63964844 280.30883789 C369.64824544 283.69199897 369.62648898 287.07397442 369.6015625 290.45703125 C369.61490631 291.49374466 369.62825012 292.53045807 369.64199829 293.59858704 C369.5743659 300.28232904 368.45188322 304.88822961 364 310 C360.49069393 313.07098413 357.55016209 314.95858123 353 316 C351.97277832 316.28166016 350.94555664 316.56332031 349.88720703 316.85351562 C343.91729309 317.73242609 339.54307816 317.74593279 334.42468262 314.23193359 C327.90129439 308.68034279 322.10201672 302.36973414 316.31793213 296.0668335 C312.9782903 292.44042406 309.58635179 288.86328063 306.18118286 285.29846191 C304.37706762 283.40208088 302.59098537 281.48834306 300.82540894 279.55603027 C300.01661285 278.69513794 299.20781677 277.83424561 298.37451172 276.94726562 C297.67220428 276.18337524 296.96989685 275.41948486 296.24630737 274.63244629 C293.30308044 272.49353158 291.5634459 272.54546837 288 273 C287.01 273.66 286.02 274.32 285 275 C275.43 265.43 265.86 255.86 256 246 C257.41522643 242.46193391 258.85759054 239.37847007 260.71606445 236.09228516 C275.17498521 210.32911727 280.09333178 178.70631517 272.22265625 149.9453125 C270.66720179 144.76558513 268.89272525 139.67263437 266.953125 134.625 C266 132 266 132 266 130 C265.10796875 130.34933594 264.2159375 130.69867188 263.296875 131.05859375 C262.12640625 131.51363281 260.9559375 131.96867188 259.75 132.4375 C258.58984375 132.88996094 257.4296875 133.34242188 256.234375 133.80859375 C250.71851383 135.84040252 246.08146493 136.18273573 240.25 136.1875 C239.4765625 136.19974609 238.703125 136.21199219 237.90625 136.22460938 C232.61087482 136.23793666 228.08898881 135.46976503 223 134 C223.51949219 134.825 224.03898438 135.65 224.57421875 136.5 C236.06787781 155.31959102 239.84209156 175.6511474 234.97265625 197.37109375 C229.3558261 218.32705844 217.4079033 235.43122121 199 247 C180.98286717 257.04829603 159.69047198 261.39036282 139.375 256.5 C117.12689488 249.73505155 99.39361657 236.29595088 88 216 C78.62527818 198.10712992 75.8312694 176.40092995 81.61328125 156.98046875 C88.77101233 135.3471473 103.03355816 118.84977874 123 108 C140.85221797 99.06228359 161.82101976 96.93048839 180.921875 103.24609375 C184.31039041 104.42271419 187.66124798 105.68852619 191 107 C190.73445312 106.443125 190.46890625 105.88625 190.1953125 105.3125 C189.66550781 104.1678125 189.66550781 104.1678125 189.125 103 C188.77695312 102.2575 188.42890625 101.515 188.0703125 100.75 C185.47773099 94.08876867 184.67754182 88.07674909 184.75 81 C184.74226562 80.24460937 184.73453125 79.48921875 184.7265625 78.7109375 C184.74446117 73.5024251 185.56610897 69.00723853 187 64 C152.02367271 58.99700044 117.84925391 62.17112276 88.69946289 83.73852539 C86.07497508 85.76100541 83.53623309 87.86725854 81 90 C80.11828125 90.71800781 79.2365625 91.43601562 78.328125 92.17578125 C57.5174615 109.85191935 44.91817139 137.34917492 41 164 C40.85768773 166.38089611 40.75491235 168.76435849 40.68359375 171.1484375 C40.66281265 171.80582916 40.64203156 172.46322083 40.62062073 173.14053345 C40.55579247 175.21859362 40.49655436 177.29676856 40.4375 179.375 C40.39425112 180.79298011 40.35063491 182.21094907 40.30664062 183.62890625 C40.20018082 187.0858188 40.09873016 190.54285706 40 194 C33.46721214 194.02527002 26.93443679 194.04283292 20.40161133 194.05493164 C18.17732268 194.05997317 15.95303737 194.06680623 13.72875977 194.07543945 C10.53921691 194.08751298 7.34971771 194.09322996 4.16015625 194.09765625 C2.65860741 194.10539818 2.65860741 194.10539818 1.12672424 194.11329651 C0.20584518 194.11337204 -0.71503387 194.11344757 -1.66381836 194.11352539 C-2.47878281 194.115746 -3.29374725 194.11796661 -4.13340759 194.12025452 C-6 194 -6 194 -7 193 C-7.0989294 190.83519203 -7.129711 188.66706215 -7.125 186.5 C-7.12757812 185.3140625 -7.13015625 184.128125 -7.1328125 182.90625 C-7 180 -7 180 -6 179 C-4.02 179 -2.04 179 0 179 C0 172.07 0 165.14 0 158 C-1.98 158 -3.96 158 -6 158 C-7 157 -7 157 -7.1328125 154.09375 C-7.13023438 152.9078125 -7.12765625 151.721875 -7.125 150.5 C-7.12757812 149.3140625 -7.13015625 148.128125 -7.1328125 146.90625 C-7 144 -7 144 -6 143 C-4.02 143 -2.04 143 0 143 C0 136.07 0 129.14 0 122 C-1.98 122 -3.96 122 -6 122 C-7 121 -7 121 -7.1328125 118.09375 C-7.13023438 116.9078125 -7.12765625 115.721875 -7.125 114.5 C-7.12757812 113.3140625 -7.13015625 112.128125 -7.1328125 110.90625 C-7 108 -7 108 -6 107 C-4.02 107 -2.04 107 0 107 C0 100.4 0 93.8 0 87 C-2.31 86.67 -4.62 86.34 -7 86 C-7.02685412 83.68756208 -7.04632841 81.3750373 -7.0625 79.0625 C-7.07410156 77.77472656 -7.08570312 76.48695313 -7.09765625 75.16015625 C-7 72 -7 72 -6 71 C-4.02 71 -2.04 71 0 71 C0 64.4 0 57.8 0 51 C-1.98 51 -3.96 51 -6 51 C-7 50 -7 50 -7.1328125 46.875 C-7.13023438 45.59625 -7.12765625 44.3175 -7.125 43 C-7.12757812 41.72125 -7.13015625 40.4425 -7.1328125 39.125 C-7 36 -7 36 -6 35 C-4.02 35 -2.04 35 0 35 C0 23.45 0 11.9 0 0 Z " fill="#D4F1F5" transform="translate(98,118)"/>
<path d="M0 0 C1.46049774 0.00273422 1.46049774 0.00273422 2.95050049 0.00552368 C16.97111234 0.0497532 30.6054235 0.46000802 44.375 3.3125 C45.22400879 3.47347168 46.07301758 3.63444336 46.94775391 3.80029297 C78.38389257 9.79498437 108.35245318 21.76217485 135.09375 39.36328125 C136.14393311 40.04438965 136.14393311 40.04438965 137.21533203 40.73925781 C139.375 42.3125 139.375 42.3125 141.49951172 44.42480469 C150.90324232 53.0648291 162.465586 51.21682876 174.5 50.9375 C177.7577639 50.87276022 181.01355295 50.82052681 184.27194214 50.80502319 C186.28803632 50.79467938 188.30425549 50.75654955 190.31912231 50.68545532 C196.46993884 50.6438609 200.32157179 51.86583913 205.40206909 55.33480835 C221.23447469 71.20541803 211.375 100.29635557 211.375 118.3125 C72.115 118.3125 -67.145 118.3125 -210.625 118.3125 C-210.625 64.3125 -210.625 64.3125 -204.625 55.3125 C-198.89527913 50.76424566 -194.1658779 50.85479182 -187.0390625 51.125 C-184.95184951 51.14951525 -182.86460644 51.17156927 -180.77734375 51.19140625 C-177.52668027 51.242617 -174.27986579 51.31145359 -171.03076172 51.42529297 C-155.55827036 51.92012858 -146.25600557 50.11001274 -134.47572327 39.8296051 C-131.37093286 37.28449561 -127.9594924 35.27254641 -124.5 33.25 C-123.72148682 32.79423584 -122.94297363 32.33847168 -122.14086914 31.86889648 C-95.56591818 17.17944605 -67.71135135 6.89353962 -37.625 2.3125 C-36.46274902 2.12921143 -35.30049805 1.94592285 -34.10302734 1.75708008 C-22.73310168 0.1339371 -11.4721311 -0.04452615 0 0 Z " fill="#0782AF" transform="translate(255.625,-0.3125)"/>
<path d="M0 0 C1.08692139 0.00459229 2.17384277 0.00918457 3.29370117 0.01391602 C12.59990785 0.11874535 21.59407447 0.86892462 30.625 3.25 C30.46644531 4.39082031 30.30789063 5.53164062 30.14453125 6.70703125 C28.32429905 21.4143781 30.05795486 33.48284782 35.625 47.25 C34.3875 46.816875 33.15 46.38375 31.875 45.9375 C9.98051513 38.65084967 -11.62382736 37.59491839 -32.625 47.875 C-53.73867808 58.78640804 -67.04498858 75.85541614 -74.4140625 98.43359375 C-79.75784561 118.43532399 -75.71269486 140.14184615 -65.81640625 158.07421875 C-54.48257086 176.84179375 -37.73415648 188.37116052 -17.0625 194.6875 C3.54783006 199.7159889 24.79133065 195.29064884 43.00390625 184.90234375 C62.42162401 172.66136817 72.72465958 155.05601846 78.37109375 133.38671875 C83.11632899 111.29683057 76.69022396 91.12167867 65.625 72.25 C66.73875 72.58 67.8525 72.91 69 73.25 C81.40178265 75.92145318 93.02845507 74.86405574 104.78125 70.34375 C107.625 69.25 107.625 69.25 109.625 69.25 C122.49182576 100.73083369 123.79014244 133.28599075 110.64257812 164.96630859 C108.71780831 169.28595754 106.49203567 173.4453015 104.11450195 177.53173828 C102.2125938 180.8399372 101.625 182.30289567 101.625 186.25 C103.53031786 188.50440092 105.41661236 190.50615809 107.53125 192.546875 C108.43018982 193.43732513 108.43018982 193.43732513 109.34729004 194.34576416 C111.26401565 196.24009491 113.19417669 198.12005098 115.125 200 C116.4266903 201.28162945 117.72748329 202.56417096 119.02734375 203.84765625 C122.21624578 206.9924496 125.41726806 210.12442037 128.625 213.25 C129.615 212.59 130.605 211.93 131.625 211.25 C135.17538705 210.80437943 136.94530396 210.78152817 139.92514038 212.83534241 C140.65157745 213.57811935 141.37801453 214.3208963 142.12646484 215.08618164 C143.37839127 216.34362938 143.37839127 216.34362938 144.65560913 217.6264801 C145.54011749 218.54509323 146.42462585 219.46370636 147.3359375 220.41015625 C148.75268494 221.84350385 150.16943412 223.27684972 151.58628273 224.71009731 C153.56815373 226.72272885 155.53573653 228.74906949 157.50384521 230.77514648 C160.45369291 233.80622239 163.42214485 236.81904977 166.390131 239.83235073 C168.70507254 242.18271751 171.0153056 244.53701779 173.3164978 246.90089417 C177.66092869 251.34576605 182.06268124 255.60560249 186.78341675 259.64836121 C189.7197321 262.20209673 192.48059612 264.92408406 195.2421875 267.6640625 C195.82541779 268.24159271 196.40864807 268.81912292 197.009552 269.41415405 C198.22583037 270.62108444 199.44073816 271.82939755 200.65429688 273.0390625 C202.50990144 274.88484905 204.37591353 276.71969733 206.2421875 278.5546875 C207.43034252 279.7363209 208.61786556 280.91859018 209.8046875 282.1015625 C210.35986053 282.64438873 210.91503357 283.18721497 211.48703003 283.74649048 C215.74741417 288.03172137 217.41228777 291.08742568 218 297.0625 C217.6468163 306.85738559 210.37026024 313.08965859 203.8125 319.5 C202.93529297 320.38429688 202.05808594 321.26859375 201.15429688 322.1796875 C190.74257173 332.49017672 190.74257173 332.49017672 183.74609375 333.78125 C182.86050781 333.7709375 181.97492188 333.760625 181.0625 333.75 C179.73025391 333.76546875 179.73025391 333.76546875 178.37109375 333.78125 C172.69862275 332.68387296 168.61901729 328.49385149 164.64868164 324.51660156 C164.19087814 324.06069641 163.73307465 323.60479126 163.26139832 323.1350708 C161.76440174 321.64174788 160.27467964 320.14139917 158.78515625 318.640625 C157.7346952 317.58896943 156.68386156 316.53768592 155.63267517 315.48675537 C153.43502515 313.28754601 151.24075845 311.08503537 149.04907227 308.87988281 C146.25926758 306.07314195 143.46297957 303.27297478 140.66431522 300.47507095 C138.4942579 298.3047397 136.32683196 296.13179626 134.1602459 293.95800018 C133.13113262 292.92573518 132.10143943 291.89404795 131.07112312 290.8629837 C125.91428453 285.69830198 120.8686062 280.48983728 116.11497498 274.94775391 C114.04803019 272.592571 111.81528779 270.44790972 109.53125 268.3046875 C108.64695312 267.45519531 107.76265625 266.60570312 106.8515625 265.73046875 C105.01358147 263.97411725 103.16431287 262.22951186 101.3046875 260.49609375 C99.99371094 259.22572266 99.99371094 259.22572266 98.65625 257.9296875 C97.85767578 257.17413574 97.05910156 256.41858398 96.23632812 255.64013672 C94.625 253.25 94.625 253.25 94.87304688 250.20751953 C95.24526367 248.74354736 95.24526367 248.74354736 95.625 247.25 C95.625 242.72776856 94.78705986 241.92494909 91.76348877 238.80705261 C91.20731873 238.25584244 90.65114868 237.70463226 90.078125 237.13671875 C89.22670929 236.27600517 89.22670929 236.27600517 88.35809326 235.39790344 C87.15585534 234.18856455 85.94845167 232.98434242 84.73632812 231.78491211 C82.8800153 229.9424778 81.04895234 228.07731593 79.21875 226.20898438 C78.04832677 225.03761011 76.87649755 223.86763866 75.703125 222.69921875 C74.88101532 221.85722176 74.88101532 221.85722176 74.04229736 220.99821472 C71.25629504 218.08527279 71.25629504 218.08527279 67.50512695 217.27539062 C66.88468506 217.59701172 66.26424316 217.91863281 65.625 218.25 C64.95718506 218.5694458 64.28937012 218.8888916 63.60131836 219.21801758 C62.89628174 219.60626709 62.19124512 219.9945166 61.46484375 220.39453125 C60.677146 220.82233887 59.88944824 221.25014648 59.07788086 221.69091797 C58.24780518 222.14354004 57.41772949 222.59616211 56.5625 223.0625 C49.7211992 226.70802857 43.11508805 230.13635872 35.625 232.25 C34.45710937 232.61867188 33.28921875 232.98734375 32.0859375 233.3671875 C12.22120617 239.05940631 -12.75873264 238.69816849 -32.375 232.25 C-33.37708496 231.93651611 -33.37708496 231.93651611 -34.39941406 231.61669922 C-49.17618019 226.90858877 -62.72375036 219.50946214 -74.375 209.25 C-75.19226563 208.56421875 -76.00953125 207.8784375 -76.8515625 207.171875 C-94.91251469 191.62715454 -106.86242206 171.0082394 -113.375 148.25 C-113.85646484 146.65285156 -113.85646484 146.65285156 -114.34765625 145.0234375 C-122.04894554 114.43320003 -115.01590307 82.72385854 -99.45019531 56.00488281 C-83.12351094 29.35724265 -56.53503615 10.82802795 -26.57519531 2.77001953 C-17.70999512 0.67471589 -9.09323855 -0.07990792 0 0 Z " fill="#0781AF" transform="translate(254.375,178.75)"/>
<path d="M0 0 C10.88391837 9.08159748 18.51654704 21.76302682 20.23925781 35.97363281 C21.65175189 52.66315782 16.73594086 67.54716903 5.97265625 80.42578125 C-3.50513882 90.62340886 -16.51600998 97.60388308 -30.54296875 98.30859375 C-38.08157323 98.48170928 -44.71638429 98.05751856 -52 96 C-51.48050781 96.825 -50.96101562 97.65 -50.42578125 98.5 C-38.93212219 117.31959102 -35.15790844 137.6511474 -40.02734375 159.37109375 C-45.6441739 180.32705844 -57.5920967 197.43122121 -76 209 C-94.01713283 219.04829603 -115.30952802 223.39036282 -135.625 218.5 C-157.87310512 211.73505155 -175.60638343 198.29595088 -187 178 C-196.37472182 160.10712992 -199.1687306 138.40092995 -193.38671875 118.98046875 C-186.22898767 97.3471473 -171.96644184 80.84977874 -152 70 C-134.14778203 61.06228359 -113.17898024 58.93048839 -94.078125 65.24609375 C-90.68960959 66.42271419 -87.33875202 67.68852619 -84 69 C-84.26554687 68.443125 -84.53109375 67.88625 -84.8046875 67.3125 C-85.15789062 66.549375 -85.51109375 65.78625 -85.875 65 C-86.22304688 64.2575 -86.57109375 63.515 -86.9296875 62.75 C-92.61707288 48.1371558 -91.09291604 32.72119647 -84.9375 18.5546875 C-77.73165631 4.1930407 -64.72334699 -5.45932598 -49.8984375 -10.75 C-32.39784898 -15.61502847 -14.12508062 -10.95911427 0 0 Z " fill="#FEFDFD" transform="translate(373,156)"/>
<path d="M0 0 C17.49 0 34.98 0 53 0 C53 11.55 53 23.1 53 35 C51.02 35.33 49.04 35.66 47 36 C47 40.62 47 45.24 47 50 C48.98 50.33 50.96 50.66 53 51 C53 57.6 53 64.2 53 71 C51.02 71.33 49.04 71.66 47 72 C46.67 76.62 46.34 81.24 46 86 C48.31 86.33 50.62 86.66 53 87 C53 93.6 53 100.2 53 107 C51.02 107.33 49.04 107.66 47 108 C47 112.29 47 116.58 47 121 C48.98 121.33 50.96 121.66 53 122 C53 128.93 53 135.86 53 143 C51.02 143.33 49.04 143.66 47 144 C47 148.29 47 152.58 47 157 C48.98 157.33 50.96 157.66 53 158 C53 164.93 53 171.86 53 179 C51.02 179.33 49.04 179.66 47 180 C47 184.29 47 188.58 47 193 C48.98 193.33 50.96 193.66 53 194 C53 200.93 53 207.86 53 215 C51.02 215.33 49.04 215.66 47 216 C47 220.29 47 224.58 47 229 C48.98 229.33 50.96 229.66 53 230 C53 236.93 53 243.86 53 251 C51.02 251.33 49.04 251.66 47 252 C47 256.29 47 260.58 47 265 C48.98 265.33 50.96 265.66 53 266 C53 282.17 53 298.34 53 315 C43.98404832 308.23803624 43.98404832 308.23803624 41.25390625 305.51953125 C40.34632568 304.61799316 40.34632568 304.61799316 39.42041016 303.69824219 C38.8072998 303.07594727 38.19418945 302.45365234 37.5625 301.8125 C36.91071777 301.15540039 36.25893555 300.49830078 35.58740234 299.82128906 C30.34546627 294.47651889 25.62181982 288.89038073 21 283 C19.52119945 281.24969061 18.04202398 279.49969792 16.5625 277.75 C6.83512115 265.81031798 -0.86276011 252.60798965 -8 239 C-8.57016846 237.92685547 -8.57016846 237.92685547 -9.15185547 236.83203125 C-26.88719771 203.03870234 -34.46421612 165.29145532 -34.3125 127.375 C-34.31034485 126.40444672 -34.3081897 125.43389343 -34.30596924 124.43392944 C-34.2549334 110.10569102 -33.90758438 96.07814218 -31 82 C-30.80132324 81.01692871 -30.60264648 80.03385742 -30.39794922 79.02099609 C-24.5468577 50.88754558 -14.23826755 24.91696821 0 0 Z " fill="#A6E7F0" transform="translate(45,118)"/>
<path d="M0 0 C12.86682576 31.48083369 14.16514244 64.03599075 1.01757812 95.71630859 C-0.90719169 100.03595754 -3.13296433 104.1953015 -5.51049805 108.28173828 C-7.4124062 111.5899372 -8 113.05289567 -8 117 C-6.09468214 119.25440092 -4.20838764 121.25615809 -2.09375 123.296875 C-1.49445679 123.89050842 -0.89516357 124.48414185 -0.27770996 125.09576416 C1.63901565 126.99009491 3.56917669 128.87005098 5.5 130.75 C6.8016903 132.03162945 8.10248329 133.31417096 9.40234375 134.59765625 C12.59124578 137.7424496 15.79226806 140.87442037 19 144 C19.99 143.34 20.98 142.68 22 142 C25.55038705 141.55437943 27.32030396 141.53152817 30.30014038 143.58534241 C31.02657745 144.32811935 31.75301453 145.0708963 32.50146484 145.83618164 C33.75339127 147.09362938 33.75339127 147.09362938 35.03060913 148.3764801 C35.91511749 149.29509323 36.79962585 150.21370636 37.7109375 151.16015625 C39.12768494 152.59350385 40.54443412 154.02684972 41.96128273 155.46009731 C43.94315373 157.47272885 45.91073653 159.49906949 47.87884521 161.52514648 C50.82869291 164.55622239 53.79714485 167.56904977 56.765131 170.58235073 C59.08007254 172.93271751 61.3903056 175.28701779 63.6914978 177.65089417 C68.03592869 182.09576605 72.43768124 186.35560249 77.15841675 190.39836121 C80.0947321 192.95209673 82.85559612 195.67408406 85.6171875 198.4140625 C86.20041779 198.99159271 86.78364807 199.56912292 87.384552 200.16415405 C88.60083037 201.37108444 89.81573816 202.57939755 91.02929688 203.7890625 C92.88490144 205.63484905 94.75091353 207.46969733 96.6171875 209.3046875 C97.80534252 210.4863209 98.99286556 211.66859018 100.1796875 212.8515625 C100.73486053 213.39438873 101.29003357 213.93721497 101.86203003 214.49649048 C106.12241417 218.78172137 107.78728777 221.83742568 108.375 227.8125 C108.0218163 237.60738559 100.74526024 243.83965859 94.1875 250.25 C93.31029297 251.13429688 92.43308594 252.01859375 91.52929688 252.9296875 C81.11757173 263.24017672 81.11757173 263.24017672 74.12109375 264.53125 C73.23550781 264.5209375 72.34992188 264.510625 71.4375 264.5 C70.10525391 264.51546875 70.10525391 264.51546875 68.74609375 264.53125 C63.07362275 263.43387296 58.99401729 259.24385149 55.02368164 255.26660156 C54.56587814 254.81069641 54.10807465 254.35479126 53.63639832 253.8850708 C52.13940174 252.39174788 50.64967964 250.89139917 49.16015625 249.390625 C48.1096952 248.33896943 47.05886156 247.28768592 46.00767517 246.23675537 C43.81002515 244.03754601 41.61575845 241.83503537 39.42407227 239.62988281 C36.63426758 236.82314195 33.83797957 234.02297478 31.03931522 231.22507095 C28.8692579 229.0547397 26.70183196 226.88179626 24.5352459 224.70800018 C23.50613262 223.67573518 22.47643943 222.64404795 21.44612312 221.6129837 C16.28928453 216.44830198 11.2436062 211.23983728 6.48997498 205.69775391 C4.42303019 203.342571 2.19028779 201.19790972 -0.09375 199.0546875 C-0.97804688 198.20519531 -1.86234375 197.35570312 -2.7734375 196.48046875 C-4.61141853 194.72411725 -6.46068713 192.97951186 -8.3203125 191.24609375 C-9.19429688 190.39917969 -10.06828125 189.55226563 -10.96875 188.6796875 C-11.76732422 187.92413574 -12.56589844 187.16858398 -13.38867188 186.39013672 C-15 184 -15 184 -14.75195312 180.95751953 C-14.50380859 179.98153809 -14.25566406 179.00555664 -14 178 C-14 173.47776856 -14.83794014 172.67494909 -17.86151123 169.55705261 C-18.41768127 169.00584244 -18.97385132 168.45463226 -19.546875 167.88671875 C-20.39829071 167.02600517 -20.39829071 167.02600517 -21.26690674 166.14790344 C-22.46914466 164.93856455 -23.67654833 163.73434242 -24.88867188 162.53491211 C-26.7449847 160.6924778 -28.57604766 158.82731593 -30.40625 156.95898438 C-31.57667323 155.78761011 -32.74850245 154.61763866 -33.921875 153.44921875 C-34.46994812 152.88788742 -35.01802124 152.32655609 -35.58270264 151.74821472 C-38.36870496 148.83527279 -38.36870496 148.83527279 -42.11987305 148.02539062 C-42.74031494 148.34701172 -43.36075684 148.66863281 -44 149 C-44.66781494 149.3194458 -45.33562988 149.6388916 -46.02368164 149.96801758 C-47.08123657 150.55039185 -47.08123657 150.55039185 -48.16015625 151.14453125 C-48.94849854 151.5725 -49.73684082 152.00046875 -50.54907227 152.44140625 C-51.37850342 152.89386719 -52.20793457 153.34632813 -53.0625 153.8125 C-59.89314956 157.4654883 -66.53954028 160.81585225 -74 163 C-74.7425 163.29132813 -75.485 163.58265625 -76.25 163.8828125 C-87.91023228 167.62511678 -102.12220497 159.34441267 -112.34619141 154.1171875 C-118.46910828 150.8656968 -124.59740778 147.35890963 -130 143 C-130 142.34 -130 141.68 -130 141 C-129.4013916 141.06928711 -128.8027832 141.13857422 -128.18603516 141.20996094 C-100.34833184 144.23896176 -73.60292795 140.68051253 -51 123 C-47.51303113 120.14099185 -44.21532074 117.16073126 -41 114 C-40.31292969 113.32582031 -39.62585938 112.65164063 -38.91796875 111.95703125 C-23.09692149 95.32464823 -14.23749517 71.36339192 -14.66821289 48.52075195 C-15.19419297 34.0429541 -17.92099666 18.86472723 -25 6 C-23.89205078 5.85304687 -23.89205078 5.85304687 -22.76171875 5.703125 C-16.21314454 4.73789678 -10.3335428 3.24839236 -4.1796875 0.8046875 C-2 0 -2 0 0 0 Z " fill="#0681AF" transform="translate(364,248)"/>
<path d="M0 0 C31.67693869 -0.57222854 63.35238759 -1.01370539 95.03329888 -1.27663324 C98.78644926 -1.30789513 102.53958945 -1.34025374 106.29272461 -1.37329102 C107.03980177 -1.37984878 107.78687893 -1.38640654 108.5565948 -1.39316302 C120.60138366 -1.50149719 132.64314254 -1.69834119 144.68614291 -1.9288199 C157.07439983 -2.16390112 169.46108775 -2.30173347 181.85148293 -2.35221237 C188.79964694 -2.38323316 195.74148086 -2.4574442 202.68737602 -2.64325142 C251.18268647 -3.90441042 251.18268647 -3.90441042 264.83548832 9.01758671 C277 21.65248325 277 21.65248325 277 27 C250.87198336 40.50043094 224.25105796 50.54649587 195 55 C193.83702393 55.18328857 192.67404785 55.36657715 191.47583008 55.55541992 C180.12727056 57.17479446 168.88818176 57.35919518 157.4375 57.3125 C155.97642822 57.30876877 155.97642822 57.30876877 154.48583984 57.30496216 C107.16670424 57.11802788 60.24511919 44.07045929 21 17 C20.37287109 16.57058105 19.74574219 16.14116211 19.09960938 15.69873047 C12.46653483 11.13051119 5.91163488 6.48937524 0 1 C0 0.67 0 0.34 0 0 Z " fill="#FDAD8A" transform="translate(99,433)"/>
<path d="M0 0 C1.46049774 0.00273422 1.46049774 0.00273422 2.95050049 0.00552368 C16.97111234 0.0497532 30.6054235 0.46000802 44.375 3.3125 C45.22400879 3.47347168 46.07301758 3.63444336 46.94775391 3.80029297 C80.15318282 10.13237787 111.53313522 23.14726141 139.375 42.3125 C139.98907715 42.73499023 140.6031543 43.15748047 141.23583984 43.59277344 C144.34421281 45.75201825 147.44778275 47.91152405 150.375 50.3125 C150.375 50.6425 150.375 50.9725 150.375 51.3125 C51.375 51.3125 -47.625 51.3125 -149.625 51.3125 C-145.8225185 47.5100185 -142.35949999 44.52524239 -137.9375 41.625 C-136.96345215 40.98316772 -136.96345215 40.98316772 -135.96972656 40.32836914 C-128.09403226 35.21887709 -119.93534455 30.67118369 -111.625 26.3125 C-110.90957031 25.9323877 -110.19414062 25.55227539 -109.45703125 25.16064453 C-87.17199978 13.46506221 -62.44936298 6.09233322 -37.625 2.3125 C-36.46274902 2.12921143 -35.30049805 1.94592285 -34.10302734 1.75708008 C-22.73310168 0.1339371 -11.4721311 -0.04452615 0 0 Z " fill="#FEAD8A" transform="translate(255.625,-0.3125)"/>
<path d="M0 0 C10.88391837 9.08159748 18.51654704 21.76302682 20.23925781 35.97363281 C21.65175189 52.66315782 16.73594086 67.54716903 5.97265625 80.42578125 C-4.17849352 91.34790442 -17.75814583 97.87845187 -32.66772461 98.47021484 C-48.80702025 98.67632749 -61.91426744 93.40380454 -73.64453125 82.3828125 C-85.23692752 70.65584447 -90.4167172 57.28200708 -90.36791992 40.94165039 C-90.02730951 25.15895854 -83.00261815 12.8763586 -72 2 C-51.47788997 -16.80584816 -21.6948422 -16.83220515 0 0 Z " fill="#FC6931" transform="translate(373,156)"/>
<path d="M0 0 C1.96090576 -0.00978882 1.96090576 -0.00978882 3.96142578 -0.01977539 C11.70432341 0.08302385 19.95534052 0.25629124 27.125 3.5 C28.99794211 6.38278214 29.45820379 9.16092892 30.125 12.5 C30.81774613 14.36807946 31.54693831 16.22306167 32.3125 18.0625 C32.82876953 19.33287109 32.82876953 19.33287109 33.35546875 20.62890625 C33.60941406 21.24636719 33.86335938 21.86382812 34.125 22.5 C32.26875 21.8503125 32.26875 21.8503125 30.375 21.1875 C8.48051513 13.90084967 -13.12382736 12.84491839 -34.125 23.125 C-55.23867808 34.03640804 -68.54498858 51.10541614 -75.9140625 73.68359375 C-81.25784561 93.68532399 -77.21269486 115.39184615 -67.31640625 133.32421875 C-55.98257086 152.09179375 -39.23415648 163.62116052 -18.5625 169.9375 C2.04783006 174.9659889 23.29133065 170.54064884 41.50390625 160.15234375 C60.92162401 147.91136817 71.22465958 130.30601846 76.87109375 108.63671875 C81.61632899 86.54683057 75.19022396 66.37167867 64.125 47.5 C65.40375 47.809375 66.6825 48.11875 68 48.4375 C71.53912456 49.26497304 74.81054974 49.57971545 78.4375 49.6875 C82.22584981 50.06750422 82.80301498 50.13450349 85.4375 53.125 C86.05675792 54.56015225 86.60833157 56.02480642 87.125 57.5 C87.75341797 59.13775391 87.75341797 59.13775391 88.39453125 60.80859375 C97.42295828 85.81239309 95.74459405 110.48198162 85.0390625 134.5546875 C74.26328999 157.48774182 53.79325366 174.17045032 30.4296875 183.0234375 C8.25422075 190.90430297 -16.97725799 189.5939824 -38.29638672 179.74511719 C-60.94190165 168.56769906 -79.74856056 150.77940513 -88.21044922 126.53466797 C-96.80582557 100.2180381 -95.74907676 75.52952871 -83.875 50.5 C-71.34696008 27.65475074 -50.6926982 10.28329788 -25.75 2.4375 C-17.32329149 0.07932585 -8.68980017 0.03098633 0 0 Z " fill="#046081" transform="translate(255.875,203.5)"/>
<path d="M0 0 C1.82958984 1.28344727 1.82958984 1.28344727 3.7109375 3.00390625 C4.40687012 3.63893066 5.10280273 4.27395508 5.81982422 4.92822266 C9.44243447 8.37071656 12.98763062 11.8828521 16.5 15.4375 C17.22703125 16.16904297 17.9540625 16.90058594 18.703125 17.65429688 C20.47109499 19.43389824 22.23666378 21.21580918 24 23 C27.53432051 21.49709971 29.76735331 19.45236567 32.44140625 16.71875 C33.27220703 15.87699219 34.10300781 15.03523438 34.95898438 14.16796875 C36.24772461 12.84732422 36.24772461 12.84732422 37.5625 11.5 C39.26987446 9.75819752 40.97941524 8.01851516 42.69140625 6.28125 C43.44623291 5.50845703 44.20105957 4.73566406 44.97875977 3.93945312 C48.95321982 0.12581493 48.95321982 0.12581493 51.98046875 -0.23803711 C59.07410717 0.23827246 62.33951454 3.31852864 67 8.4375 C67.66644531 9.13166016 68.33289063 9.82582031 69.01953125 10.54101562 C74.91842587 16.74626831 74.91842587 16.74626831 75.25390625 21.90234375 C74.33718794 29.24639044 68.06116894 33.77289775 62.9375 38.5625 C61.88033482 39.5794848 60.82497601 40.59835089 59.77148438 41.61914062 C57.20149547 44.10150368 54.60785688 46.55737835 52 49 C53.50290029 52.53432051 55.54763433 54.76735331 58.28125 57.44140625 C59.12300781 58.27220703 59.96476562 59.10300781 60.83203125 59.95898438 C62.15267578 61.24772461 62.15267578 61.24772461 63.5 62.5625 C65.24180248 64.26987446 66.98148484 65.97941524 68.71875 67.69140625 C69.49154297 68.44623291 70.26433594 69.20105957 71.06054688 69.97875977 C74.87418507 73.95321982 74.87418507 73.95321982 75.23803711 76.98046875 C74.76172754 84.07410717 71.68147136 87.33951454 66.5625 92 C65.86833984 92.66644531 65.17417969 93.33289063 64.45898438 94.01953125 C58.40427373 99.7753162 58.40427373 99.7753162 53.875 100.5 C49.79478519 99.97352067 49.15851496 99.62015701 46.2890625 96.99609375 C45.59312988 96.36106934 44.89719727 95.72604492 44.18017578 95.07177734 C40.55756553 91.62928344 37.01236938 88.1171479 33.5 84.5625 C32.77296875 83.83095703 32.0459375 83.09941406 31.296875 82.34570312 C29.52890501 80.56610176 27.76333622 78.78419082 26 77 C22.34968275 78.53271547 20.06060249 80.72153877 17.3046875 83.53515625 C16.42425781 84.42654297 15.54382813 85.31792969 14.63671875 86.23632812 C13.72535156 87.16896484 12.81398437 88.10160156 11.875 89.0625 C10.06210385 90.90972167 8.24710642 92.75488421 6.4296875 94.59765625 C5.62772949 95.41758057 4.82577148 96.23750488 3.99951172 97.08227539 C1.02628093 99.93389052 -1.48391318 100.64332806 -5.6484375 100.60546875 C-13.16735569 98.66953466 -19.32716032 89.8710037 -24 84 C-25.63023814 80.73952371 -25.4673535 78.62198965 -25 75 C-23.71655273 73.17041016 -23.71655273 73.17041016 -21.99609375 71.2890625 C-21.36106934 70.59312988 -20.72604492 69.89719727 -20.07177734 69.18017578 C-16.62928344 65.55756553 -13.1171479 62.01236938 -9.5625 58.5 C-8.83095703 57.77296875 -8.09941406 57.0459375 -7.34570312 56.296875 C-5.56610176 54.52890501 -3.78419082 52.76333622 -2 51 C-3.53271547 47.34968275 -5.72153877 45.06060249 -8.53515625 42.3046875 C-9.42654297 41.42425781 -10.31792969 40.54382813 -11.23632812 39.63671875 C-12.16896484 38.72535156 -13.10160156 37.81398438 -14.0625 36.875 C-15.90972167 35.06210385 -17.75488421 33.24710642 -19.59765625 31.4296875 C-20.41758057 30.62772949 -21.23750488 29.82577148 -22.08227539 28.99951172 C-24.5116093 26.46657159 -24.94008967 25.37443956 -25.5 21.875 C-24.77875405 16.28534392 -21.9019685 13.86649606 -18 10 C-17.20851562 9.18402344 -16.41703125 8.36804688 -15.6015625 7.52734375 C-7.30600974 -0.94271093 -7.30600974 -0.94271093 0 0 Z " fill="#FD6930" transform="translate(231,247)"/>
<path d="M0 0 C0.33 0 0.66 0 1 0 C1 82.5 1 165 1 250 C-25.4779165 216.90260438 -33.47681074 166.43906569 -33.3125 125.375 C-33.31034485 124.40444672 -33.3081897 123.43389343 -33.30596924 122.43392944 C-33.2549334 108.10569102 -32.90758438 94.07814218 -30 80 C-29.80132324 79.01692871 -29.60264648 78.03385742 -29.39794922 77.02099609 C-23.86270705 50.40622496 -14.82162083 23.03377659 0 0 Z " fill="#FEAD8A" transform="translate(44,120)"/>
<path d="M0 0 C26.49622297 33.12027871 34.47269607 83.5991819 34.3125 124.6875 C34.31067719 125.6586676 34.30885437 126.62983521 34.30697632 127.63043213 C34.26271428 141.6325203 33.8487177 155.24864275 31 169 C30.83902832 169.84900879 30.67805664 170.69801758 30.51220703 171.57275391 C25.52138824 197.74458849 16.95834622 228.80206723 0 250 C0 167.5 0 85 0 0 Z " fill="#FEAD8A" transform="translate(467,120)"/>
<path d="M0 0 C12.87643487 31.50434399 14.1665547 64.06319323 0.97802734 95.75146484 C-11.75253359 125.01967906 -34.21405445 146.19571869 -63.19921875 158.90625 C-68.36561848 160.92381196 -73.6479221 162.5519577 -79 164 C-80.16982422 164.37705078 -80.16982422 164.37705078 -81.36328125 164.76171875 C-85.30360833 165.11780757 -88.64487072 163.84511251 -92.3125 162.5625 C-93.49803467 162.15523682 -93.49803467 162.15523682 -94.70751953 161.73974609 C-107.12172796 157.32894586 -119.69660308 151.31296797 -130 143 C-130 142.34 -130 141.68 -130 141 C-129.4013916 141.06928711 -128.8027832 141.13857422 -128.18603516 141.20996094 C-100.34833184 144.23896176 -73.60292795 140.68051253 -51 123 C-47.51303113 120.14099185 -44.21532074 117.16073126 -41 114 C-40.31292969 113.32582031 -39.62585938 112.65164063 -38.91796875 111.95703125 C-23.09692149 95.32464823 -14.23749517 71.36339192 -14.66821289 48.52075195 C-15.19419297 34.0429541 -17.92099666 18.86472723 -25 6 C-23.89205078 5.85304687 -23.89205078 5.85304687 -22.76171875 5.703125 C-16.21314454 4.73789678 -10.3335428 3.24839236 -4.1796875 0.8046875 C-2 0 -2 0 0 0 Z " fill="#3692BB" transform="translate(364,248)"/>
<path d="M0 0 C0 0.33 0 0.66 0 1 C-0.58265625 0.99097656 -1.1653125 0.98195312 -1.765625 0.97265625 C-14.52450315 1.43406222 -25.81973376 10.51349047 -34.38525391 19.44433594 C-39.08460755 24.59290469 -43.20957028 29.75755609 -46 36.18359375 C-47.63401106 39.15162165 -50.03787857 41.2768475 -52.51171875 43.5546875 C-54.73166696 45.71054272 -55.00355351 47.02220943 -55.5 50.125 C-54.97352067 54.20521481 -54.62015701 54.84148504 -51.99609375 57.7109375 C-51.36106934 58.40687012 -50.72604492 59.10280273 -50.07177734 59.81982422 C-46.62928344 63.44243447 -43.1171479 66.98763062 -39.5625 70.5 C-38.83095703 71.22703125 -38.09941406 71.9540625 -37.34570312 72.703125 C-35.56610176 74.47109499 -33.78419082 76.23666378 -32 78 C-33.53271547 81.65031725 -35.72153877 83.93939751 -38.53515625 86.6953125 C-39.87223633 88.01595703 -39.87223633 88.01595703 -41.23632812 89.36328125 C-42.16896484 90.27464844 -43.10160156 91.18601562 -44.0625 92.125 C-45.90972167 93.93789615 -47.75488421 95.75289358 -49.59765625 97.5703125 C-50.41758057 98.37227051 -51.23750488 99.17422852 -52.08227539 100.00048828 C-54.60381193 102.6295633 -54.95869586 103.57043696 -55.3125 107.25 C-54.87677674 112.47867913 -52.71294732 115.34058229 -49 118.9375 C-46.91118661 121.09158881 -45.68543626 123.32926159 -44.25390625 125.9453125 C-41.60389483 130.28769881 -38.28944356 134.13302055 -35 138 C-34.48953125 138.6084375 -33.9790625 139.216875 -33.453125 139.84375 C-28.10467059 145.68845276 -21.23198613 149.66652784 -14.62353516 153.92773438 C-12.6866801 155.20693248 -10.83023076 156.57288336 -9 158 C-28.0654865 159.55636625 -47.12205712 147.96354915 -61.1328125 136.2109375 C-76.52721357 122.02394044 -84.62012299 100.10745412 -85.4753418 79.49267578 C-85.72581752 57.98152293 -76.3695259 38.0107555 -61.6640625 22.54296875 C-44.45449213 6.19666161 -23.37166118 -0.88380231 0 0 Z " fill="#E7F6F8" transform="translate(262,218)"/>
<path d="M0 0 C4.08663421 1.6162553 6.78950866 4.55195312 9.796875 7.63671875 C10.34933899 8.19438431 10.90180298 8.75204987 11.4710083 9.32661438 C13.23550514 11.10887805 14.99318795 12.89766335 16.75 14.6875 C26.01337959 24.15698126 26.01337959 24.15698126 35.81445312 33.05688477 C40.7384464 37.43468442 45.36421986 42.13895364 50.02929688 46.7890625 C51.88490144 48.63484905 53.75091353 50.46969733 55.6171875 52.3046875 C56.80534252 53.4863209 57.99286556 54.66859018 59.1796875 55.8515625 C59.73486053 56.39438873 60.29003357 56.93721497 60.86203003 57.49649048 C65.12241417 61.78172137 66.78728777 64.83742568 67.375 70.8125 C67.11269733 79.21107901 61.63734904 84.96339247 55.875 90.5 C55.24207031 91.13164062 54.60914063 91.76328125 53.95703125 92.4140625 C49.28175731 97 49.28175731 97 47 97 C45.77427673 95.74809265 45.77427673 95.74809265 44.26538086 93.88549805 C39.12493388 87.84689223 33.42634967 82.38157675 27.77774239 76.82483864 C25.01019358 74.09972092 22.25226244 71.36495372 19.49365902 68.63078594 C14.37200195 63.55472657 9.2464272 58.48277496 4.10473633 53.42700195 C0.51328089 49.89482917 -3.06593436 46.35065687 -6.63728523 42.79816246 C-7.99759021 41.44960865 -9.36242127 40.10560455 -10.73180962 38.76627541 C-12.63940965 36.89955299 -14.53102598 35.01794359 -16.41967773 33.13208008 C-16.98842621 32.58287903 -17.55717468 32.03367798 -18.14315796 31.46783447 C-20.46012239 29.12628481 -21.89997289 27.57312587 -22.47499084 24.27844238 C-21.74314371 20.76790835 -19.73162154 19.17106411 -17.1875 16.69921875 C-16.69918701 16.2179805 -16.21087402 15.73674225 -15.70776367 15.24092102 C-14.14987368 13.71095495 -12.57549414 12.19931111 -11 10.6875 C-9.93896781 9.65155322 -8.8790577 8.61445586 -7.8203125 7.57617188 C-5.22641492 5.03731536 -2.61744058 2.51460351 0 0 Z " fill="#3591BB" transform="translate(405,405)"/>
<path d="M0 0 C1.21087784 0.00565979 2.42175568 0.01131958 3.66932678 0.01715088 C7.52084583 0.03946618 11.37142034 0.08965665 15.22265625 0.140625 C17.84048132 0.16069613 20.45832103 0.17894582 23.07617188 0.1953125 C29.47948665 0.23931531 35.88225395 0.30618039 42.28515625 0.390625 C40.74136007 1.41982245 39.19354215 2.44546592 37.6015625 3.3984375 C37.02277344 3.76710937 36.44398437 4.13578125 35.84765625 4.515625 C34.98333984 5.04542969 34.98333984 5.04542969 34.1015625 5.5859375 C28.67560401 10.97688981 27.81647035 16.96305225 27.67919922 24.26855469 C27.67807129 25.35040039 27.67694336 26.43224609 27.67578125 27.546875 C27.66015137 28.56104492 27.64452148 29.57521484 27.62841797 30.62011719 C27.57616492 34.37671835 27.55761148 38.13372755 27.53515625 41.890625 C27.45265625 50.305625 27.37015625 58.720625 27.28515625 67.390625 C9.79515625 67.390625 -7.69484375 67.390625 -25.71484375 67.390625 C-25.83859375 58.66625 -25.96234375 49.941875 -26.08984375 40.953125 C-26.14446777 38.21588135 -26.1990918 35.4786377 -26.25537109 32.65844727 C-26.27290996 30.4663265 -26.28819568 28.27418605 -26.30078125 26.08203125 C-26.33147705 24.96211792 -26.36217285 23.84220459 -26.39379883 22.68835449 C-26.39886615 15.03416117 -25.05944242 10.01722523 -19.71484375 4.390625 C-13.63884865 -0.61579848 -7.63392492 -0.13505833 0 0 Z " fill="#017297" transform="translate(70.71484375,50.609375)"/>
<path d="M0 0 C1.08788818 -0.0141394 1.08788818 -0.0141394 2.19775391 -0.02856445 C6.61231396 -0.00170203 10.21157873 0.62254778 14.3125 2.25 C11.96990698 4.59259302 9.82990679 5.44766781 6.8125 6.8125 C-7.21397501 13.75014572 -15.43064356 24.82987042 -20.7421875 39.26953125 C-21.5850718 41.92705489 -22.21074255 44.5061087 -22.6875 47.25 C-23.32558594 47.44335938 -23.96367187 47.63671875 -24.62109375 47.8359375 C-25.86052734 48.22652344 -25.86052734 48.22652344 -27.125 48.625 C-27.94871094 48.88023437 -28.77242188 49.13546875 -29.62109375 49.3984375 C-31.86548016 50.05882227 -31.86548016 50.05882227 -32.6875 52.25 C-32.83125422 55.62822416 -32.76286348 58.02390955 -31.6875 61.25 C-29.58165562 62.05563638 -29.58165562 62.05563638 -27.125 62.4375 C-26.29871094 62.59605469 -25.47242188 62.75460938 -24.62109375 62.91796875 C-23.98300781 63.02753906 -23.34492188 63.13710937 -22.6875 63.25 C-22.40777344 64.27738281 -22.12804687 65.30476563 -21.83984375 66.36328125 C-17.31501522 82.28204796 -10.06122782 94.35093626 4.625 102.625 C5.82738767 103.28238981 7.03171536 103.93624817 8.23828125 104.5859375 C11.3125 106.25 11.3125 106.25 14.3125 108.25 C2.64713952 112.87177515 -11.39340601 111.005408 -22.6875 106.25 C-36.42045368 100.28296581 -46.63519961 88.5959432 -52.64453125 75.12109375 C-58.04992329 60.24108194 -56.88847935 45.219901 -50.625 30.8046875 C-43.41915631 16.4430407 -30.41084699 6.79067402 -15.5859375 1.5 C-10.46728432 0.07705394 -5.27767867 0.05229322 0 0 Z " fill="#FC5427" transform="translate(338.6875,143.75)"/>
<path d="M0 0 C0.76292185 0.00223072 1.52584371 0.00446144 2.3118844 0.00675976 C3.11649308 0.00519977 3.92110175 0.00363978 4.75009251 0.00203252 C7.46711915 -0.00198081 10.18409067 0.00121344 12.9011178 0.00434887 C14.84050514 0.00299498 16.77989222 0.00121512 18.71927881 -0.00096118 C24.00218248 -0.00553694 29.28506672 -0.00374538 34.56797075 -0.0005821 C40.08352065 0.00194077 45.59906882 -0.00039583 51.11461878 -0.00196826 C60.37890406 -0.00379017 69.64318138 -0.00138309 78.90746546 0.00337231 C89.63485604 0.00881497 100.36222761 0.00705233 111.08961773 0.00154591 C120.28193576 -0.00298462 129.47424806 -0.00363607 138.66656685 -0.00101542 C144.1646196 0.00054769 149.6626634 0.00074019 155.16071558 -0.00255191 C160.32834565 -0.00542975 165.49595111 -0.00345656 170.66357851 0.00234234 C172.56597652 0.00367041 174.46837659 0.00327504 176.37077379 0.00107968 C178.95623431 -0.00162999 181.54161462 0.00174703 184.12706995 0.00675976 C184.8899918 0.00452904 185.65291366 0.00229832 186.43895435 0 C191.60532733 0.01959356 191.60532733 0.01959356 192.71947718 1.13374341 C192.84462646 3.10993788 192.89520477 5.09112514 192.90697718 7.07124341 C192.92115686 8.15276684 192.93533655 9.23429028 192.94994593 10.34858716 C192.71947718 13.13374341 192.71947718 13.13374341 190.71947718 15.13374341 C188.14076803 15.33125889 185.66936489 15.40302587 183.08947229 15.38771069 C182.29288187 15.39083067 181.49629144 15.39395065 180.6755619 15.39716518 C177.99155857 15.4051777 175.30777929 15.39880895 172.62377405 15.39253247 C170.70556489 15.39524089 168.78735677 15.39880098 166.86915064 15.40315259 C161.64820113 15.41229659 156.42733036 15.40872407 151.20637941 15.40239441 C145.75269461 15.3973448 140.29901673 15.40202296 134.84533167 15.40516675 C125.6853665 15.40880943 116.52543355 15.40399937 107.36547327 15.39448559 C96.76246211 15.38360047 86.15952785 15.38712584 75.55651855 15.3981384 C66.46691891 15.40720268 57.37734246 15.40850078 48.28773975 15.40326107 C42.85281758 15.40013662 37.4179316 15.39974498 31.98301172 15.40633404 C26.87443346 15.4120944 21.76595472 15.40813473 16.65738726 15.39654553 C14.77798551 15.3938919 12.89857544 15.39467593 11.01917696 15.39907086 C8.46249734 15.40450017 5.90614084 15.39772428 3.34948206 15.38771069 C2.22216457 15.39440286 2.22216457 15.39440286 1.07207298 15.40123022 C-4.05222269 15.36204354 -4.05222269 15.36204354 -6.28052282 13.13374341 C-6.51099157 10.34858716 -6.51099157 10.34858716 -6.46802282 7.07124341 C-6.46157751 5.98714184 -6.4551322 4.90304028 -6.44849157 3.78608716 C-6.1531958 -0.87683913 -4.17930756 0.0158501 0 0 Z " fill="#FBFDFD" transform="translate(219.28052282333374,76.8662565946579)"/>
<path d="M0 0 C1.35568336 0.00333092 1.35568336 0.00333092 2.73875427 0.00672913 C3.75973709 0.00680466 4.78071991 0.00688019 5.8326416 0.00695801 C6.94304306 0.01211929 8.05344452 0.01728058 9.19749451 0.02259827 C10.89336952 0.02472069 10.89336952 0.02472069 12.62350464 0.02688599 C16.25105891 0.03250433 19.8785525 0.04505994 23.50608826 0.05775452 C25.95856133 0.06276715 28.41103536 0.06733047 30.86351013 0.07142639 C36.89022371 0.08247971 42.91690165 0.09923568 48.94358826 0.12025452 C48.82634399 0.67098129 48.70909973 1.22170807 48.58830261 1.78912354 C46.0768826 13.75907083 44.33186883 25.19492355 44.19358826 37.43275452 C44.16525696 38.7823988 44.13530775 40.13201008 44.10374451 41.48158264 C44.03464892 44.69452722 43.98118371 47.90681521 43.94358826 51.12025452 C37.4108004 51.14552454 30.87802505 51.16308744 24.34519958 51.17518616 C22.12091094 51.18022768 19.89662563 51.18706074 17.67234802 51.19569397 C14.48280517 51.2077675 11.29330597 51.21348447 8.10374451 51.21791077 C6.60219566 51.22565269 6.60219566 51.22565269 5.0703125 51.23355103 C4.14943344 51.23362656 3.22855438 51.23370209 2.2797699 51.23377991 C1.46480545 51.23600052 0.649841 51.23822113 -0.18981934 51.24050903 C-2.05641174 51.12025452 -2.05641174 51.12025452 -3.05641174 50.12025452 C-3.15534114 47.95544655 -3.18612275 45.78731667 -3.18141174 43.62025452 C-3.18398987 42.43431702 -3.18656799 41.24837952 -3.18922424 40.02650452 C-3.05641174 37.12025452 -3.05641174 37.12025452 -2.05641174 36.12025452 C-0.07641174 36.12025452 1.90358826 36.12025452 3.94358826 36.12025452 C3.94358826 29.19025452 3.94358826 22.26025452 3.94358826 15.12025452 C1.96358826 15.12025452 -0.01641174 15.12025452 -2.05641174 15.12025452 C-3.05641174 14.12025452 -3.05641174 14.12025452 -3.18922424 11.21400452 C-3.18664612 10.02806702 -3.18406799 8.84212952 -3.18141174 7.62025452 C-3.18398987 6.43431702 -3.18656799 5.24837952 -3.18922424 4.02650452 C-3.0132699 0.17620951 -3.0132699 0.17620951 0 0 Z " fill="#D4F2F6" transform="translate(94.05641174316406,260.87974548339844)"/>
<path d="M0 0 C4.19625909 1.63778045 6.98676785 4.73323182 10.078125 7.8828125 C10.64956238 8.45707977 11.22099976 9.03134705 11.80975342 9.62301636 C13.62792945 11.4523581 15.43901492 13.28854193 17.25 15.125 C18.48391329 16.36894774 19.71828322 17.6124427 20.953125 18.85546875 C23.97406743 21.89842367 26.98867092 24.94753254 30 28 C28.71977125 30.80969467 27.39285871 32.8539238 25.20263672 35.02441406 C24.64220673 35.58469299 24.08177673 36.14497192 23.50436401 36.722229 C22.90222076 37.31404968 22.30007751 37.90587036 21.6796875 38.515625 C21.06102814 39.13145447 20.44236877 39.74728394 19.80496216 40.3817749 C17.83296186 42.34260336 15.85411263 44.29635301 13.875 46.25 C12.53469836 47.58026799 11.19484917 48.910992 9.85546875 50.2421875 C6.57553411 53.5001015 3.28944058 56.75168533 0 60 C-4.4266071 56.28984473 -8.64214876 52.47851707 -12.71484375 48.3828125 C-13.21544815 47.88079315 -13.71605255 47.3787738 -14.23182678 46.86154175 C-15.80278598 45.28506329 -17.37019877 43.70511427 -18.9375 42.125 C-20.01343727 41.04403726 -21.08960731 39.96330617 -22.16601562 38.8828125 C-24.78003292 36.25787359 -27.39088596 33.62981372 -30 31 C-26.72347368 27.68208958 -23.42832167 24.67879452 -19.75 21.8125 C-11.97448008 15.51453845 -5.58336239 8.28498936 0 0 Z " fill="#025F80" transform="translate(353,364)"/>
<path d="M0 0 C2.4375 1.5 2.4375 1.5 4 3 C3.48846458 7.0648797 1.51404704 8.56928508 -1.5 11.1875 C-4.53490674 14.15431589 -6.68047802 16.33318123 -7.5 20.5625 C-7.50792017 25.17203812 -5.67406643 27.43326834 -2.5234375 30.62890625 C-1.27433594 31.80259766 -1.27433594 31.80259766 0 33 C1.84342763 34.74288661 3.67903483 36.49247507 5.50170898 38.25708008 C6.77738622 39.48803058 8.06841691 40.70329413 9.37524414 41.90112305 C10.2703772 42.75830933 10.2703772 42.75830933 11.18359375 43.6328125 C11.72556396 44.13699707 12.26753418 44.64118164 12.82592773 45.16064453 C14.59140797 47.92652685 14.45008636 49.78724434 14 53 C12.28759766 55.37768555 12.28759766 55.37768555 9.9140625 57.63671875 C9.06585938 58.46107422 8.21765625 59.28542969 7.34375 60.13476562 C6.4465625 60.97716797 5.549375 61.81957031 4.625 62.6875 C2.86536224 64.37700727 1.10746863 66.06833352 -0.6484375 67.76171875 C-1.43395996 68.50381592 -2.21948242 69.24591309 -3.02880859 70.01049805 C-5.66784696 72.67405064 -6.90552608 74.4646478 -7.5625 78.1875 C-6.62763994 84.52377377 -2.11606332 88.09554301 2.5 92.25 C4 94 4 94 3.9375 96.125 C3 98 3 98 0 100 C-3.32138725 100.64096947 -4.8317708 100.87620504 -8 100 C-14.29420039 95.61636583 -21.52436775 88.95126449 -25 82 C-25.54792854 78.57544663 -25.77155379 76.09987142 -23.71655273 73.17041016 C-23.14880127 72.54956543 -22.5810498 71.9287207 -21.99609375 71.2890625 C-21.36106934 70.59312988 -20.72604492 69.89719727 -20.07177734 69.18017578 C-16.62928344 65.55756553 -13.1171479 62.01236938 -9.5625 58.5 C-8.83095703 57.77296875 -8.09941406 57.0459375 -7.34570312 56.296875 C-5.56610176 54.52890501 -3.78419082 52.76333622 -2 51 C-3.53271547 47.34968275 -5.72153877 45.06060249 -8.53515625 42.3046875 C-9.42654297 41.42425781 -10.31792969 40.54382813 -11.23632812 39.63671875 C-12.16896484 38.72535156 -13.10160156 37.81398438 -14.0625 36.875 C-15.90972167 35.06210385 -17.75488421 33.24710642 -19.59765625 31.4296875 C-20.41758057 30.62772949 -21.23750488 29.82577148 -22.08227539 28.99951172 C-24.5116093 26.46657159 -24.94008967 25.37443956 -25.5 21.875 C-24.77875405 16.28534392 -21.9019685 13.86649606 -18 10 C-17.20851562 9.18402344 -16.41703125 8.36804688 -15.6015625 7.52734375 C-7.70862234 -0.53162913 -7.70862234 -0.53162913 0 0 Z " fill="#FC5527" transform="translate(231,247)"/>
<path d="M0 0 C10.28304538 -0.02312376 20.56608462 -0.04091525 30.84915066 -0.05181217 C35.6234828 -0.05704093 40.39779721 -0.06413844 45.17211914 -0.07543945 C49.77566262 -0.0862686 54.37918899 -0.09227689 58.98274422 -0.09487724 C60.74309623 -0.09673144 62.50344726 -0.10035196 64.26379204 -0.10573006 C66.72072277 -0.11294086 69.17758195 -0.11399093 71.63452148 -0.11352539 C72.73719109 -0.1189183 72.73719109 -0.1189183 73.86213684 -0.12442017 C78.88594784 -0.11405216 78.88594784 -0.11405216 80 1 C80.09873816 2.99799572 80.12971799 4.99957158 80.125 7 C80.12886719 8.6396875 80.12886719 8.6396875 80.1328125 10.3125 C80 13 80 13 79 14 C76.53555943 14.09500548 74.09925374 14.12557985 71.63452148 14.11352539 C70.86384338 14.11367142 70.09316528 14.11381744 69.2991333 14.1139679 C66.73975861 14.1132686 64.1804558 14.10547545 61.62109375 14.09765625 C59.85132385 14.09579213 58.08155344 14.0943682 56.31178284 14.09336853 C51.64448634 14.08954288 46.97722077 14.0797122 42.30993652 14.06866455 C37.55102965 14.05845144 32.79211779 14.05387113 28.03320312 14.04882812 C18.68878847 14.03808997 9.3443968 14.02101299 0 14 C0 9.38 0 4.76 0 0 Z " fill="#FEFEFE" transform="translate(91,154)"/>
<path d="M0 0 C0.69104324 -0.00175232 1.38208649 -0.00350464 2.09407043 -0.00531006 C4.3889107 -0.00972801 6.68367451 -0.0067908 8.97851562 -0.00341797 C10.56652847 -0.00409102 12.15454122 -0.00506106 13.74255371 -0.00631714 C17.07496112 -0.00779403 20.40734178 -0.00563983 23.73974609 -0.00097656 C28.02075073 0.00472073 32.30169268 0.00144168 36.58269501 -0.00454903 C39.86310299 -0.00815487 43.143496 -0.00701595 46.42390442 -0.00442123 C48.00283312 -0.00375203 49.58176317 -0.00458017 51.16069031 -0.00690079 C53.36367415 -0.0094277 55.56655511 -0.00558622 57.76953125 0 C59.65363708 0.00119339 59.65363708 0.00119339 61.57580566 0.00241089 C64.38476562 0.12939453 64.38476562 0.12939453 65.38476562 1.12939453 C65.50991491 3.10558901 65.56049322 5.08677626 65.57226562 7.06689453 C65.58644531 8.14841797 65.600625 9.22994141 65.61523438 10.34423828 C65.38476562 13.12939453 65.38476562 13.12939453 63.38476562 15.12939453 C60.53820801 15.38336182 60.53820801 15.38336182 56.85546875 15.38818359 C56.18539291 15.39168823 55.51531708 15.39519287 54.82493591 15.39880371 C52.6051911 15.40762185 50.3857638 15.40177177 48.16601562 15.39501953 C46.62666767 15.39636616 45.08732013 15.39830668 43.54797363 15.40081787 C40.31986446 15.40376924 37.09186587 15.39947114 33.86376953 15.39013672 C29.72070768 15.3787421 25.57790494 15.38530152 21.4348526 15.39728165 C18.25561563 15.40449995 15.07644034 15.40221247 11.89720154 15.39702606 C10.36933868 15.39568948 8.84147027 15.39733759 7.31361389 15.40198517 C5.18027863 15.40705 3.04736618 15.39934122 0.9140625 15.38818359 C-0.30124146 15.38659241 -1.51654541 15.38500122 -2.76867676 15.38336182 C-5.61523438 15.12939453 -5.61523438 15.12939453 -7.61523438 13.12939453 C-7.84570312 10.34423828 -7.84570312 10.34423828 -7.80273438 7.06689453 C-7.79628906 5.98279297 -7.78984375 4.89869141 -7.78320312 3.78173828 C-7.46092443 -1.30726714 -4.47096029 0.0028319 0 0 Z " fill="#FDFEFE" transform="translate(193.615234375,153.87060546875)"/>
<path d="M0 0 C1.22355698 0.00222061 2.44711395 0.00444122 3.70774841 0.00672913 C4.71746201 0.00651009 4.71746201 0.00651009 5.74757385 0.00628662 C7.98229649 0.00698573 10.21693674 0.01477799 12.4516449 0.02259827 C13.99721226 0.02446245 15.54278022 0.02588635 17.08834839 0.02688599 C21.16380941 0.03071112 25.23923502 0.04054135 29.31468201 0.05158997 C33.47035747 0.0618042 37.62603864 0.06638363 41.78172302 0.07142639 C49.94124452 0.08216363 58.10073718 0.09923998 66.26023865 0.12025452 C65.60007357 1.78950713 64.93187787 3.45558549 64.26023865 5.12025452 C63.75566887 6.42715996 63.75566887 6.42715996 63.24090576 7.76046753 C61.8478603 10.69803507 60.56793328 12.81581198 58.26023865 15.12025452 C53.6276779 16.53299351 49.17271327 16.31119509 44.3657074 16.13197327 C43.00908713 16.11584095 41.65240951 16.10401034 40.29571533 16.09628296 C36.73836013 16.06389805 33.18509271 15.9706422 29.6292572 15.8651886 C25.99959112 15.76962831 22.36937067 15.73703509 18.73875427 15.69642639 C13.45110358 15.62512349 8.16447185 15.53411151 2.87815857 15.39247131 C1.81481796 15.36452988 0.75147736 15.33658844 -0.34408569 15.30780029 C-2.73976135 15.12025452 -2.73976135 15.12025452 -3.73976135 14.12025452 C-3.83869075 11.95544655 -3.86947236 9.78731667 -3.86476135 7.62025452 C-3.86733948 6.43431702 -3.8699176 5.24837952 -3.87257385 4.02650452 C-3.69598044 0.1622252 -3.69598044 0.1622252 0 0 Z " fill="#FDFEFE" transform="translate(94.73976135253906,224.87974548339844)"/>
<path d="M0 0 C1.35568336 0.00333092 1.35568336 0.00333092 2.73875427 0.00672913 C3.75973709 0.00680466 4.78071991 0.00688019 5.8326416 0.00695801 C6.94304306 0.01211929 8.05344452 0.01728058 9.19749451 0.02259827 C10.89336952 0.02472069 10.89336952 0.02472069 12.62350464 0.02688599 C16.25105891 0.03250433 19.8785525 0.04505994 23.50608826 0.05775452 C25.95856133 0.06276715 28.41103536 0.06733047 30.86351013 0.07142639 C36.89022371 0.08247971 42.91690165 0.09923568 48.94358826 0.12025452 C49.76033621 1.86827598 50.57182277 3.61875641 51.38108826 5.37025452 C52.05977966 6.83205139 52.05977966 6.83205139 52.75218201 8.32337952 C53.72741182 10.61277146 54.44101566 12.69404198 54.94358826 15.12025452 C47.52898884 15.14338335 40.11439715 15.16117236 32.69976902 15.17206669 C29.25718477 15.17729434 25.81462513 15.18438983 22.37205505 15.19569397 C18.41803783 15.20859686 14.4640307 15.2134837 10.50999451 15.21791077 C8.64752831 15.22565269 8.64752831 15.22565269 6.74743652 15.23355103 C5.03577553 15.23366432 5.03577553 15.23366432 3.28953552 15.23377991 C2.27915726 15.23600052 1.26877899 15.23822113 0.2277832 15.24050903 C-2.05641174 15.12025452 -2.05641174 15.12025452 -3.05641174 14.12025452 C-3.15534114 11.95544655 -3.18612275 9.78731667 -3.18141174 7.62025452 C-3.18398987 6.43431702 -3.18656799 5.24837952 -3.18922424 4.02650452 C-3.0132699 0.17620951 -3.0132699 0.17620951 0 0 Z " fill="#FEFEFE" transform="translate(94.05641174316406,332.87974548339844)"/>
<path d="M0 0 C7.65807215 -0.04629168 15.31612984 -0.08185303 22.97430992 -0.10362434 C26.53012399 -0.11407224 30.0858425 -0.12824959 33.64160156 -0.15087891 C37.727223 -0.17671832 41.81274369 -0.18646444 45.8984375 -0.1953125 C47.17866791 -0.20563507 48.45889832 -0.21595764 49.77792358 -0.22659302 C50.95899689 -0.22674408 52.14007019 -0.22689514 53.35693359 -0.22705078 C54.92246475 -0.23371262 54.92246475 -0.23371262 56.5196228 -0.24050903 C59 0 59 0 61 2 C61.265625 4.53125 61.265625 4.53125 61.25 7.5 C61.25773437 8.96953125 61.25773437 8.96953125 61.265625 10.46875 C61 13 61 13 59 15 C57.10063171 15.32798767 57.10063171 15.32798767 54.7565918 15.43334961 C53.43832649 15.496063 53.43832649 15.496063 52.09342957 15.56004333 C48.0325163 15.68955152 43.9723265 15.79582032 39.90991211 15.86499023 C37.78054261 15.91290468 35.65158903 15.98762859 33.52416992 16.09057617 C14.95935491 16.97889337 14.95935491 16.97889337 8.61962891 12.10986328 C5.27111242 9.03825164 2.52501277 5.77449098 0 2 C0 1.34 0 0.68 0 0 Z " fill="#FDFEFE" transform="translate(361,369)"/>
<path d="M0 0 C6.36590304 5.24458586 12.13570612 11.02097322 17.9375 16.875 C18.91708237 17.85960919 19.89689837 18.843986 20.87695312 19.828125 C23.25360252 22.21648203 25.62787356 24.60715212 28 27 C26.16307611 31.00374431 23.50882084 33.71957934 20.375 36.75 C19.859375 37.25660156 19.34375 37.76320313 18.8125 38.28515625 C17.54616661 39.52803902 16.2736856 40.76465276 15 42 C8.25919575 36.47349666 2.1928871 30.30550441 -3.9375 24.125 C-5.01343727 23.04403726 -6.08960731 21.96330617 -7.16601562 20.8828125 C-9.78003292 18.25787359 -12.39088596 15.62981372 -15 13 C-11.69991223 9.66122988 -8.37847384 6.59106608 -4.6875 3.6875 C-3.80449219 2.99011719 -2.92148437 2.29273438 -2.01171875 1.57421875 C-1.34785156 1.05472656 -0.68398438 0.53523438 0 0 Z " fill="#024C67" transform="translate(338,382)"/>
<path d="M0 0 C1.11474701 0.00444122 2.22949402 0.00888245 3.37802124 0.01345825 C5.26975571 0.01368484 5.26975571 0.01368484 7.19970703 0.01391602 C8.58124956 0.02413006 9.96279048 0.03456206 11.34432983 0.04519653 C12.7539449 0.04892615 14.16356256 0.05177337 15.57318115 0.05377197 C19.28536116 0.06141248 22.99738494 0.08106442 26.70950317 0.10317993 C30.4966114 0.12362945 34.28374483 0.13277177 38.07089233 0.14285278 C45.50325526 0.16431004 52.93548942 0.19845087 60.36776733 0.24050903 C57.15543375 3.6051741 53.57207328 5.34217252 49.44979858 7.44754028 C46.49447868 9.04091013 46.49447868 9.04091013 44.66601562 10.70626831 C39.30432467 15.3152033 35.38321657 16.08281148 28.43417358 15.86160278 C27.05635963 15.85242577 27.05635963 15.85242577 25.65071106 15.84306335 C22.74274213 15.81630324 19.83750264 15.74718875 16.93026733 15.67800903 C14.9517789 15.65646675 12.97325991 15.63756047 10.99472046 15.62136841 C-3.41988011 15.45286159 -3.41988011 15.45286159 -4.63223267 14.24050903 C-4.75738195 12.26431456 -4.80796026 10.2831273 -4.81973267 8.30300903 C-4.83391235 7.2214856 -4.84809204 6.13996216 -4.86270142 5.02566528 C-4.55230865 1.27464767 -3.77123864 0.34458085 0 0 Z " fill="#FCFEFE" transform="translate(145.63223266601563,188.75949096679688)"/>
<path d="M0 0 C7.2265322 -0.05058332 14.45301899 -0.08568412 21.6796875 -0.10986328 C24.13966579 -0.11993983 26.59963206 -0.13360131 29.05957031 -0.15087891 C32.58922285 -0.17505461 36.11871747 -0.1864664 39.6484375 -0.1953125 C40.75367767 -0.20563507 41.85891785 -0.21595764 42.99765015 -0.22659302 C44.01855743 -0.22674408 45.03946472 -0.22689514 46.09130859 -0.22705078 C46.99287689 -0.231492 47.89444519 -0.23593323 48.82333374 -0.24050903 C51 0 51 0 53 2 C53.265625 4.53125 53.265625 4.53125 53.25 7.5 C53.25773437 8.96953125 53.25773437 8.96953125 53.265625 10.46875 C53 13 53 13 51 15 C48.93722534 15.24050903 48.93722534 15.24050903 46.36669922 15.22705078 C45.40585419 15.22689972 44.44500916 15.22674866 43.45504761 15.22659302 C42.41542877 15.21627045 41.37580994 15.20594788 40.3046875 15.1953125 C39.24210724 15.1924826 38.17952698 15.18965271 37.08474731 15.18673706 C33.68138501 15.17551639 30.27828314 15.15040837 26.875 15.125 C24.57161838 15.11497264 22.26823264 15.10584637 19.96484375 15.09765625 C14.30980655 15.07557093 8.65492187 15.04207489 3 15 C2.49564306 13.0636296 1.99666126 11.12585854 1.5 9.1875 C1.2215625 8.10855469 0.943125 7.02960938 0.65625 5.91796875 C0 3 0 3 0 0 Z " fill="#FDFEFE" transform="translate(369,261)"/>
<path d="M0 0 C1.35568336 0.00333092 1.35568336 0.00333092 2.73875427 0.00672913 C3.75973709 0.00680466 4.78071991 0.00688019 5.8326416 0.00695801 C6.94304306 0.01211929 8.05344452 0.01728058 9.19749451 0.02259827 C10.89336952 0.02472069 10.89336952 0.02472069 12.62350464 0.02688599 C16.25105891 0.03250433 19.8785525 0.04505994 23.50608826 0.05775452 C25.95856133 0.06276715 28.41103536 0.06733047 30.86351013 0.07142639 C36.89022639 0.08247972 42.91689702 0.09975664 48.94358826 0.12025452 C47.95358826 5.07025452 46.96358826 10.02025452 45.94358826 15.12025452 C39.12596402 15.14489699 32.30836546 15.16308696 25.4907074 15.17518616 C23.16941374 15.18022785 20.84812328 15.18706103 18.52684021 15.19569397 C15.19830031 15.20776676 11.86980224 15.2134843 8.54124451 15.21791077 C6.97407433 15.22565269 6.97407433 15.22565269 5.37524414 15.23355103 C4.41432358 15.23362656 3.45340302 15.23370209 2.46336365 15.23377991 C1.61286942 15.23600052 0.76237518 15.23822113 -0.1138916 15.24050903 C-2.05641174 15.12025452 -2.05641174 15.12025452 -3.05641174 14.12025452 C-3.15534114 11.95544655 -3.18612275 9.78731667 -3.18141174 7.62025452 C-3.18398987 6.43431702 -3.18656799 5.24837952 -3.18922424 4.02650452 C-3.0132699 0.17620951 -3.0132699 0.17620951 0 0 Z " fill="#FEFEFE" transform="translate(94.05641174316406,260.87974548339844)"/>
<path d="M0 0 C6.51447435 -0.04933483 13.02884063 -0.08568851 19.54345703 -0.10986328 C21.76092421 -0.11993825 23.97837805 -0.13359859 26.19580078 -0.15087891 C29.37796312 -0.17506163 32.55995024 -0.18646797 35.7421875 -0.1953125 C37.23599442 -0.21079636 37.23599442 -0.21079636 38.75997925 -0.22659302 C40.14118454 -0.22681961 40.14118454 -0.22681961 41.55029297 -0.22705078 C42.3630368 -0.231492 43.17578064 -0.23593323 44.01315308 -0.24050903 C46 0 46 0 48 2 C48.265625 4.53125 48.265625 4.53125 48.25 7.5 C48.25773437 8.96953125 48.25773437 8.96953125 48.265625 10.46875 C48 13 48 13 46 15 C44.01315308 15.24050903 44.01315308 15.24050903 41.55029297 15.22705078 C40.62948944 15.22689972 39.70868591 15.22674866 38.75997925 15.22659302 C37.76410797 15.21627045 36.76823669 15.20594788 35.7421875 15.1953125 C34.72399933 15.1924826 33.70581116 15.18965271 32.6567688 15.18673706 C29.396061 15.1755177 26.13562516 15.15040996 22.875 15.125 C20.66797271 15.11497247 18.46094112 15.10584623 16.25390625 15.09765625 C10.83583228 15.07557263 5.41796229 15.04103082 0 15 C0 10.05 0 5.1 0 0 Z " fill="#FEFEFE" transform="translate(374,297)"/>
<path d="M0 0 C1.98 0.33 3.96 0.66 6 1 C5.34 9.25 4.68 17.5 4 26 C-3 25 -3 25 -5.40112305 24.44360352 C-9.12282444 23.80834457 -12.8192384 23.87755719 -16.58203125 23.90234375 C-17.39621017 23.9037587 -18.2103891 23.90517365 -19.04924011 23.90663147 C-21.63703156 23.91220683 -24.22473492 23.92475476 -26.8125 23.9375 C-28.57226437 23.94251819 -30.33203011 23.94708054 -32.09179688 23.95117188 C-36.39456494 23.96216819 -40.69726756 23.97941579 -45 24 C-35.27195922 14.06884516 -16.42949956 2.49693476 -2.125 1.875 C-1.42375 1.91625 -0.7225 1.9575 0 2 C0 1.34 0 0.68 0 0 Z " fill="#3591BA" transform="translate(279,181)"/>
<path d="M0 0 C0.79719955 0.00222061 1.59439911 0.00444122 2.41575623 0.00672913 C3.31661453 0.00680466 4.21747284 0.00688019 5.14562988 0.00695801 C6.12478867 0.01211929 7.10394745 0.01728058 8.11277771 0.02259827 C9.11018478 0.02401321 10.10759186 0.02542816 11.13522339 0.02688599 C14.3348027 0.03250337 17.53431315 0.04505881 20.73387146 0.05775452 C22.89728191 0.06276728 25.06069345 0.06733057 27.22410583 0.07142639 C32.53988471 0.08247845 37.85562317 0.09923348 43.17137146 0.12025452 C44.17246661 3.4309629 44.2749328 6.42110221 44.23387146 9.87025452 C44.22484802 10.85509827 44.21582458 11.83994202 44.20652771 12.85462952 C44.19492615 13.60228577 44.18332458 14.34994202 44.17137146 15.12025452 C37.6385836 15.14552454 31.10580825 15.16308744 24.57298279 15.17518616 C22.34869414 15.18022768 20.12440883 15.18706074 17.90013123 15.19569397 C14.71058837 15.2077675 11.52108917 15.21348447 8.33152771 15.21791077 C6.82997887 15.22565269 6.82997887 15.22565269 5.2980957 15.23355103 C4.37721664 15.23362656 3.45633759 15.23370209 2.5075531 15.23377991 C1.28510643 15.23711082 1.28510643 15.23711082 0.03796387 15.24050903 C-1.82862854 15.12025452 -1.82862854 15.12025452 -2.82862854 14.12025452 C-2.92755794 11.95544655 -2.95833954 9.78731667 -2.95362854 7.62025452 C-2.95620667 6.43431702 -2.95878479 5.24837952 -2.96144104 4.02650452 C-2.78580618 0.18320056 -2.78580618 0.18320056 0 0 Z " fill="#FEFEFE" transform="translate(93.82862854003906,296.87974548339844)"/>
<path d="M0 0 C3.66752005 1.5391801 5.98580573 3.75485452 8.765625 6.5703125 C9.65507812 7.46621094 10.54453125 8.36210937 11.4609375 9.28515625 C12.38132813 10.22230469 13.30171875 11.15945313 14.25 12.125 C15.19484856 13.07988637 16.14015633 14.03431859 17.0859375 14.98828125 C19.39518338 17.32109087 21.69963203 19.65844086 24 22 C22.43809102 25.75205367 20.10972261 28.1343812 17.24609375 30.984375 C16.55472069 31.67506073 16.55472069 31.67506073 15.84938049 32.37969971 C14.87924882 33.34682183 13.90669939 34.31152404 12.93188477 35.27392578 C11.43377195 36.75368237 9.9439157 38.24138602 8.45507812 39.73046875 C1.14017532 47 1.14017532 47 0 47 C-3.33452859 30.60523445 -3.57130953 16.36850202 0 0 Z " fill="#FEFBFB" transform="translate(206,274)"/>
<path d="M0 0 C7.10244999 -0.02526787 14.20488848 -0.04283201 21.30737305 -0.05493164 C23.72567172 -0.05997349 26.14396733 -0.06680678 28.56225586 -0.07543945 C32.02979283 -0.08751157 35.49728966 -0.09322963 38.96484375 -0.09765625 C40.05337143 -0.10281754 41.14189911 -0.10797882 42.26341248 -0.11329651 C43.76485558 -0.11340981 43.76485558 -0.11340981 45.29663086 -0.11352539 C46.62566689 -0.11685631 46.62566689 -0.11685631 47.98155212 -0.12025452 C50 0 50 0 51 1 C51.12514928 2.97619447 51.1757276 4.95738173 51.1875 6.9375 C51.20167969 8.01902344 51.21585937 9.10054687 51.23046875 10.21484375 C51 13 51 13 49 15 C44.03650185 15.61723379 39.07047918 15.71310572 34.07250977 15.81005859 C32.41442879 15.85295807 30.75678484 15.92086735 29.10083008 16.01513672 C14.65091886 16.82942029 14.65091886 16.82942029 9.45654297 12.37207031 C5.75174039 8.61751573 2.91941375 4.37912062 0 0 Z " fill="#FDFEFE" transform="translate(371,154)"/>
<path d="M0 0 C2.39709657 0.08850066 4.79018985 0.12291124 7.1887207 0.14697266 C8.70896109 0.17381014 10.22915203 0.20365326 11.74926758 0.23681641 C12.82581856 0.2589772 12.82581856 0.2589772 13.92411804 0.28158569 C18.96943727 0.47651735 18.96943727 0.47651735 21.20629883 2.71337891 C21.47192383 5.24462891 21.47192383 5.24462891 21.45629883 8.21337891 C21.4640332 9.68291016 21.4640332 9.68291016 21.47192383 11.18212891 C21.20629883 13.71337891 21.20629883 13.71337891 19.20629883 15.71337891 C17.25741577 15.95388794 17.25741577 15.95388794 14.84838867 15.94042969 C13.9476059 15.94027863 13.04682312 15.94012756 12.1187439 15.93997192 C11.1447464 15.92964935 10.1707489 15.91932678 9.16723633 15.90869141 C8.1712442 15.90586151 7.17525208 15.90303162 6.14907837 15.90011597 C2.95969765 15.88889731 -0.22940495 15.86378972 -3.41870117 15.83837891 C-5.57755129 15.82835128 -7.7364058 15.81922506 -9.89526367 15.81103516 C-15.19483816 15.78895251 -20.4942498 15.75545849 -25.79370117 15.71337891 C-25.38146805 15.25909515 -24.96923492 14.8048114 -24.54450989 14.33676147 C-21.67007196 11.09347773 -19.49187863 8.42080676 -17.99291992 4.31494141 C-14.35787629 -1.70519083 -6.19651278 -0.22890843 0 0 Z " fill="#FDFEFE" transform="translate(400.793701171875,224.28662109375)"/>
<path d="M0 0 C0.82290527 0.00202423 1.64581055 0.00404846 2.49365234 0.00613403 C3.33331543 0.00517731 4.17297852 0.00422058 5.03808594 0.00323486 C6.81689529 0.00255306 8.59570712 0.00440737 10.37451172 0.00857544 C13.10699011 0.01392371 15.83930411 0.00863048 18.57177734 0.00222778 C20.29573604 0.00288856 22.01969464 0.00416973 23.74365234 0.00613403 C24.56655762 0.0041098 25.38946289 0.00208557 26.23730469 0 C32.0037018 0.02399599 32.0037018 0.02399599 33.11865234 1.13894653 C33.24380163 3.11514101 33.29437994 5.09632827 33.30615234 7.07644653 C33.32033203 8.15796997 33.33451172 9.23949341 33.34912109 10.35379028 C33.11865234 13.13894653 33.11865234 13.13894653 31.11865234 15.13894653 C28.3335501 15.32647964 25.64965588 15.39455885 22.86474609 15.36941528 C22.048694 15.36895706 21.23264191 15.36849884 20.39186096 15.36802673 C18.66609239 15.36500397 16.94032656 15.35711695 15.21459961 15.34475708 C12.56337901 15.32649631 9.91250739 15.3242474 7.26123047 15.32449341 C5.5873993 15.31957847 3.91357052 15.31375026 2.23974609 15.30691528 C1.44185165 15.30580246 0.64395721 15.30468964 -0.17811584 15.30354309 C-5.76529865 15.25499554 -5.76529865 15.25499554 -6.88134766 14.13894653 C-6.98027705 11.97413857 -7.01105866 9.80600868 -7.00634766 7.63894653 C-7.00892578 6.45300903 -7.01150391 5.26707153 -7.01416016 4.04519653 C-6.78012747 -1.07598926 -4.57374138 0.01903293 0 0 Z " fill="#FEFEFE" transform="translate(97.88134765625,368.8610534667969)"/>
<path d="M0 0 C1.05617271 -0.0049926 1.05617271 -0.0049926 2.13368225 -0.01008606 C3.62581731 -0.0151578 5.11796375 -0.01749431 6.61010742 -0.01733398 C8.89716232 -0.01951884 11.18373378 -0.03766674 13.47070312 -0.05664062 C14.91796709 -0.05957479 16.36523336 -0.06155943 17.8125 -0.0625 C18.49900131 -0.06968552 19.18550262 -0.07687103 19.89280701 -0.08427429 C24.74383256 -0.06085494 24.74383256 -0.06085494 26.97265625 2.16796875 C27.203125 4.953125 27.203125 4.953125 27.16015625 8.23046875 C27.15371094 9.31457031 27.14726563 10.39867187 27.140625 11.515625 C26.97265625 14.16796875 26.97265625 14.16796875 25.97265625 15.16796875 C23.45171549 15.25644618 20.95834732 15.28324176 18.4375 15.265625 C17.30762413 15.26350258 17.30762413 15.26350258 16.15492249 15.26133728 C13.73996065 15.25572251 11.32509024 15.24316758 8.91015625 15.23046875 C7.27669404 15.22545565 5.64323039 15.22089241 4.00976562 15.21679688 C-0.0026396 15.20574829 -4.01497616 15.18847381 -8.02734375 15.16796875 C-8.05419787 12.85553083 -8.07367216 10.54300605 -8.08984375 8.23046875 C-8.10144531 6.94269531 -8.11304687 5.65492188 -8.125 4.328125 C-7.9495792 -1.34849222 -4.71822894 0.0076258 0 0 Z " fill="#FDFEFE" transform="translate(99.02734375,188.83203125)"/>
<path d="M0 0 C3.95119422 -0.04588484 7.90171066 -0.08571688 11.85302734 -0.10986328 C13.8591136 -0.12488107 15.86511324 -0.15028981 17.87109375 -0.17578125 C19.12792969 -0.18222656 20.38476562 -0.18867188 21.6796875 -0.1953125 C22.84226074 -0.20578613 24.00483398 -0.21625977 25.20263672 -0.22705078 C28 0 28 0 30 2 C30.23046875 4.78515625 30.23046875 4.78515625 30.1875 8.0625 C30.18105469 9.14660156 30.17460937 10.23070312 30.16796875 11.34765625 C30 14 30 14 29 15 C26.92737924 15.08767112 24.85179706 15.10695873 22.77734375 15.09765625 C21.51728516 15.09443359 20.25722656 15.09121094 18.95898438 15.08789062 C17.61848891 15.07953403 16.27799412 15.07106907 14.9375 15.0625 C13.59310058 15.0574866 12.2486994 15.05292342 10.90429688 15.04882812 C7.60284567 15.03699497 4.3014174 15.01905886 1 15 C0.67 10.05 0.34 5.1 0 0 Z " fill="#FDFEFE" transform="translate(392,189)"/>
<path d="M0 0 C1.21880859 -0.01224609 2.43761719 -0.02449219 3.69335938 -0.03710938 C5.43649414 -0.04000977 5.43649414 -0.04000977 7.21484375 -0.04296875 C8.28726318 -0.04707764 9.35968262 -0.05118652 10.46459961 -0.05541992 C13.0625 0.1875 13.0625 0.1875 15.0625 2.1875 C15.328125 4.71875 15.328125 4.71875 15.3125 7.6875 C15.31765625 8.6671875 15.3228125 9.646875 15.328125 10.65625 C15.0625 13.1875 15.0625 13.1875 13.0625 15.1875 C10.46459961 15.43041992 10.46459961 15.43041992 7.21484375 15.41796875 C6.05275391 15.41603516 4.89066406 15.41410156 3.69335938 15.41210938 C2.47455078 15.39986328 1.25574219 15.38761719 0 15.375 C-1.83401367 15.3740332 -1.83401367 15.3740332 -3.70507812 15.37304688 C-12.79738944 15.32761056 -12.79738944 15.32761056 -13.9375 14.1875 C-14.0364294 12.02269203 -14.067211 9.85456215 -14.0625 7.6875 C-14.06507813 6.5015625 -14.06765625 5.315625 -14.0703125 4.09375 C-13.76703243 -2.54273143 -5.18106897 0.00273119 0 0 Z " fill="#FEFEFE" transform="translate(406.9375,332.8125)"/>
<path d="M0 0 C1.29349365 0.00523682 2.5869873 0.01047363 3.91967773 0.01586914 C4.9496714 0.01799156 4.9496714 0.01799156 6.00047302 0.02015686 C8.20144949 0.0257706 10.40232557 0.03832532 12.60327148 0.05102539 C14.09220231 0.05603863 15.58113473 0.06060184 17.07006836 0.06469727 C20.72700223 0.07574446 24.38387707 0.09301826 28.04077148 0.11352539 C27.25484619 0.8833374 26.4689209 1.65314941 25.65917969 2.44628906 C23.01794389 4.99504997 23.01794389 4.99504997 21.14624023 7.78930664 C16.21200195 14.57262811 16.21200195 14.57262811 12.09838867 15.59741211 C7.35968392 16.11173229 2.73720529 15.87364184 -1.95922852 15.11352539 C-3.95922852 13.11352539 -3.95922852 13.11352539 -4.18969727 10.32836914 C-4.17551758 9.2468457 -4.16133789 8.16532227 -4.14672852 7.05102539 C-4.1402832 5.96692383 -4.13383789 4.88282227 -4.12719727 3.76586914 C-3.89027709 0.02473423 -3.78959646 0.14538094 0 0 Z " fill="#FDFCFC" transform="translate(277.959228515625,153.886474609375)"/>
<path d="M0 0 C5.4484063 0.1851181 8.19179921 2.1288877 11.93237305 5.99169922 C19.23022461 14.30496654 19.23022461 14.30496654 19.23022461 16.03100586 C9.99022461 16.03100586 0.75022461 16.03100586 -8.76977539 16.03100586 C-10.14230271 13.28595123 -9.90206794 11.02773174 -9.89477539 7.96850586 C-9.89735352 6.8844043 -9.89993164 5.80030273 -9.90258789 4.68334961 C-9.62793384 -0.80165338 -4.62662576 0.21419046 0 0 Z " fill="#FDFEFE" transform="translate(155.769775390625,367.968994140625)"/>
<path d="M0 0 C1.47906892 -0.02689216 2.95827483 -0.04634621 4.4375 -0.0625 C5.26121094 -0.07410156 6.08492188 -0.08570313 6.93359375 -0.09765625 C9 0 9 0 10 1 C10.0989294 3.16480797 10.129711 5.33293785 10.125 7.5 C10.12757813 8.6859375 10.13015625 9.871875 10.1328125 11.09375 C10 14 10 14 9 15 C6.64686445 15.07271741 4.29166332 15.08370868 1.9375 15.0625 C0.64714844 15.05347656 -0.64320313 15.04445313 -1.97265625 15.03515625 C-2.97167969 15.02355469 -3.97070312 15.01195312 -5 15 C-3.33333333 10 -1.66666667 5 0 0 Z " fill="#FBFDFE" transform="translate(368,333)"/>
<path d="M0 0 C2.4375 1.625 2.4375 1.625 4 4 C4.5625 6.9375 4.5625 6.9375 4 10 C1.9375 12.9375 1.9375 12.9375 -1 15 C-4.85210127 15.06641554 -6.99848005 14.87229157 -9.9375 12.3125 C-11.33817538 9.26397123 -11.4842732 7.32073048 -11 4 C-8.05899778 -0.47032338 -5.13105401 -0.73300772 0 0 Z " fill="#F3F9FB" transform="translate(434,77)"/>
<path d="M0 0 C2.4375 1.625 2.4375 1.625 4 4 C4.5625 6.9375 4.5625 6.9375 4 10 C1.9375 12.9375 1.9375 12.9375 -1 15 C-4.85210127 15.06641554 -6.99848005 14.87229157 -9.9375 12.3125 C-11.33817538 9.26397123 -11.4842732 7.32073048 -11 4 C-8.05899778 -0.47032338 -5.13105401 -0.73300772 0 0 Z " fill="#00ECA6" transform="translate(137,77)"/>
<path d="M0 0 C2.4375 1.625 2.4375 1.625 4 4 C4.5625 6.9375 4.5625 6.9375 4 10 C1.9375 12.9375 1.9375 12.9375 -1 15 C-4.85210127 15.06641554 -6.99848005 14.87229157 -9.9375 12.3125 C-11.33817538 9.26397123 -11.4842732 7.32073048 -11 4 C-8.05899778 -0.47032338 -5.13105401 -0.73300772 0 0 Z " fill="#F3DC79" transform="translate(111,77)"/>
<path d="M0 0 C2.4375 1.625 2.4375 1.625 4 4 C4.5625 6.9375 4.5625 6.9375 4 10 C1.9375 12.9375 1.9375 12.9375 -1 15 C-4.85210127 15.06641554 -6.99848005 14.87229157 -9.9375 12.3125 C-11.33817538 9.26397123 -11.4842732 7.32073048 -11 4 C-8.05899778 -0.47032338 -5.13105401 -0.73300772 0 0 Z " fill="#F16934" transform="translate(85,77)"/>
<path d="M0 0 C2.4375 1.625 2.4375 1.625 4 4 C4.60605429 7.63632575 4.47161336 9.28314769 2.4375 12.375 C-0.93510779 14.62340519 -3.02512383 14.56783945 -7 14 C-9.4375 12.375 -9.4375 12.375 -11 10 C-11.60605429 6.36367425 -11.47161336 4.71685231 -9.4375 1.625 C-6.06489221 -0.62340519 -3.97487617 -0.56783945 0 0 Z " fill="#FEFAF8" transform="translate(367,192)"/>
<path d="M0 0 C2.4375 1.625 2.4375 1.625 4 4 C4.60605429 7.63632575 4.47161336 9.28314769 2.4375 12.375 C-0.93510779 14.62340519 -3.02512383 14.56783945 -7 14 C-9.4375 12.375 -9.4375 12.375 -11 10 C-11.60605429 6.36367425 -11.47161336 4.71685231 -9.4375 1.625 C-6.06489221 -0.62340519 -3.97487617 -0.56783945 0 0 Z " fill="#FEF9F7" transform="translate(316,192)"/>
<path d="M0 0 C2 1 2 1 3 3 C3.51981506 6.56444611 3.63102777 9.73794446 2 13 C-1.26205554 14.63102777 -4.43555389 14.51981506 -8 14 C-10 13 -10 13 -11 11 C-11.51981506 7.43555389 -11.63102777 4.26205554 -10 1 C-6.73794446 -0.63102777 -3.56444611 -0.51981506 0 0 Z " fill="#FEFBF9" transform="translate(342,192)"/>
</svg>
