<?xml version="1.0" encoding="UTF-8"?>
<svg version="1.1" xmlns="http://www.w3.org/2000/svg" width="512" height="512">
<path d="M0 0 C1.81657122 -0.00461405 3.63313871 -0.01097034 5.44969845 -0.01890898 C10.42040381 -0.03555618 15.39080069 -0.02737689 20.36150694 -0.0149641 C25.7303749 -0.00589706 31.09919059 -0.01989155 36.4680481 -0.03088379 C46.97731416 -0.0486559 57.48646585 -0.04483482 67.99573636 -0.03323323 C76.5380098 -0.02419405 85.08025122 -0.02297701 93.62252808 -0.02732849 C94.83902068 -0.02794142 96.05551329 -0.02855436 97.3088693 -0.02918586 C99.78026939 -0.03046478 102.25166948 -0.03176164 104.72306955 -0.03307623 C127.8890306 -0.0444782 151.0549283 -0.0313743 174.22087896 -0.00987476 C194.09170168 0.00799585 213.96243092 0.00489164 233.83325195 -0.0135498 C256.91718999 -0.03496325 280.00107253 -0.0433796 303.08501911 -0.03110075 C305.54724947 -0.02982657 308.00947983 -0.02856909 310.47171021 -0.02732849 C312.28883393 -0.02640284 312.28883393 -0.02640284 314.14266723 -0.02545848 C322.67315851 -0.02200702 331.20361453 -0.02782957 339.73410034 -0.0372467 C350.13209752 -0.0484733 360.52997393 -0.04541263 370.9279573 -0.02412373 C376.23161194 -0.01362232 381.53506533 -0.00947612 386.83871841 -0.02272034 C391.69697276 -0.03466869 396.55483996 -0.02804128 401.41305935 -0.00681013 C403.16728494 -0.00235444 404.92154347 -0.00458703 406.67574775 -0.01431328 C418.62185583 -0.0754506 429.54057676 0.76624889 439.19555664 8.61340332 C448.32009777 17.9496954 450.35478817 28.00132344 450.30781555 40.53903198 C450.3116411 41.6291202 450.31546665 42.71920842 450.31940812 43.84232962 C450.32970196 47.48400653 450.32575279 51.12552471 450.32177734 54.76721191 C450.32612581 57.38267665 450.3313094 59.99814011 450.33726501 62.61360168 C450.34999239 68.97397437 450.35180816 75.33430479 450.34946475 81.69468807 C450.34767922 86.86651786 450.34943627 92.03833485 450.35368919 97.21016312 C450.35428438 97.94721342 450.35487957 98.68426372 450.3554928 99.44364888 C450.35670459 100.9411383 450.35791873 102.43862771 450.35913517 103.93611713 C450.37000318 117.96903969 450.36785174 132.0019382 450.36175033 146.03486212 C450.35658194 158.86044995 450.36783584 171.68596181 450.38684855 184.51153462 C450.40624068 197.69456802 450.41448053 210.87756552 450.4107253 224.06061327 C450.40881532 231.45638252 450.41128089 238.85208712 450.42543983 246.2478447 C450.43862153 253.20328784 450.43607493 260.15857665 450.42302895 267.11401939 C450.4206634 269.66411706 450.42339703 272.21422543 450.43165207 274.76431084 C450.44212264 278.25067316 450.4340157 281.73652568 450.42134094 285.22286987 C450.42871523 286.2271677 450.43608951 287.23146552 450.44368726 288.26619661 C450.35982597 299.26350354 447.42534814 308.22887529 440.04711914 316.50793457 C429.36234759 325.76936976 417.72562541 325.94567142 404.33474731 325.89561462 C402.51990393 325.89979012 400.70506315 325.90526882 398.8902272 325.91193444 C393.91505341 325.92637942 388.94004541 325.92214724 383.96486259 325.91476762 C378.59460126 325.91003593 373.2243758 325.92254584 367.85412598 325.93278503 C357.33792167 325.94997837 346.8217771 325.95081192 336.30556239 325.94557213 C327.75752366 325.94153016 319.20950258 325.94297431 310.66146469 325.94832039 C309.44470111 325.94906881 308.22793752 325.94981723 306.97430231 325.95058833 C304.50241916 325.95211982 302.03053601 325.95365816 299.55865286 325.9552033 C276.37936072 325.9689303 253.20010232 325.96348926 230.02081095 325.95201809 C208.81857399 325.94208573 187.6164243 325.95502612 166.4142008 325.97895228 C144.63964472 326.00333903 122.8651293 326.01295217 101.09055984 326.00629956 C88.8674369 326.00280637 76.64438108 326.00504599 64.42126846 326.02255058 C54.01590922 326.03726723 43.61066436 326.03791496 33.20530738 326.02047967 C27.89761204 326.01196292 22.59012109 326.00983678 17.28243637 326.02513123 C12.42040818 326.03896791 7.55875966 326.03422807 2.69675349 326.01489199 C0.94111946 326.01112857 -0.81454489 326.0140638 -2.57015191 326.02450364 C-14.57658413 326.0908045 -26.87880726 325.42931943 -35.95288086 316.50793457 C-44.09282388 306.99437617 -46.41602972 297.55507195 -46.33383179 285.23632812 C-46.33851176 284.14453105 -46.34319173 283.05273398 -46.34801352 281.92785215 C-46.3599196 278.29231104 -46.3505232 274.65714994 -46.34106445 271.02160645 C-46.34513209 268.40584596 -46.35047504 265.79008719 -46.35699463 263.17433167 C-46.37029662 256.82089379 -46.36747006 250.46756256 -46.35875671 244.1141206 C-46.3519666 238.94805539 -46.35106916 233.78201994 -46.35432816 228.61595154 C-46.3550177 227.51078255 -46.3550177 227.51078255 -46.35572118 226.38328692 C-46.35668041 224.88628057 -46.35765305 223.38927422 -46.35863896 221.89226788 C-46.3671825 207.87267418 -46.35737501 193.85313943 -46.34123786 179.8335554 C-46.32783561 167.81824733 -46.330164 155.80302623 -46.34399414 143.78771973 C-46.36006829 129.816437 -46.36635862 115.84520588 -46.35715735 101.8739152 C-46.35620176 100.38258267 -46.35525864 98.89125014 -46.35432816 97.3999176 C-46.35386533 96.66625716 -46.3534025 95.93259672 -46.35292565 95.17670414 C-46.35034126 90.02008807 -46.35469484 84.86350489 -46.36176682 79.70689392 C-46.37108563 72.75962273 -46.36439959 65.81251809 -46.34708405 58.86526299 C-46.34312354 56.31839202 -46.34424575 53.77150722 -46.35087204 51.2246418 C-46.35909453 47.74275643 -46.3487567 44.26139331 -46.33383179 40.77954102 C-46.34052395 39.77660743 -46.34721612 38.77367385 -46.35411108 37.74034834 C-46.2665557 27.17750882 -43.80814206 18.7366774 -36.51538086 10.88293457 C-35.66975586 10.09918457 -34.82413086 9.31543457 -33.95288086 8.50793457 C-33.25163086 7.82730957 -32.55038086 7.14668457 -31.82788086 6.44543457 C-21.9596457 -0.20489782 -11.434832 -0.06340087 0 0 Z " fill="#25A2D9" transform="translate(53.952880859375,84.4920654296875)"/>
<path d="M0 0 C0.73905075 -0.00686325 1.4781015 -0.0137265 2.23954773 -0.02079773 C4.6685235 -0.03901154 7.09684988 -0.03523563 9.52587891 -0.02954102 C11.2244996 -0.03410597 12.92311844 -0.03941247 14.62173462 -0.04542542 C18.17742425 -0.05434628 21.73288918 -0.05194577 25.28857422 -0.04199219 C29.83021096 -0.0305134 34.37106891 -0.0507021 38.91260338 -0.07990932 C42.41979853 -0.09831684 45.9268087 -0.09796968 49.43404007 -0.0922718 C51.1076733 -0.09211909 52.78131947 -0.09812167 54.45490646 -0.11056328 C72.24157753 -0.22415534 72.24157753 -0.22415534 77.37744141 4.40405273 C82.59913416 9.64282828 82.97794927 15.26237611 83.07217407 22.40563965 C83.06205292 23.67355347 83.05193176 24.94146729 83.04150391 26.24780273 C83.0448796 27.58484334 83.04973846 28.92188093 83.05599976 30.25891113 C83.06333603 33.04961609 83.05277315 35.83951623 83.02929688 38.63012695 C83.00080844 42.18782371 83.01723032 45.74363417 83.04715919 49.3012619 C83.06532196 52.05879652 83.0594338 54.81589191 83.04652023 57.57344055 C83.04161459 59.5164616 83.0566643 61.45950048 83.07217407 63.40246582 C82.98953225 69.66761357 82.62599706 74.4537018 79.13143921 79.75012207 C74.01779148 84.57203163 69.33143774 86.00103918 62.42602539 85.92163086 C61.66410889 85.92864014 60.90219238 85.93564941 60.1171875 85.94287109 C57.61892378 85.96036072 55.12180876 85.94886256 52.62353516 85.93530273 C50.87671188 85.93799999 49.12989006 85.94188435 47.3830719 85.94689941 C43.73073972 85.95278196 40.07880007 85.94427084 36.42651367 85.92553711 C31.75352765 85.90273113 27.08145984 85.91588861 22.40850735 85.93982697 C18.80443952 85.9543043 15.20058822 85.94967042 11.59651375 85.9393158 C9.87378899 85.93665473 8.15104433 85.93989641 6.42834282 85.94923401 C4.01818879 85.95943379 1.60950766 85.94385326 -0.80053711 85.92163086 C-1.85974617 85.93377625 -1.85974617 85.93377625 -2.94035339 85.94616699 C-7.94432912 85.86101752 -10.7501062 84.5068029 -14.62255859 81.40405273 C-18.77884912 76.7984335 -19.74052736 73.62015241 -19.83129883 67.49902344 C-19.85058945 66.28378494 -19.86988007 65.06854645 -19.88975525 63.81648254 C-19.94751928 58.25365526 -19.99708178 52.69097446 -20.02758789 47.12792969 C-20.04536895 44.19551594 -20.0801374 41.26406972 -20.13012695 38.33203125 C-20.19057596 34.78173285 -20.22109662 31.23232799 -20.23076057 27.68153954 C-20.24339575 25.68292205 -20.28538907 23.684559 -20.32798767 21.68635559 C-20.31267669 14.89314289 -19.92048473 10.26327751 -15.49916077 4.94645691 C-10.64123316 0.95366188 -6.14848519 -0.04035523 0 0 Z " fill="#E2B550" transform="translate(62.62255859375,127.595947265625)"/>
<path d="M0 0 C1.68986422 1.30380769 3.36399769 2.62921482 5 4 C5.47308594 3.52949219 5.94617188 3.05898438 6.43359375 2.57421875 C12.49366204 -3.13145958 18.09055012 -5.92688196 26.4375 -6.5 C33.18775574 -6.25174191 38.83252115 -2.83764511 43.875 1.4375 C49.98665028 8.80743122 51.4334073 13.95365148 51.3359375 23.41796875 C50.57546291 31.52675008 46.11917501 36.4139404 40.16015625 41.58984375 C33.49339608 45.94192408 25.6755225 45.97841825 18 45 C12.35236983 42.72915132 8.18713398 39.35765074 4 35 C2.948125 36.11375 2.948125 36.11375 1.875 37.25 C-5.20762969 44.02468927 -10.4534161 45.34169782 -19.96875 45.203125 C-27.68422003 44.68610897 -31.88315544 41.67249315 -37.23828125 36.23046875 C-42.66741117 29.35678098 -43.0072362 22.30886752 -42.29736328 13.92089844 C-41.27186337 7.29640479 -37.05994152 2.56741453 -32 -1.5 C-20.83946293 -8.95439646 -10.93123126 -6.74118363 0 0 Z " fill="#FACA56" transform="translate(418,330)"/>
<path d="M0 0 C4.30181213 1.45351332 6.53959735 4.26944137 9.2890625 7.7734375 C10.08441406 8.78019531 10.87976563 9.78695312 11.69921875 10.82421875 C26.95643247 30.82992497 34.25490524 55.02157905 30.97265625 80.20068359 C27.77112537 98.27923114 20.34146443 114.91200058 8.2890625 128.7734375 C7.69996094 129.49273437 7.11085938 130.21203125 6.50390625 130.953125 C4.26423622 133.49379852 2.53891857 135.4321397 -0.78515625 136.33984375 C-4.11716568 136.5307722 -6.34947617 136.00514348 -9.1484375 134.2109375 C-11.34718382 130.78089324 -11.91639965 128.88268047 -11.7109375 124.7734375 C-10.29260303 122.66221176 -8.65096665 120.95717765 -6.8828125 119.12890625 C7.46066745 103.57293789 13.97730622 84.08256428 13.55859375 63.08984375 C12.74224387 45.20655353 4.45584053 29.3798308 -7.390625 16.34765625 C-11.73824125 11.52429074 -11.73824125 11.52429074 -11.5859375 7.3359375 C-10.7109375 3.7734375 -10.7109375 3.7734375 -9.2109375 1.2734375 C-5.89802053 -0.71431268 -3.76032204 -0.64917612 0 0 Z " fill="#285575" transform="translate(446.7109375,111.2265625)"/>
<path d="M0 0 C2.359375 2.05078125 2.359375 2.05078125 4 4 C3.85626525 6.80282758 3.09724946 8.78054651 1.96484375 11.3359375 C-0.88737045 19.21128198 1.23163421 27.40347245 4 35 C-1.24256677 40.55095305 -5.9902955 44.62785052 -13.734375 45.203125 C-22.83326977 45.3445586 -28.60060142 44.55832207 -35.3125 38.1875 C-41.24458098 32.15915807 -42.59587054 26.31648644 -42.55078125 18.11962891 C-42.27218888 10.53321036 -39.53833424 5.35580112 -34.03125 0.1328125 C-22.81765751 -8.88119069 -11.68652545 -7.47115117 0 0 Z " fill="#EA3B49" transform="translate(418,330)"/>
<path d="M0 0 C11.38740805 6.77089127 17.08798868 20.9788802 21 33 C21.24621094 33.72058594 21.49242187 34.44117188 21.74609375 35.18359375 C26.43569142 51.7750669 22.32969543 70.10530345 14.625 85.0625 C10.9793904 91.35077857 7.12772276 97.91485149 1 102 C-5.90410959 102.65753425 -5.90410959 102.65753425 -9.5 100.5 C-11.14268381 97.76219365 -11.86165557 95.60600023 -11.71875 92.390625 C-10.39184702 87.97723029 -7.1884768 84.7159744 -4.33203125 81.17578125 C4.94749867 68.53883346 5.13992445 54.0464916 4 39 C2.45612603 29.63177272 -3.25477033 22.27982744 -9 15 C-11.44396979 11.33404531 -11.8316352 8.26105872 -11 4 C-7.74423303 0.16968592 -4.93198588 -1.06376166 0 0 Z " fill="#285576" transform="translate(421,128)"/>
<path d="M0 0 C19.8 0 39.6 0 60 0 C60 14.44444444 60 14.44444444 56.77734375 19.31640625 C50.55640419 25.20920834 45.04308148 25.55815192 36.81640625 25.390625 C35.76090073 25.38496521 34.7053952 25.37930542 33.61790466 25.37347412 C30.26563061 25.35118595 26.91444788 25.30100215 23.5625 25.25 C21.28191654 25.2299253 19.00131623 25.21167623 16.72070312 25.1953125 C11.14638257 25.15475724 5.57440454 25.07644898 0 25 C0 16.75 0 8.5 0 0 Z " fill="#FBCA55" transform="translate(85,188)"/>
<path d="M0 0 C1.24624146 -0.0038269 2.49248291 -0.00765381 3.77648926 -0.01159668 C7.08249947 -0.01501209 10.38775458 0.00105504 13.69366455 0.0234375 C15.71708158 0.03124356 17.73980472 0.02346479 19.76318359 0.00976562 C23.65494956 -0.01494702 27.54569121 -0.0119508 31.4375 0 C32.64281372 -0.00809692 33.84812744 -0.01619385 35.08996582 -0.02453613 C43.39629164 0.06858611 43.39629164 0.06858611 47.45117188 2.34960938 C49.95792006 5.44357371 50.28815489 7.575171 50.21875 11.53125 C48.45233828 14.33314446 47.18825178 16.04649911 44.21875 17.53125 C42.39192206 17.64255469 40.56108634 17.69048203 38.73095703 17.70825195 C37.58281525 17.72108719 36.43467346 17.73392242 35.2517395 17.74714661 C34.00593109 17.75453354 32.76012268 17.76192047 31.4765625 17.76953125 C30.20150848 17.777603 28.92645447 17.78567474 27.61276245 17.79399109 C24.91091264 17.80784127 22.20918525 17.81885527 19.50732422 17.82641602 C16.04807083 17.83748384 12.58946014 17.87188832 9.13043404 17.91158772 C5.82920713 17.94402892 2.52792453 17.94853044 -0.7734375 17.95703125 C-2.01519745 17.97453934 -3.2569574 17.99204742 -4.53634644 18.01008606 C-6.26801559 18.00569771 -6.26801559 18.00569771 -8.03466797 18.0012207 C-9.05011688 18.00708694 -10.0655658 18.01295319 -11.11178589 18.01899719 C-14.49539165 17.40076666 -15.669041 16.18915241 -17.78125 13.53125 C-18.34765625 11.3125 -18.34765625 11.3125 -18.34375 9.03125 C-18.36566406 8.2784375 -18.38757813 7.525625 -18.41015625 6.75 C-16.07829331 -1.47669659 -6.80681436 -0.04572607 0 0 Z " fill="#285475" transform="translate(248.78125,272.46875)"/>
<path d="M0 0 C1.2684375 -0.00478363 2.536875 -0.00956726 3.84375 -0.01449585 C6.52430824 -0.01789684 9.20258142 -0.01121028 11.8828125 0.01220703 C15.30975855 0.04069708 18.73474681 0.02428549 22.16162109 -0.00565529 C25.44114993 -0.02811794 28.72044556 -0.01236811 32 0 C33.2271875 -0.01012115 34.454375 -0.02024231 35.71875 -0.03067017 C45.17723494 0.09956042 45.17723494 0.09956042 48.28515625 3.01416016 C50.37405226 6.24207549 50.56275696 7.88555149 50 11.6640625 C49.14498662 14.22910264 48.56185357 15.30951292 46.27232361 16.75428772 C43.51794629 17.85706332 41.35908354 17.93853576 38.39282227 17.97045898 C36.70570885 17.99444008 36.70570885 17.99444008 34.98451233 18.01890564 C33.77403732 18.02426834 32.56356232 18.02963104 31.31640625 18.03515625 C30.06874985 18.04418472 28.82109344 18.0532132 27.53562927 18.06251526 C24.89689697 18.07702348 22.25859782 18.08670101 19.61987305 18.08959961 C16.24575087 18.09498666 12.87282412 18.13268692 9.49903965 18.17834377 C6.27156639 18.21530836 3.04406276 18.21662962 -0.18359375 18.22265625 C-1.39204453 18.24218857 -2.6004953 18.26172089 -3.8455658 18.28184509 C-13.17075239 18.23159575 -13.17075239 18.23159575 -16.26196289 15.34790039 C-18.57500408 11.77615411 -18.74606231 9.84201141 -18 5.6640625 C-13.64642467 -1.08668793 -7.41904829 -0.06118815 0 0 Z " fill="#285475" transform="translate(334,272.3359375)"/>
<path d="M0 0 C1.2684375 -0.00478363 2.536875 -0.00956726 3.84375 -0.01449585 C6.52430824 -0.01789684 9.20258142 -0.01121028 11.8828125 0.01220703 C15.30975855 0.04069708 18.73474681 0.02428549 22.16162109 -0.00565529 C25.44114993 -0.02811794 28.72044556 -0.01236811 32 0 C33.2271875 -0.01012115 34.454375 -0.02024231 35.71875 -0.03067017 C45.17723494 0.09956042 45.17723494 0.09956042 48.28515625 3.01416016 C50.37405226 6.24207549 50.56275696 7.88555149 50 11.6640625 C49.14498662 14.22910264 48.56185357 15.30951292 46.27232361 16.75428772 C43.51794629 17.85706332 41.35908354 17.93853576 38.39282227 17.97045898 C36.70570885 17.99444008 36.70570885 17.99444008 34.98451233 18.01890564 C33.77403732 18.02426834 32.56356232 18.02963104 31.31640625 18.03515625 C30.06874985 18.04418472 28.82109344 18.0532132 27.53562927 18.06251526 C24.89689697 18.07702348 22.25859782 18.08670101 19.61987305 18.08959961 C16.24575087 18.09498666 12.87282412 18.13268692 9.49903965 18.17834377 C6.27156639 18.21530836 3.04406276 18.21662962 -0.18359375 18.22265625 C-1.39204453 18.24218857 -2.6004953 18.26172089 -3.8455658 18.28184509 C-13.17075239 18.23159575 -13.17075239 18.23159575 -16.26196289 15.34790039 C-18.57500408 11.77615411 -18.74606231 9.84201141 -18 5.6640625 C-13.64642467 -1.08668793 -7.41904829 -0.06118815 0 0 Z " fill="#285475" transform="translate(78,272.3359375)"/>
<path d="M0 0 C1.68734001 -0.02409439 1.68734001 -0.02409439 3.4087677 -0.04867554 C8.55553395 -0.09304366 13.70221105 -0.13462993 18.84912109 -0.15722656 C21.56626083 -0.17056102 24.28264865 -0.19840273 26.99951172 -0.23925781 C30.91070535 -0.29807059 34.82153356 -0.31588854 38.7331543 -0.33056641 C39.94787918 -0.35323578 41.16260406 -0.37590515 42.41413879 -0.39926147 C51.79648493 -0.37568847 51.79648493 -0.37568847 54.88623047 2.50683594 C57.19275931 6.08047773 57.36565833 8.01647351 56.61987305 12.19287109 C54.96001359 14.77208072 54.23459811 15.7680475 51.61987305 17.19287109 C47.27851696 17.94242168 42.98080175 17.86915038 38.5847168 17.82177734 C36.67850304 17.82539528 36.67850304 17.82539528 34.73377991 17.8290863 C32.04903184 17.8281073 29.36651631 17.81730251 26.68212891 17.78979492 C23.24631926 17.75567617 19.81200216 17.76174576 16.37612057 17.7804575 C13.09139923 17.79358049 9.80690587 17.77531102 6.5222168 17.75927734 C4.67369362 17.76671715 4.67369362 17.76671715 2.78782654 17.77430725 C1.07068199 17.75055275 1.07068199 17.75055275 -0.68115234 17.72631836 C-1.68755264 17.72011978 -2.69395294 17.7139212 -3.73085022 17.70753479 C-7.11227019 17.05064075 -8.28035091 15.87741106 -10.38012695 13.19287109 C-11.38012695 9.75537109 -11.38012695 9.75537109 -11.38012695 6.19287109 C-8.11113672 1.00757624 -5.91733677 0.07662993 0 0 Z " fill="#285474" transform="translate(156.380126953125,272.80712890625)"/>
<path d="M0 0 C16.16089466 0 16.16089466 0 21 4 C25.50964582 8.5320588 26.43733195 13.33420395 26.48828125 19.5625 C26.47341901 22.37691607 26.3970767 25.18694717 26.3125 28 C26.28737943 29.45699288 26.2645729 30.91402759 26.24414062 32.37109375 C26.19373022 35.9159536 26.0958704 39.45492581 26 43 C17.42 43 8.84 43 0 43 C0 28.81 0 14.62 0 0 Z " fill="#FACA55" transform="translate(119,128)"/>
<path d="M0 0 C0 14.19 0 28.38 0 43 C-8.25 43 -16.5 43 -25 43 C-25.1385544 38.58678583 -25.25769043 34.1812434 -25.32958984 29.76757812 C-25.35958169 28.26992094 -25.40039126 26.77243671 -25.45263672 25.27539062 C-25.96312766 10.26095121 -25.96312766 10.26095121 -20.54956055 4.36523438 C-13.7871816 -1.59273366 -10.14063225 0 0 0 Z " fill="#FACA55" transform="translate(68,128)"/>
<path d="M0 0 C1.38218719 -0.02409439 1.38218719 -0.02409439 2.79229736 -0.04867554 C7.01337971 -0.09314606 11.23430448 -0.13420037 15.45556641 -0.15722656 C17.68060778 -0.17377565 19.90559622 -0.20105164 22.13037109 -0.23925781 C25.33947312 -0.29408573 28.54732829 -0.31591126 31.75683594 -0.33056641 C32.74766174 -0.35323578 33.73848755 -0.37590515 34.75933838 -0.39926147 C39.25680913 -0.38553873 42.55314547 -0.32329526 46.18945312 2.50683594 C48.55371094 5.19287109 48.55371094 5.19287109 49.17871094 8.69287109 C48.41880634 12.94833686 47.82946445 14.34991664 44.55371094 17.19287109 C40.75858034 17.95066242 37.00625314 17.86904464 33.14746094 17.82177734 C31.47218323 17.82539528 31.47218323 17.82539528 29.76306152 17.8290863 C27.40271452 17.82810719 25.04234474 17.81469849 22.68212891 17.78979492 C19.06691567 17.75549637 15.4541471 17.76913194 11.83886719 17.78857422 C9.54588802 17.78167574 7.25291517 17.77200334 4.95996094 17.75927734 C3.33640686 17.76671715 3.33640686 17.76671715 1.68005371 17.77430725 C0.67220825 17.75847092 -0.33563721 17.74263458 -1.37402344 17.72631836 C-2.70161682 17.71702049 -2.70161682 17.71702049 -4.05603027 17.70753479 C-7.21042451 17.02833963 -8.42800421 15.65272305 -10.44628906 13.19287109 C-11.17400139 10.45324822 -11.02600483 7.9607297 -10.44628906 5.19287109 C-7.35668928 1.17639138 -4.93400627 0.07810495 0 0 Z " fill="#285576" transform="translate(130.4462890625,357.80712890625)"/>
<path d="M0 0 C1.53074158 -0.00717545 1.53074158 -0.00717545 3.09240723 -0.01449585 C5.24407498 -0.01788932 7.39579468 -0.00872576 9.54736328 0.01220703 C12.83353055 0.03897924 16.11628223 0.01243911 19.40234375 -0.01953125 C21.49740334 -0.01622706 23.59246082 -0.00982063 25.6875 0 C26.66577759 -0.01012115 27.64405518 -0.02024231 28.65197754 -0.03067017 C33.16465152 0.04654082 36.36290527 0.18366686 39.96435547 3.07446289 C42.34375 5.6640625 42.34375 5.6640625 43.0703125 7.76171875 C42.89902869 11.07540164 42.68292452 13.22823814 40.6217041 15.8768158 C37.91996793 17.9965552 36.66635276 18.17373363 33.27148438 18.19750977 C31.75971619 18.22126427 31.75971619 18.22126427 30.21740723 18.24549866 C28.59385315 18.23805885 28.59385315 18.23805885 26.9375 18.23046875 C25.26222229 18.23976662 25.26222229 18.23976662 23.55310059 18.24925232 C21.19279858 18.25635334 18.83244652 18.25317164 16.47216797 18.24047852 C12.85681214 18.2266126 9.24404343 18.26068338 5.62890625 18.29882812 C3.33593687 18.29977929 1.04296423 18.29792064 -1.25 18.29296875 C-2.33236938 18.30622696 -3.41473877 18.31948517 -4.52990723 18.33314514 C-11.99223444 18.24034701 -11.99223444 18.24034701 -15.33007812 15.34350586 C-17.11330397 11.74061492 -17.36478983 9.63188554 -16.65625 5.6640625 C-11.65864351 0.02581633 -7.2754291 -0.07527081 0 0 Z " fill="#285576" transform="translate(59.65625,357.3359375)"/>
<path d="M0 0 C6.18689016 1.25835054 9.5314262 4.95856146 13.3046875 9.84375 C17.83765688 17.32186897 18.0169243 26.27329617 16.6875 34.75 C15.50370514 38.23147544 13.95243834 40.87326798 11.6875 43.75 C11.0275 44.69875 10.3675 45.6475 9.6875 46.625 C7.42945463 49.0241732 5.73819966 50.47296293 2.6875 51.75 C-1.57130812 51.75 -3.55700523 51.42800813 -6.75 48.5625 C-8.59383554 45.24359602 -8.86966153 43.49094169 -8.3125 39.75 C-6.9375 37.375 -6.9375 37.375 -5.3125 35.75 C-4.6525 35.75 -3.9925 35.75 -3.3125 35.75 C-0.78210566 31.00551062 -0.24663992 25.9781604 -1.3125 20.75 C-2.93839596 18.21992748 -4.7671902 16.05230888 -6.734375 13.78125 C-8.3125 11.75 -8.3125 11.75 -9.0625 8.5 C-7.6792402 3.4280474 -5.08122108 1.15046515 0 0 Z " fill="#285575" transform="translate(392.3125,153.25)"/>
<path d="M0 0 C0.84671265 -0.00004028 1.69342529 -0.00008057 2.5657959 -0.00012207 C4.35106859 0.00522527 6.1363413 0.02277457 7.92138672 0.05175781 C10.64754495 0.09361634 13.37123074 0.09282365 16.09765625 0.0859375 C17.83595459 0.09643089 19.57424025 0.1093698 21.3125 0.125 C22.12408569 0.12520142 22.93567139 0.12540283 23.77185059 0.12561035 C28.36874649 0.2213134 31.43241709 0.61398173 35.15625 3.59375 C37.15625 6.59375 37.15625 6.59375 37.03125 10.03125 C36.03425387 14.09044853 35.52165495 15.18734286 32.15625 17.59375 C29.01295765 18.20081206 25.9125429 18.17804524 22.71875 18.16015625 C21.8016626 18.16635483 20.8845752 18.17255341 19.93969727 18.17893982 C18.00310324 18.18603542 16.06644818 18.1828685 14.12988281 18.17016602 C11.16617713 18.15629646 8.20562666 18.19037771 5.2421875 18.22851562 C3.35937423 18.2294668 1.476557 18.22760807 -0.40625 18.22265625 C-1.29175537 18.23591446 -2.17726074 18.24917267 -3.08959961 18.26283264 C-9.20917828 18.17016478 -9.20917828 18.17016478 -12.3984375 15.27319336 C-14.32235611 11.70646924 -14.48615206 9.59091834 -13.84375 5.59375 C-9.77237504 0.08636298 -6.37551752 -0.12879514 0 0 Z " fill="#285575" transform="translate(167.84375,306.40625)"/>
<path d="M0 0 C5.94 0 11.88 0 18 0 C18 14.19 18 28.38 18 43 C12.06 43 6.12 43 0 43 C0 28.81 0 14.62 0 0 Z " fill="#FAC954" transform="translate(85,128)"/>
<path d="M0 0 C8.25 0 16.5 0 25 0 C25 8.25 25 16.5 25 25 C12.04977376 25.48868778 12.04977376 25.48868778 7.375 23.3125 C3.10052888 19.15051496 0.09459775 16.03847979 -0.09765625 9.86328125 C-0.06510417 6.57552083 -0.03255208 3.28776042 0 0 Z " fill="#FACA55" transform="translate(43,188)"/>
<path d="M0 0 C3.22744171 1.27413786 3.88040093 2.06996599 6 5 C6.6875 8.5 6.6875 8.5 6 12 C3.20890204 15.67334157 1.75935044 16.87588282 -2.84765625 17.62890625 C-4.25277298 17.63285691 -5.65818507 17.61012571 -7.0625 17.5625 C-7.76955078 17.57345703 -8.47660156 17.58441406 -9.20507812 17.59570312 C-12.63278228 17.5474256 -14.66474033 17.24372846 -17.4609375 15.2109375 C-19.35109416 12.4956363 -19.64536917 10.26074337 -19.41796875 6.97265625 C-19 5 -19 5 -17.375 2 C-11.86074616 -1.26770598 -6.23332914 -0.89672454 0 0 Z " fill="#285576" transform="translate(284,307)"/>
<path d="M0 0 C4.65173675 2.30347349 4.65173675 2.30347349 6 5 C6.55988858 10.78551532 6.55988858 10.78551532 6 13 C3.20880855 16.0193687 1.48998545 16.92277403 -2.59375 17.56640625 C-3.8828125 17.56511719 -5.171875 17.56382812 -6.5 17.5625 C-7.7890625 17.58441406 -9.078125 17.60632813 -10.40625 17.62890625 C-14.8309081 16.85459108 -16.28448773 15.51328988 -19 12 C-19.6875 8.5 -19.6875 8.5 -19 5 C-14.23650436 -1.39669414 -7.4919443 -1.12519814 0 0 Z " fill="#285576" transform="translate(241,307)"/>
</svg>
