<?xml version="1.0" encoding="UTF-8"?>
<svg version="1.1" xmlns="http://www.w3.org/2000/svg" width="512" height="512">
<path d="M0 0 C1.32268101 -0.00551503 1.32268101 -0.00551503 2.67208284 -0.01114148 C5.63282978 -0.02217228 8.59354162 -0.02602117 11.55430603 -0.02983093 C13.67495332 -0.03609611 15.79559952 -0.04274296 17.91624451 -0.04974365 C24.88665503 -0.07078256 31.85706576 -0.0811469 38.82749939 -0.09111023 C41.22817433 -0.09515806 43.62884915 -0.09927499 46.02952385 -0.10346031 C57.30999606 -0.12251277 68.59046173 -0.13674286 79.87094694 -0.14507228 C92.88516032 -0.15484082 105.89920344 -0.18115027 118.91335684 -0.22157317 C128.9763726 -0.25175501 139.03933963 -0.26654319 149.10239977 -0.26985329 C155.11052945 -0.27220169 161.11847725 -0.28113492 167.1265583 -0.30631447 C172.78270033 -0.32963573 178.43854125 -0.33381195 184.09471893 -0.32355309 C186.16547333 -0.32305858 188.23624275 -0.32935369 190.30695152 -0.34310913 C210.32061695 -0.46856842 210.32061695 -0.46856842 219.35484314 4.14717102 C220.34999939 4.62799133 221.34515564 5.10881165 222.37046814 5.60420227 C234.43297347 12.92184099 241.73462887 22.78006498 245.71955299 36.39696884 C246.73608294 40.79757678 246.74882515 45.0556269 246.69541931 49.5539093 C246.69585739 50.54048019 246.69629547 51.52705109 246.69674683 52.54351807 C246.69467537 55.76838244 246.67142231 58.99271123 246.64781189 62.21748352 C246.64221009 64.46763322 246.63794275 66.7177866 246.63494873 68.96794128 C246.62354599 74.86325855 246.59411833 80.75835078 246.56083679 86.65357971 C246.53003707 92.68005836 246.51642229 98.7065737 246.50132751 104.73310852 C246.46924411 116.53789438 246.41810338 128.34251392 246.35484314 140.14717102 C247.34484314 140.14717102 248.33484314 140.14717102 249.35484314 140.14717102 C250.73432286 142.90613047 250.39253734 145.2552084 250.41734314 148.33467102 C250.69493544 153.18188748 250.69493544 153.18188748 253.02281189 157.27998352 C254.41509909 158.4032171 255.83678393 159.49091837 257.28453064 160.54170227 C262.67539652 164.72216619 264.77145214 170.71301606 266.35484314 177.14717102 C266.51363165 179.82147685 266.59031723 182.3816686 266.55015564 185.04951477 C266.5459108 186.13336205 266.5459108 186.13336205 266.5415802 187.23910522 C266.530487 189.52113718 266.50540402 191.80275999 266.47984314 194.08467102 C266.46979925 195.64260801 266.46067588 197.20055123 266.45249939 198.75849915 C266.43058347 202.55487801 266.39613052 206.35095542 266.35484314 210.14717102 C266.99921326 210.13669739 267.64358337 210.12622375 268.30747986 210.11543274 C271.28155983 210.07336428 274.25557686 210.04768556 277.22984314 210.02217102 C278.24304626 210.00541321 279.25624939 209.9886554 280.30015564 209.97138977 C291.54802421 209.89928805 300.76793734 211.09907142 309.26499939 218.90107727 C317.30169531 227.34728636 318.95737594 236.3477516 318.74546814 247.71748352 C318.73980835 248.87972443 318.73414856 250.04196533 318.72831726 251.23942566 C318.70609434 254.91744314 318.65592256 258.59445264 318.60484314 262.27217102 C318.58476002 264.77996936 318.56651245 267.28778311 318.55015564 269.79560852 C318.50627576 275.91313449 318.43950543 282.03008071 318.35484314 288.14717102 C319.24687439 288.11236633 320.13890564 288.07756165 321.05796814 288.04170227 C322.22843689 288.01463196 323.39890564 287.98756165 324.60484314 287.95967102 C325.76499939 287.92486633 326.92515564 287.89006165 328.12046814 287.85420227 C331.35484314 288.14717102 331.35484314 288.14717102 333.74571228 289.1139679 C336.31496807 292.36032842 335.9046896 295.90320651 335.85093689 299.86592102 C335.85239212 300.72020691 335.85384735 301.5744928 335.85534668 302.45466614 C335.85368722 304.26024283 335.84212057 306.0658336 335.82139587 307.87129211 C335.79244918 310.63703921 335.80078345 313.40086902 335.81382751 316.16670227 C335.80758985 317.92061785 335.79919869 319.67452737 335.78843689 321.42842102 C335.79284035 322.67069458 335.79284035 322.67069458 335.79733276 323.93806458 C335.70266873 329.69141319 335.70266873 329.69141319 334.03930664 331.8709259 C331.27782078 333.96318427 328.54330803 333.42758749 325.16734314 333.33467102 C323.89503845 333.30760071 322.62273376 333.2805304 321.31187439 333.25263977 C319.84814392 333.20043274 319.84814392 333.20043274 318.35484314 333.14717102 C318.36372559 333.78673233 318.37260803 334.42629364 318.38175964 335.0852356 C318.47075525 341.78572079 318.5307928 348.48603609 318.5745697 355.18696594 C318.59459452 357.68247811 318.62182255 360.1779439 318.65660095 362.67329407 C318.70552084 366.27538043 318.72790427 369.87684248 318.74546814 373.47920227 C318.76611328 374.58173843 318.78675842 375.6842746 318.80802917 376.82022095 C318.81076916 386.43587704 316.86503124 395.49698604 310.05406189 402.65107727 C301.60294937 410.09194185 293.3286652 411.45631632 282.38999939 411.34248352 C281.35668991 411.33965363 280.32338043 411.33682373 279.25875854 411.33390808 C275.97816592 411.32276749 272.69785241 411.29767406 269.41734314 411.27217102 C267.18492522 411.26213332 264.952503 411.25300885 262.72007751 411.24482727 C257.26490514 411.22284823 251.80989409 411.18943187 246.35484314 411.14717102 C246.36372559 411.8972644 246.37260803 412.64735779 246.38175964 413.42018127 C246.46238766 420.5390026 246.52304986 427.65766194 246.56209183 434.77681351 C246.58283961 438.43562274 246.61091746 442.09405018 246.65660095 445.75263977 C246.70052322 449.29291711 246.72407615 452.8328306 246.73435211 456.37335968 C246.74518368 458.36060604 246.77633304 460.34770896 246.80802917 462.33473206 C246.81140249 476.18398629 242.65035539 488.63293785 233.10484314 498.89717102 C228.9940285 502.72852238 224.40721513 505.70606383 219.35484314 508.14717102 C218.70697814 508.47687141 218.05911314 508.80657181 217.39161587 509.14626312 C207.72734129 513.38820152 197.71719335 512.7092587 187.37657166 512.66474915 C185.25651063 512.67017598 183.13645337 512.67730178 181.0164032 512.68598938 C175.28286583 512.70415984 169.54961772 512.69718077 163.81607556 512.68447304 C157.80123471 512.67431151 151.78641781 512.68374758 145.77157593 512.6900177 C135.67160112 512.69728548 125.57174349 512.68772975 115.4717865 512.6686554 C103.81500812 512.64689433 92.15850971 512.65393613 80.50173813 512.67596102 C70.47336203 512.69414678 60.44506993 512.69665762 50.41668266 512.68620634 C44.4360422 512.67998814 38.45553308 512.67908957 32.4749012 512.69235229 C26.8498088 512.70395618 21.22507524 512.69580218 15.60002136 512.67277527 C13.54259777 512.66751214 11.48514369 512.66896059 9.42773247 512.67782593 C-5.59700713 512.73656952 -17.28676495 511.46074174 -29.64515686 502.14717102 C-30.51140686 501.56967102 -31.37765686 500.99217102 -32.27015686 500.39717102 C-41.0050535 492.12200579 -47.26672498 479.93478405 -47.73488247 467.82654309 C-47.77136507 464.94234454 -47.77354422 462.05982192 -47.76541138 459.17539978 C-47.76669301 457.51387125 -47.76669301 457.51387125 -47.76800054 455.81877649 C-47.76964801 452.10612203 -47.76414591 448.39351273 -47.75868225 444.68086243 C-47.7584002 442.01991168 -47.75851444 439.35896371 -47.75912476 436.69801331 C-47.75964869 430.96863462 -47.75651553 425.23926733 -47.75088692 419.50989151 C-47.74275422 411.22621258 -47.74015488 402.94253916 -47.73889893 394.65885668 C-47.73671119 381.21859766 -47.73005864 367.77834471 -47.72059631 354.33808899 C-47.711415 341.2834018 -47.70433768 328.22871626 -47.7000885 315.17402649 C-47.69982578 314.36911402 -47.69956305 313.56420156 -47.69929237 312.73489781 C-47.69798732 308.69682239 -47.69672361 304.65874695 -47.69548047 300.62067151 C-47.68511652 267.12950028 -47.66750577 233.63833639 -47.64515686 200.14717102 C-48.63515686 199.81717102 -49.62515686 199.48717102 -50.64515686 199.14717102 C-50.71955816 194.82388298 -50.77387654 190.50093847 -50.80995178 186.17720032 C-50.82499752 184.7077332 -50.84543924 183.23831068 -50.87147522 181.76899719 C-50.90804641 179.65145332 -50.92492487 177.53450537 -50.93812561 175.41670227 C-50.95383606 174.14415588 -50.96954651 172.8716095 -50.98573303 171.5605011 C-50.62428863 167.93802501 -49.75886883 166.06541004 -47.64515686 163.14717102 C-48.63515686 162.81717102 -49.62515686 162.48717102 -50.64515686 162.14717102 C-50.64515686 151.91717102 -50.64515686 141.68717102 -50.64515686 131.14717102 C-49.65515686 130.81717102 -48.66515686 130.48717102 -47.64515686 130.14717102 C-47.6518187 129.07134766 -47.65848053 127.99552429 -47.66534424 126.88710022 C-47.72637881 116.70729878 -47.77123627 106.52753487 -47.80059338 96.3475914 C-47.81619394 91.11501642 -47.83732889 85.88259014 -47.87147522 80.65010071 C-47.90426979 75.59262395 -47.92205197 70.53528949 -47.92978859 65.47771454 C-47.93529623 63.55617791 -47.94605049 61.63464833 -47.96234703 59.71317291 C-48.09900174 42.92011042 -46.16766165 30.10853515 -36.45765686 15.95967102 C-26.0701171 5.57213126 -14.62315783 -0.00326712 0 0 Z " fill="#FE9522" transform="translate(113.64515686035156,-0.1471710205078125)"/>
<path d="M0 0 C0.85647131 -0.00538554 1.71294262 -0.01077108 2.59536761 -0.01631981 C5.45253567 -0.03057642 8.30923893 -0.0235013 11.16642761 -0.01637268 C13.22017793 -0.02207752 15.27392508 -0.02904222 17.32766724 -0.03717041 C22.8980402 -0.05510626 28.46825568 -0.05393235 34.03864884 -0.04822803 C38.69308883 -0.04513619 43.34749855 -0.05122873 48.00193423 -0.05726677 C58.98582744 -0.07131238 69.96964287 -0.06975095 80.95353699 -0.05836487 C92.2739875 -0.046889 103.59420095 -0.06095043 114.91462022 -0.08776134 C124.64309187 -0.10993682 134.37148922 -0.11655138 144.09998435 -0.11068493 C149.90625063 -0.10731795 155.71236504 -0.10971316 161.51861 -0.12693596 C166.98111841 -0.14243188 172.44327655 -0.13841993 177.90577126 -0.11963081 C179.90598485 -0.115952 181.90622453 -0.11903266 183.90641403 -0.1295166 C206.4187212 -0.23846756 206.4187212 -0.23846756 215.12809753 7.70018005 C220.32526014 13.41215594 223.38233749 19.20739778 223.37335205 27.00675964 C223.37541405 28.39072182 223.37541405 28.39072182 223.3775177 29.80264282 C223.37392242 30.80749222 223.37032715 31.81234161 223.36662292 32.84764099 C223.36676895 33.91136429 223.36691498 34.97508759 223.36706543 36.07104492 C223.3663686 39.58806902 223.35858687 43.1050402 223.35075378 46.62205505 C223.34888879 49.06014477 223.34746527 51.49823485 223.34646606 53.93632507 C223.3426473 60.35442641 223.33282244 66.77250513 223.32176208 73.19059753 C223.31153423 79.73936151 223.30696549 86.28812914 223.30192566 92.8368988 C223.29119963 105.68716916 223.27413085 118.53742273 223.25309753 131.38768005 C219.29309753 131.38768005 215.33309753 131.38768005 211.25309753 131.38768005 C210.89502462 129.7275238 210.5369517 128.06736755 210.17887878 126.4072113 C207.47624555 120.51159365 201.48254815 117.46925868 196.12809753 114.32518005 C194.50620077 113.35386342 192.8851329 112.38116161 191.26481628 111.4072113 C190.43385437 110.90914978 189.60289246 110.41108826 188.74674988 109.89793396 C184.77536306 107.49270595 180.85954629 105.00207 176.94059753 102.51268005 C176.16579041 102.02565613 175.39098328 101.5386322 174.59269714 101.03684998 C170.27307677 98.32046057 165.99080275 95.5584485 161.73747253 92.73924255 C159.88867134 91.53847975 158.03971644 90.33795355 156.19059753 89.13768005 C155.3465033 88.56420837 154.50240906 87.99073669 153.63273621 87.39988708 C148.652702 84.20288868 144.50991815 82.34751868 138.50065613 82.76487732 C134.25624645 83.94101126 132.52738012 86.79584993 130.25309753 90.38768005 C129.6970282 91.22508728 129.14095886 92.06249451 128.56803894 92.92527771 C126.68571905 95.82221768 124.87712021 98.75852885 123.06559753 101.70018005 C122.3860199 102.75020203 121.70644226 103.800224 121.00627136 104.88206482 C117.38541733 110.54166285 114.40516528 115.72026566 112.701828 122.24949646 C110.65800128 126.42339733 107.98450405 129.60542173 104.25309753 132.38768005 C101.00592008 133.47506455 97.95326927 133.57882122 94.54606628 133.60643005 C93.63354095 133.64313309 92.72101563 133.67983612 91.78083801 133.71765137 C84.3252252 133.96375611 76.8408195 133.80719448 69.39511108 133.35447693 C61.59554928 132.99149558 54.46991058 134.59381585 48.50309753 139.88768005 C47.80700378 140.47549255 47.11091003 141.06330505 46.39372253 141.66893005 C38.09692355 152.20647037 38.53538856 163.04264243 38.60612488 175.81517029 C38.59934088 177.87612173 38.59043337 179.9370671 38.57957458 181.9980011 C38.55686656 187.57044426 38.56558297 193.14242225 38.58147001 198.71487308 C38.59417475 204.56155525 38.58237606 210.40819898 38.57453918 216.25488281 C38.56545523 226.07241425 38.57739697 235.88975732 38.60124207 245.70726013 C38.62844318 257.03690714 38.61964124 268.36610408 38.59211004 279.69574016 C38.56937527 289.44387855 38.56624049 299.19188192 38.57930338 308.94003826 C38.58707483 314.75303299 38.58820319 320.5658166 38.57162094 326.37879753 C38.55711218 331.84638137 38.56731492 337.31338854 38.59609222 342.78091049 C38.60266918 344.78027835 38.60086389 346.77969525 38.5897789 348.7790432 C38.52474413 361.7070637 38.7526006 373.11481589 48.37809753 382.88768005 C57.30979329 390.81151909 68.81181483 390.97556809 80.09757996 390.93357849 C81.66569537 390.94232986 83.23380187 390.95282105 84.80189514 390.96490479 C89.02638771 390.99259423 93.25058645 390.99617327 97.47515655 390.9951849 C101.90212325 390.99832878 106.32896046 391.02397748 110.75585938 391.04716492 C119.12428447 391.08761601 127.49263185 391.10803993 135.8611396 391.12113881 C145.39453545 391.13704588 154.92779977 391.17547701 164.46111906 391.2157321 C184.05840174 391.29798187 203.65567805 391.35216706 223.25309753 391.38768005 C223.34618764 398.92475984 223.41705889 406.46177926 223.46034622 413.99930477 C223.48113273 417.50014638 223.50928353 421.00059179 223.55485535 424.50120544 C223.60703381 428.53501472 223.62611639 432.56841433 223.64372253 436.6025238 C223.66436768 437.84662521 223.68501282 439.09072662 223.70628357 440.37252808 C223.70896775 450.86090058 221.2669927 457.96230372 214.12028503 465.66111755 C207.70017521 471.59770446 201.32045248 472.53631142 192.86695862 472.5415802 C192.01305058 472.54596245 191.15914254 472.55034471 190.27935851 472.55485976 C187.41301797 472.56823292 184.54670816 472.57442331 181.68034363 472.58055115 C179.62703818 472.58845331 177.57373412 472.59672233 175.52043152 472.60533142 C168.77247949 472.63153932 162.0245213 472.64685831 155.27653503 472.66111755 C152.95260743 472.66647783 150.62867987 472.67185534 148.30475235 472.67724991 C138.63680496 472.69887723 128.96885924 472.71761338 119.30089378 472.7288723 C105.45100724 472.745108 91.60140138 472.77827858 77.75162065 472.83527315 C68.01048764 472.8739914 58.26942966 472.89350727 48.52822173 472.89879286 C42.71178048 472.90244382 36.89563871 472.91443842 31.07928085 472.9468956 C25.60448356 472.97700889 20.13016644 472.98327618 14.65530396 472.97151184 C12.65023634 472.97129138 10.64514624 472.97957363 8.64015579 472.99716568 C-3.22234074 473.09555036 -12.03083193 472.90978249 -21.55940247 465.07518005 C-26.75003634 458.69811558 -29.86979473 453.69714507 -29.88112354 445.41722679 C-29.88347577 444.68793844 -29.885828 443.95865009 -29.88825151 443.2072621 C-29.89496289 440.73836454 -29.89448265 438.26951934 -29.89407349 435.8006134 C-29.89737079 434.02267426 -29.90109607 432.24473586 -29.90521497 430.46679842 C-29.91525842 425.56128102 -29.91895553 420.65577586 -29.92160428 415.75024962 C-29.92550044 410.46718685 -29.93507929 405.18413383 -29.94381714 399.90107727 C-29.96360188 387.1320182 -29.97365067 374.36295832 -29.98254493 361.59388775 C-29.98692486 355.58486023 -29.99229246 349.57583361 -29.9975338 343.56680679 C-30.01454869 323.59803894 -30.02904338 303.62927165 -30.03628254 283.66049767 C-30.03819253 278.47564569 -30.04011284 273.29079373 -30.04206848 268.10594177 C-30.04255222 266.81722568 -30.04303596 265.52850958 -30.04353436 264.20074148 C-30.05183654 243.31936529 -30.07717548 222.43804634 -30.10964916 201.55669515 C-30.14269757 180.13155693 -30.16072933 158.70644782 -30.16392678 137.28128397 C-30.16609402 125.24649611 -30.17487385 113.21179172 -30.20038795 101.17702866 C-30.22206471 90.92842959 -30.2301603 80.67993426 -30.22042117 70.43131487 C-30.2158676 65.20099058 -30.21782407 59.97088043 -30.23718262 54.74058533 C-30.2547517 49.95246305 -30.25386748 45.16471215 -30.23828533 40.37658627 C-30.23589972 38.6443438 -30.24028198 36.91207603 -30.25211398 35.17987232 C-30.31659018 25.11728441 -30.3362278 17.56538043 -23.30940247 9.63768005 C-22.04096497 8.52393005 -22.04096497 8.52393005 -20.74690247 7.38768005 C-19.96315247 6.68643005 -19.17940247 5.98518005 -18.37190247 5.26268005 C-12.31230724 0.93439775 -7.26125036 -0.0552489 0 0 Z " fill="#E5E9FE" transform="translate(116.74690246582031,19.612319946289063)"/>
<path d="M0 0 C1.32268101 -0.00551503 1.32268101 -0.00551503 2.67208284 -0.01114148 C5.63282978 -0.02217228 8.59354162 -0.02602117 11.55430603 -0.02983093 C13.67495332 -0.03609611 15.79559952 -0.04274296 17.91624451 -0.04974365 C24.88665503 -0.07078256 31.85706576 -0.0811469 38.82749939 -0.09111023 C41.22817433 -0.09515806 43.62884915 -0.09927499 46.02952385 -0.10346031 C57.30999606 -0.12251277 68.59046173 -0.13674286 79.87094694 -0.14507228 C92.88516032 -0.15484082 105.89920344 -0.18115027 118.91335684 -0.22157317 C128.9763726 -0.25175501 139.03933963 -0.26654319 149.10239977 -0.26985329 C155.11052945 -0.27220169 161.11847725 -0.28113492 167.1265583 -0.30631447 C172.78270033 -0.32963573 178.43854125 -0.33381195 184.09471893 -0.32355309 C186.16547333 -0.32305858 188.23624275 -0.32935369 190.30695152 -0.34310913 C210.32061695 -0.46856842 210.32061695 -0.46856842 219.35484314 4.14717102 C220.34999939 4.62799133 221.34515564 5.10881165 222.37046814 5.60420227 C234.43297347 12.92184099 241.73462887 22.78006498 245.71955299 36.39696884 C246.73608294 40.79757678 246.74882515 45.0556269 246.69541931 49.5539093 C246.69585739 50.54048019 246.69629547 51.52705109 246.69674683 52.54351807 C246.69467537 55.76838244 246.67142231 58.99271123 246.64781189 62.21748352 C246.64221009 64.46763322 246.63794275 66.7177866 246.63494873 68.96794128 C246.62354599 74.86325855 246.59411833 80.75835078 246.56083679 86.65357971 C246.53003707 92.68005836 246.51642229 98.7065737 246.50132751 104.73310852 C246.46924411 116.53789438 246.41810338 128.34251392 246.35484314 140.14717102 C247.34484314 140.14717102 248.33484314 140.14717102 249.35484314 140.14717102 C250.79692255 143.03132985 250.44879201 145.56438631 250.41734314 148.77217102 C250.4083197 149.96068665 250.39929626 151.14920227 250.38999939 152.37373352 C250.37259705 153.74658508 250.37259705 153.74658508 250.35484314 155.14717102 C249.38997986 154.83972961 249.38997986 154.83972961 248.40562439 154.52607727 C243.06619343 152.93414992 238.02973046 151.9165334 232.46031189 151.54951477 C231.31070984 151.47080139 230.16110779 151.39208801 228.97666931 151.31098938 C228.11146667 151.25692932 227.24626404 151.20286926 226.35484314 151.14717102 C226.35245479 150.59278854 226.35006643 150.03840607 226.34760571 149.46722412 C226.28836855 135.95341332 226.21257606 122.43978173 226.11912823 108.92616272 C226.07443375 102.39095802 226.0351753 95.85581553 226.00840759 89.32051086 C225.98236585 83.01155384 225.94195654 76.70283633 225.89165688 70.39402771 C225.8749942 67.98917117 225.86347621 65.58427321 225.85722923 63.17936707 C225.84758199 59.8064015 225.81951376 56.43404789 225.78721619 53.06123352 C225.78936882 51.57553108 225.78936882 51.57553108 225.79156494 50.05981445 C225.68388499 42.08877372 224.19158289 35.57417182 218.79234314 29.39717102 C217.89322205 28.3220929 217.89322205 28.3220929 216.97593689 27.22529602 C207.26103817 19.52287259 195.84829375 20.5712159 184.10093689 20.61372375 C182.04674156 20.60665882 179.99255143 20.59791139 177.93836975 20.58761597 C172.38053065 20.56517852 166.82297707 20.56804832 161.26511002 20.57693744 C156.61796747 20.58205905 151.97087803 20.57474535 147.32374096 20.56746536 C136.35847489 20.55048474 125.39334806 20.5540143 114.42808533 20.570755 C103.12967231 20.58768162 91.83164551 20.57182995 80.53327465 20.53953212 C70.8174692 20.51281428 61.10178381 20.50556598 51.38594532 20.51404721 C45.58975461 20.51896909 39.7937963 20.5168003 33.99763489 20.49625969 C28.54732494 20.4778678 23.09756965 20.48390456 17.64728928 20.50845909 C15.65191294 20.51345545 13.65649408 20.51000788 11.66115189 20.49731064 C-2.72199621 20.32777379 -2.72199621 20.32777379 -15.64515686 26.14717102 C-16.34607956 26.44799811 -17.04700226 26.74882521 -17.76916504 27.05876827 C-20.13521015 28.43148748 -20.48366293 29.706253 -21.64515686 32.14717102 C-22.68110945 33.71564458 -22.68110945 33.71564458 -23.73799038 35.31580448 C-27.07804788 42.08031397 -26.19814202 50.08281924 -26.15982056 57.44903564 C-26.16514794 59.23144546 -26.17221474 61.01385077 -26.18086761 62.79624754 C-26.19949632 67.68637381 -26.19318913 72.57619728 -26.18271458 77.46633613 C-26.17572327 82.7431991 -26.19172 88.01999982 -26.20471191 93.29684448 C-26.2263582 103.63138545 -26.22622339 113.96581634 -26.21808637 124.30037253 C-26.2117875 132.69971558 -26.21292237 141.09902651 -26.21935844 149.49836922 C-26.2202601 150.69364285 -26.22116175 151.88891648 -26.22209073 153.12041052 C-26.22394193 155.54857068 -26.22580449 157.97673082 -26.22767829 160.40489096 C-26.24425894 183.17686184 -26.23553527 205.94877078 -26.21869271 228.72073794 C-26.20399542 249.55581828 -26.21862415 270.39075442 -26.24746288 291.22581618 C-26.27685283 312.61839341 -26.28783032 334.01090408 -26.27828068 355.40350062 C-26.27725812 357.82305275 -26.27626351 360.2426049 -26.27529716 362.66215706 C-26.27458258 364.44786105 -26.27458258 364.44786105 -26.27385356 366.26963986 C-26.27168891 374.6582802 -26.28149624 383.04685756 -26.29606819 391.43548393 C-26.31358049 401.65942434 -26.31348989 411.88318087 -26.29071654 422.10711401 C-26.27956447 427.32345859 -26.27643393 432.5394791 -26.29501724 437.75580978 C-26.31181403 442.53211849 -26.30548163 447.30782025 -26.28080045 452.08408958 C-26.27591417 453.81077981 -26.27944104 455.53751891 -26.29228789 457.26416826 C-26.35546671 466.41694809 -26.11593893 473.43223365 -20.64515686 481.14717102 C-20.31515686 482.13717102 -19.98515686 483.12717102 -19.64515686 484.14717102 C-17.80163581 485.22819027 -17.80163581 485.22819027 -15.64515686 486.14717102 C-15.02935257 486.56523986 -14.41354828 486.9833087 -13.77908325 487.41404629 C-5.04399516 492.85242272 4.69510436 491.84135944 14.60874939 491.77827454 C16.66294471 491.78341818 18.71713561 491.79070281 20.77131653 491.79995728 C26.32923707 491.81842256 31.88667596 491.80556323 37.44457626 491.78586698 C43.27217384 491.76943902 49.0997419 491.77829914 54.92735291 491.78338623 C64.71218019 491.78790254 74.49681602 491.7720659 84.28160095 491.74409485 C95.57997808 491.7120452 106.87800999 491.71206031 118.17641163 491.72930962 C129.06339644 491.74519582 139.95025517 491.73842763 150.8372345 491.7213726 C155.46220778 491.71451582 160.08707959 491.71552049 164.71205139 491.72291756 C170.1623191 491.73060165 175.61219586 491.71838471 181.062397 491.69106865 C183.05776433 491.68420604 185.05316833 491.68406394 187.04853439 491.69128418 C202.97879648 491.95422987 202.97879648 491.95422987 216.97593689 485.06904602 C217.57535095 484.35232727 218.17476501 483.63560852 218.79234314 482.89717102 C219.40980408 482.19076477 220.02726501 481.48435852 220.66343689 480.75654602 C225.74275912 472.92054775 225.81999054 465.5646084 225.86656189 456.45967102 C225.88451309 455.16142395 225.90246429 453.86317688 225.92095947 452.52558899 C225.96816913 449.09967522 225.99816488 445.67382594 226.0243988 442.24769592 C226.05435233 438.74140184 226.10083118 435.23532943 226.14585876 431.72920227 C226.23156067 424.86863732 226.29752151 418.00803125 226.35484314 411.14717102 C232.95484314 411.14717102 239.55484314 411.14717102 246.35484314 411.14717102 C246.44573142 419.02368909 246.51889431 426.89991309 246.56209183 434.77681351 C246.58283961 438.43562274 246.61091746 442.09405018 246.65660095 445.75263977 C246.70052322 449.29291711 246.72407615 452.8328306 246.73435211 456.37335968 C246.74518368 458.36060604 246.77633304 460.34770896 246.80802917 462.33473206 C246.81140249 476.18398629 242.65035539 488.63293785 233.10484314 498.89717102 C228.9940285 502.72852238 224.40721513 505.70606383 219.35484314 508.14717102 C218.70697814 508.47687141 218.05911314 508.80657181 217.39161587 509.14626312 C207.72734129 513.38820152 197.71719335 512.7092587 187.37657166 512.66474915 C185.25651063 512.67017598 183.13645337 512.67730178 181.0164032 512.68598938 C175.28286583 512.70415984 169.54961772 512.69718077 163.81607556 512.68447304 C157.80123471 512.67431151 151.78641781 512.68374758 145.77157593 512.6900177 C135.67160112 512.69728548 125.57174349 512.68772975 115.4717865 512.6686554 C103.81500812 512.64689433 92.15850971 512.65393613 80.50173813 512.67596102 C70.47336203 512.69414678 60.44506993 512.69665762 50.41668266 512.68620634 C44.4360422 512.67998814 38.45553308 512.67908957 32.4749012 512.69235229 C26.8498088 512.70395618 21.22507524 512.69580218 15.60002136 512.67277527 C13.54259777 512.66751214 11.48514369 512.66896059 9.42773247 512.67782593 C-5.59700713 512.73656952 -17.28676495 511.46074174 -29.64515686 502.14717102 C-30.51140686 501.56967102 -31.37765686 500.99217102 -32.27015686 500.39717102 C-41.0050535 492.12200579 -47.26672498 479.93478405 -47.73488247 467.82654309 C-47.77136507 464.94234454 -47.77354422 462.05982192 -47.76541138 459.17539978 C-47.76669301 457.51387125 -47.76669301 457.51387125 -47.76800054 455.81877649 C-47.76964801 452.10612203 -47.76414591 448.39351273 -47.75868225 444.68086243 C-47.7584002 442.01991168 -47.75851444 439.35896371 -47.75912476 436.69801331 C-47.75964869 430.96863462 -47.75651553 425.23926733 -47.75088692 419.50989151 C-47.74275422 411.22621258 -47.74015488 402.94253916 -47.73889893 394.65885668 C-47.73671119 381.21859766 -47.73005864 367.77834471 -47.72059631 354.33808899 C-47.711415 341.2834018 -47.70433768 328.22871626 -47.7000885 315.17402649 C-47.69982578 314.36911402 -47.69956305 313.56420156 -47.69929237 312.73489781 C-47.69798732 308.69682239 -47.69672361 304.65874695 -47.69548047 300.62067151 C-47.68511652 267.12950028 -47.66750577 233.63833639 -47.64515686 200.14717102 C-48.63515686 199.81717102 -49.62515686 199.48717102 -50.64515686 199.14717102 C-50.71955816 194.82388298 -50.77387654 190.50093847 -50.80995178 186.17720032 C-50.82499752 184.7077332 -50.84543924 183.23831068 -50.87147522 181.76899719 C-50.90804641 179.65145332 -50.92492487 177.53450537 -50.93812561 175.41670227 C-50.95383606 174.14415588 -50.96954651 172.8716095 -50.98573303 171.5605011 C-50.62428863 167.93802501 -49.75886883 166.06541004 -47.64515686 163.14717102 C-48.63515686 162.81717102 -49.62515686 162.48717102 -50.64515686 162.14717102 C-50.64515686 151.91717102 -50.64515686 141.68717102 -50.64515686 131.14717102 C-49.65515686 130.81717102 -48.66515686 130.48717102 -47.64515686 130.14717102 C-47.6518187 129.07134766 -47.65848053 127.99552429 -47.66534424 126.88710022 C-47.72637881 116.70729878 -47.77123627 106.52753487 -47.80059338 96.3475914 C-47.81619394 91.11501642 -47.83732889 85.88259014 -47.87147522 80.65010071 C-47.90426979 75.59262395 -47.92205197 70.53528949 -47.92978859 65.47771454 C-47.93529623 63.55617791 -47.94605049 61.63464833 -47.96234703 59.71317291 C-48.09900174 42.92011042 -46.16766165 30.10853515 -36.45765686 15.95967102 C-26.0701171 5.57213126 -14.62315783 -0.00326712 0 0 Z " fill="#545494" transform="translate(113.64515686035156,-0.1471710205078125)"/>
<path d="M0 0 C5.69096578 1.24378648 10.26153305 4.56267481 15.06054688 7.73925781 C16.20016083 8.47059279 17.34113528 9.19981169 18.48339844 9.92700195 C20.8099955 11.4129489 23.12804223 12.91095271 25.43945312 14.42041016 C29.52579956 17.08684761 33.65290848 19.68770309 37.77905273 22.29199219 C40.49531527 24.01048779 43.20303391 25.74164463 45.90820312 27.47753906 C48.9873958 29.45312993 52.07617921 31.41070506 55.18164062 33.34472656 C55.83487305 33.754729 56.48810547 34.16473145 57.16113281 34.5871582 C58.84751811 35.64484723 60.53782981 36.69626922 62.22851562 37.74707031 C65.41807237 40.0535879 67.48742541 41.84342546 68.20898438 45.79785156 C68.15766262 50.73329328 67.57356288 53.40966824 64.81054688 57.61425781 C64.98132738 61.96916071 68.2677362 64.33465421 71.24804688 67.11425781 C78.45486672 73.88737659 78.45486672 73.88737659 79.18554688 79.48925781 C78.80045936 82.69832045 77.96999471 84.13315009 76.13412476 86.71133423 C75.1535556 88.12111012 74.23343937 89.57334995 73.34805298 91.04476929 C68.04339533 99.47755358 61.29015908 107.69479995 51.28087616 110.26343536 C35.20596055 113.01530235 18.13817916 111.53397991 1.99804688 110.92675781 C-14.23382813 110.49363281 -30.46570313 110.06050781 -47.18945312 109.61425781 C-47.18945312 175.28425781 -47.18945312 240.95425781 -47.18945312 308.61425781 C-5.27945313 308.61425781 36.63054687 308.61425781 79.81054688 308.61425781 C79.81054688 308.94425781 79.81054688 309.27425781 79.81054688 309.61425781 C59.2695441 309.70784222 38.72857665 309.77830605 18.18740368 309.8215065 C8.64903306 309.84210146 -0.88920483 309.87016325 -10.42749023 309.91601562 C-18.7444077 309.95597747 -27.061229 309.9817129 -35.37823981 309.99061179 C-39.77903796 309.99581076 -44.17956107 310.00796579 -48.58027077 310.03717804 C-52.72942848 310.06449517 -56.87820001 310.0726702 -61.02743912 310.06668854 C-62.54348162 310.06778154 -64.05953814 310.075638 -65.5755024 310.09107971 C-76.58601146 310.19765399 -87.01899178 309.31392264 -95.56445312 301.61425781 C-96.3353125 300.95425781 -97.10617188 300.29425781 -97.90039062 299.61425781 C-106.23343817 288.69313066 -105.91417362 277.1542174 -105.85229492 264.07324219 C-105.86071994 262.0121417 -105.87125028 259.95104891 -105.88371277 257.88996887 C-105.91065472 252.32173158 -105.9060884 246.7539443 -105.89401221 241.18567085 C-105.88685705 236.5261799 -105.89539626 231.86677091 -105.90391761 227.20728636 C-105.92383597 216.21119454 -105.91833816 205.21532033 -105.89624023 194.21923828 C-105.87387249 182.89690059 -105.89148815 171.57513297 -105.92928952 160.2528491 C-105.96057159 150.5089318 -105.96842505 140.76519051 -105.95733577 131.02122927 C-105.9508648 125.21155546 -105.95277446 119.4022105 -105.97665977 113.59257507 C-105.99798102 108.12901085 -105.98984348 102.66624825 -105.95956612 97.20273399 C-105.95326305 95.20497379 -105.9570403 93.20715072 -105.97197723 91.20943642 C-106.05643148 78.91185386 -105.62426427 68.77311248 -96.96000195 59.13394928 C-91.15480092 53.3311376 -84.53910781 50.53783229 -76.31225586 50.27368164 C-74.5824468 50.27414816 -72.85258351 50.29058687 -71.12304688 50.32128906 C-70.20354752 50.32553391 -69.28404816 50.32977875 -68.33668518 50.33415222 C-65.43312853 50.35079005 -62.53029587 50.38841314 -59.62695312 50.42675781 C-57.64454136 50.44182395 -55.66211858 50.45550895 -53.6796875 50.46777344 C-48.84933534 50.50064455 -44.01951648 50.55232171 -39.18945312 50.61425781 C-38.92914307 49.90648193 -38.66883301 49.19870605 -38.40063477 48.46948242 C-37.10651701 45.41874525 -35.55381568 42.74847079 -33.81054688 39.93066406 C-33.14063721 38.84422607 -32.47072754 37.75778809 -31.78051758 36.63842773 C-31.06297435 35.48434397 -30.34511399 34.33045733 -29.62695312 33.17675781 C-28.89660825 31.99885386 -28.16638399 30.82087511 -27.4362793 29.64282227 C-26.00460782 27.33543036 -24.56974457 25.03007252 -23.13183594 22.7265625 C-21.96464678 20.85636046 -20.79932196 18.98499024 -19.63769531 17.11132812 C-18.4332843 15.16995541 -17.22035607 13.23436879 -16.00195312 11.30175781 C-15.36902344 10.295 -14.73609375 9.28824219 -14.08398438 8.25097656 C-9.91431203 2.44782432 -7.34317937 -0.39890886 0 0 Z " fill="#FDBC55" transform="translate(260.189453125,101.3857421875)"/>
<path d="M0 0 C13.38714901 -0.09284715 26.7742209 -0.16383991 40.16162682 -0.20724869 C46.37853782 -0.22808702 52.59522786 -0.25633652 58.81201172 -0.30175781 C64.81612941 -0.34534876 70.82003509 -0.36916533 76.82429886 -0.37950897 C79.11034098 -0.38687652 81.39637204 -0.4012635 83.68232346 -0.42292023 C86.894424 -0.45212968 90.10565824 -0.4559486 93.31787109 -0.45410156 C94.72265717 -0.47567322 94.72265717 -0.47567322 96.15582275 -0.49768066 C104.44496625 -0.44640006 111.71250251 1.57574063 117.875 7.3125 C123.07216261 13.02447589 126.12923996 18.81971773 126.12025452 26.61907959 C126.12231651 28.00304176 126.12231651 28.00304176 126.12442017 29.41496277 C126.12082489 30.41981216 126.11722961 31.42466156 126.11352539 32.45996094 C126.11367142 33.52368423 126.11381744 34.58740753 126.1139679 35.68336487 C126.11327106 39.20038897 126.10548933 42.71736015 126.09765625 46.234375 C126.09579126 48.67246471 126.09436774 51.1105548 126.09336853 53.54864502 C126.08954976 59.96674636 126.0797249 66.38482508 126.06866455 72.80291748 C126.0584367 79.35168146 126.05386796 85.90044909 126.04882812 92.44921875 C126.03810209 105.29948911 126.02103331 118.14974267 126 131 C122.04 131 118.08 131 114 131 C113.64192708 129.33984375 113.28385417 127.6796875 112.92578125 126.01953125 C110.22314801 120.1239136 104.22945062 117.08157862 98.875 113.9375 C97.25310323 112.96618337 95.63203536 111.99348156 94.01171875 111.01953125 C93.18075684 110.52146973 92.34979492 110.0234082 91.49365234 109.51025391 C87.52226552 107.1050259 83.60644876 104.61438995 79.6875 102.125 C78.91269287 101.63797607 78.13788574 101.15095215 77.33959961 100.64916992 C73.01997923 97.93278051 68.73770521 95.17076845 64.484375 92.3515625 C62.6355738 91.15079969 60.7866189 89.9502735 58.9375 88.75 C58.09340576 88.17652832 57.24931152 87.60305664 56.37963867 87.01220703 C51.39969547 83.81526705 47.25676978 81.95950094 41.24755859 82.37744141 C37.00165036 83.55352939 35.27213049 86.40459188 33 90 C32.44393066 90.84272461 31.88786133 91.68544922 31.31494141 92.55371094 C29.43460027 95.46754934 27.62004005 98.41550437 25.8125 101.375 C24.48592906 103.50796923 23.15910425 105.6407806 21.83203125 107.7734375 C19.45792915 111.61138254 17.12230042 115.46770882 14.82421875 119.3515625 C13.88301677 120.90116576 12.9416244 122.4506534 12 124 C11.59241455 124.71720215 11.1848291 125.4344043 10.76489258 126.17333984 C9.5625 128.125 9.5625 128.125 7 131 C4.69 131 2.38 131 0 131 C0 98.99 0 66.98 0 34 C-12.21 34 -24.42 34 -37 34 C-43 30 -43 30 -45 27 C-45.54593928 23.60942974 -45.55150778 20.39015077 -45 17 C-42.5625 13.9375 -42.5625 13.9375 -40 12 C-39.67 11.67 -39.34 11.34 -39 11 C-36.19023482 10.83982834 -33.40226404 10.74049466 -30.58984375 10.68359375 C-29.32679161 10.6524221 -29.32679161 10.6524221 -28.03822327 10.62062073 C-25.33806821 10.55503188 -22.63781283 10.49619724 -19.9375 10.4375 C-18.11131759 10.39432363 -16.28514546 10.35070964 -14.45898438 10.30664062 C-9.97276008 10.19934106 -5.4864345 10.09810034 -1 10 C-0.67 6.7 -0.34 3.4 0 0 Z " fill="#C9D3FE" transform="translate(214,20)"/>
<path d="M0 0 C5.61183677 1.47395713 10.19667827 4.67175616 14.99023438 7.84472656 C16.12984833 8.57606154 17.27082278 9.30528044 18.41308594 10.0324707 C20.739683 11.51841765 23.05772973 13.01642146 25.36914062 14.52587891 C29.45548706 17.19231636 33.58259598 19.79317184 37.70874023 22.39746094 C40.42500277 24.11595654 43.13272141 25.84711338 45.83789062 27.58300781 C48.9170833 29.55859868 52.00586671 31.51617381 55.11132812 33.45019531 C55.76456055 33.86019775 56.41779297 34.2702002 57.09082031 34.69262695 C58.77720561 35.75031598 60.46751731 36.80173797 62.15820312 37.85253906 C65.34775987 40.15905665 67.41711291 41.94889421 68.13867188 45.90332031 C68.08735012 50.83876203 67.50325038 53.51513699 64.74023438 57.71972656 C64.91101488 62.07462946 68.1974237 64.44012296 71.17773438 67.21972656 C78.38455422 73.99284534 78.38455422 73.99284534 79.11523438 79.59472656 C77.90352618 89.69229486 66.11601331 100.06446709 58.61188406 106.42885405 C49.14595299 113.73559674 36.68149478 112.3436137 25.36017966 111.84899926 C21.77371872 111.71547162 18.18666147 111.70521778 14.59809875 111.6804657 C7.83791706 111.61582019 1.08507865 111.44444605 -5.67190284 111.23212641 C-13.37857127 110.99535398 -21.08563813 110.88144358 -28.79505217 110.77652228 C-44.62084112 110.55845557 -60.43934807 110.19042005 -76.25976562 109.71972656 C-74.87724401 106.16658535 -73.34983546 103.05126495 -71.31054688 99.82519531 C-70.71757812 98.88224609 -70.12460938 97.93929687 -69.51367188 96.96777344 C-68.87300781 95.95779297 -68.23234375 94.9478125 -67.57226562 93.90722656 C-66.20366892 91.73411694 -64.83518237 89.56093794 -63.46679688 87.38769531 C-62.76635254 86.2782959 -62.0659082 85.16889648 -61.34423828 84.02587891 C-58.13367419 78.933649 -54.94720179 73.82645194 -51.75976562 68.71972656 C-50.50989751 66.71964414 -49.25989708 64.71964439 -48.00976562 62.71972656 C-47.39101562 61.72972656 -46.77226562 60.73972656 -46.13476562 59.71972656 C-44.25976562 56.71972656 -42.38476562 53.71972656 -40.50976562 50.71972656 C-39.89037109 49.7284375 -39.27097656 48.73714844 -38.6328125 47.71582031 C-37.39026019 45.72825489 -36.14677964 43.74126945 -34.90234375 41.75488281 C-31.65530143 36.5691552 -28.427947 31.37248464 -25.22851562 26.15722656 C-24.56400391 25.07957031 -23.89949219 24.00191406 -23.21484375 22.89160156 C-21.95227583 20.84323961 -20.69534863 18.79138515 -19.4453125 16.73535156 C-17.76924251 14.02367632 -16.0430629 11.36195143 -14.25976562 8.71972656 C-13.44765625 7.5015625 -13.44765625 7.5015625 -12.61914062 6.25878906 C-8.99354828 1.43031328 -6.15103647 -0.53618469 0 0 Z " fill="#A1DA32" transform="translate(260.259765625,101.2802734375)"/>
<path d="M0 0 C41.58 0 83.16 0 126 0 C126 64.43508584 126 64.43508584 116.8671875 74.2734375 C111.82620458 78.9347648 106.40267541 81.12850565 99.57073975 81.12025452 C98.24988373 81.12231651 98.24988373 81.12231651 96.90234375 81.12442017 C95.94424805 81.12082489 94.98615234 81.11722961 93.99902344 81.11352539 C92.98406799 81.11367142 91.96911255 81.11381744 90.92340088 81.1139679 C87.56870384 81.11327124 84.21406234 81.10549036 80.859375 81.09765625 C78.53338654 81.09579119 76.20739769 81.0943677 73.88140869 81.09336853 C67.75922562 81.08955027 61.63706627 81.07972584 55.51489258 81.06866455 C49.26774415 81.05843561 43.02059189 81.05386773 36.7734375 81.04882812 C24.51561458 81.03810298 12.25780926 81.02103481 0 81 C0 76.05 0 71.1 0 66 C-1.49370117 66.01571045 -2.98740234 66.0314209 -4.52636719 66.04760742 C-10.06504937 66.10188332 -15.60370802 66.13634182 -21.14257812 66.16479492 C-23.54040479 66.17988682 -25.93820383 66.2003625 -28.3359375 66.22631836 C-31.78131933 66.26268311 -35.22633637 66.27972248 -38.671875 66.29296875 C-39.74491882 66.30845261 -40.81796265 66.32393646 -41.92352295 66.33988953 C-42.92425842 66.34011612 -43.9249939 66.34034271 -44.95605469 66.34057617 C-45.83541687 66.34723801 -46.71477905 66.35389984 -47.62078857 66.36076355 C-50.54644074 65.91714234 -51.90732458 65.07478946 -54 63 C-54.74566611 57.03467111 -54.74566611 57.03467111 -52.7808075 54.30827332 C-50.43695516 52.58635813 -48.96494815 52.60409255 -46.06958008 52.56762695 C-44.54741882 52.53771667 -44.54741882 52.53771667 -42.99450684 52.50720215 C-41.93026489 52.50095825 -40.86602295 52.49471436 -39.76953125 52.48828125 C-38.78964233 52.47164429 -37.80975342 52.45500732 -36.8001709 52.43786621 C-33.13783254 52.3800078 -29.47512525 52.34779993 -25.8125 52.3125 C-13.5303125 52.1578125 -13.5303125 52.1578125 -1 52 C-0.67 34.84 -0.34 17.68 0 0 Z " fill="#C9D3FE" transform="translate(214,411)"/>
<path d="M0 0 C14.02180002 -0.09286762 28.04352632 -0.16385028 42.06557178 -0.20724869 C48.57727266 -0.22808256 55.08876241 -0.25632391 61.6003418 -0.30175781 C67.88975271 -0.34536466 74.1789611 -0.36916868 80.46851158 -0.37950897 C82.86257805 -0.38687368 85.25663402 -0.40125501 87.65061378 -0.42292023 C91.01576928 -0.45215068 94.38009838 -0.4559477 97.74536133 -0.45410156 C98.72504379 -0.46848267 99.70472626 -0.48286377 100.71409607 -0.49768066 C112.9945632 -0.42524831 124.64929951 4.85172516 133.6875 13.125 C143.23296344 23.34744667 147.50393688 35.64714513 147.34057617 49.40673828 C147.34101425 50.39330917 147.34145233 51.37988007 147.34190369 52.39634705 C147.33983223 55.62121141 147.31657917 58.84554021 147.29296875 62.0703125 C147.28736695 64.3204622 147.28309961 66.57061558 147.28010559 68.82077026 C147.26870285 74.71608753 147.23927519 80.61117976 147.20599365 86.50640869 C147.17519393 92.53288734 147.16157915 98.55940268 147.14648438 104.5859375 C147.11440097 116.39072336 147.06326024 128.1953429 147 140 C147.99 140 148.98 140 150 140 C151.44207941 142.88415883 151.09394887 145.41721528 151.0625 148.625 C151.05347656 149.81351563 151.04445313 151.00203125 151.03515625 152.2265625 C151.01775391 153.59941406 151.01775391 153.59941406 151 155 C150.03513672 154.69255859 150.03513672 154.69255859 149.05078125 154.37890625 C143.71135029 152.7869789 138.67488732 151.76936238 133.10546875 151.40234375 C131.9558667 151.32363037 130.80626465 151.24491699 129.62182617 151.16381836 C128.75662354 151.1097583 127.8914209 151.05569824 127 151 C126.99761165 150.44561752 126.99522329 149.89123505 126.99276257 149.3200531 C126.93352541 135.8062423 126.85773292 122.2926107 126.76428509 108.7789917 C126.71959061 102.243787 126.68033216 95.70864451 126.65356445 89.17333984 C126.62752271 82.86438282 126.5871134 76.55566531 126.53681374 70.24685669 C126.52015106 67.84200015 126.50863307 65.43710219 126.50238609 63.03219604 C126.49273885 59.65923048 126.46467062 56.28687687 126.43237305 52.9140625 C126.43380814 51.92359421 126.43524323 50.93312592 126.4367218 49.91264343 C126.30960644 40.50289064 123.8141118 33.93345912 117.3203125 26.984375 C109.62997955 20.40745726 99.90819615 19.85527318 90.25268555 19.79467773 C89.27659836 19.78477814 88.30051117 19.77487854 87.29484558 19.76467896 C84.07549446 19.73314613 80.8561286 19.70833899 77.63671875 19.68359375 C75.40183636 19.66301713 73.16695779 19.64202047 70.93208313 19.62062073 C65.05491237 19.5654732 59.17770691 19.51603164 53.30047607 19.46777344 C47.30119749 19.41750497 41.30196919 19.36184681 35.30273438 19.30664062 C23.53519764 19.19914856 11.7676181 19.09818187 0 19 C0 12.73 0 6.46 0 0 Z " fill="#3D3973" transform="translate(213,0)"/>
<path d="M0 0 C6.6 0 13.2 0 20 0 C20.09088828 7.87651807 20.16405117 15.75274207 20.20724869 23.62964249 C20.22799647 27.28845172 20.25607432 30.94687916 20.30175781 34.60546875 C20.34568008 38.14574608 20.36923301 41.68565958 20.37950897 45.22618866 C20.39034054 47.21343502 20.4214899 49.20053794 20.45318604 51.18756104 C20.45655935 65.03681527 16.29551225 77.48576683 6.75 87.75 C-3.3050551 97.12148776 -15.65193341 101.65378046 -29.25463867 101.45410156 C-30.31938416 101.45468567 -31.38412964 101.45526978 -32.48114014 101.45587158 C-35.96042804 101.45311033 -39.43883264 101.42211075 -42.91796875 101.390625 C-45.34604932 101.38315566 -47.77413596 101.37746601 -50.20222473 101.37347412 C-56.56284512 101.35827253 -62.92309453 101.31903779 -69.28356934 101.2746582 C-75.7860004 101.23358722 -82.28849197 101.21543789 -88.79101562 101.1953125 C-101.52750587 101.15253833 -114.26372197 101.0843535 -127 101 C-127 94.73 -127 88.46 -127 82 C-122.54246216 81.97812622 -122.54246216 81.97812622 -117.99487305 81.95581055 C-108.14807578 81.90534841 -98.30143472 81.83873292 -88.45479107 81.76428509 C-82.48802239 81.71966347 -76.5213207 81.68038924 -70.55444336 81.65356445 C-64.79010571 81.62744965 -59.026027 81.58698944 -53.26185036 81.53681374 C-51.06880744 81.52020024 -48.8757198 81.50865177 -46.68262291 81.50238609 C-43.59763167 81.49268487 -40.5132947 81.46455387 -37.4284668 81.43237305 C-36.53294098 81.43380814 -35.63741516 81.43524323 -34.7147522 81.4367218 C-24.99982201 81.29451281 -15.58361573 79.39107726 -8.4140625 72.46875 C-0.86015312 64.36211554 -0.54273975 55.9594149 -0.48828125 45.3125 C-0.46135445 43.36512939 -0.46135445 43.36512939 -0.43388367 41.37841797 C-0.38667401 37.9525042 -0.35667826 34.52665492 -0.33044434 31.1005249 C-0.30049081 27.59423082 -0.25401196 24.08815841 -0.20898438 20.58203125 C-0.12328247 13.7214663 -0.05732163 6.86086023 0 0 Z " fill="#3D3973" transform="translate(340,411)"/>
<path d="M0 0 C31.20323013 -0.94116471 31.20323013 -0.94116471 41.4375 7.25 C47.95692353 13.59322289 51.65630412 20.61209211 52.24291992 29.80810547 C52.24925659 31.16112434 52.24471158 32.51422876 52.23046875 33.8671875 C52.23001053 34.58738068 52.22955231 35.30757385 52.2290802 36.04959106 C52.22608098 37.55716622 52.21826543 39.06473893 52.20581055 40.57226562 C52.18738523 42.8894331 52.18530234 45.2062039 52.18554688 47.5234375 C52.1806371 48.99219098 52.17481115 50.46094175 52.16796875 51.9296875 C52.16685593 52.62440155 52.1657431 53.3191156 52.16459656 54.03488159 C52.11610876 58.88389124 52.11610876 58.88389124 51 60 C48.97505769 60.09409479 46.9468013 60.11743122 44.91967773 60.11352539 C42.96776772 60.11341209 42.96776772 60.11341209 40.97642517 60.11329651 C39.54548098 60.10818909 38.11453718 60.10297308 36.68359375 60.09765625 C35.2277074 60.09579203 33.77182043 60.09436815 32.31593323 60.09336853 C28.47720621 60.08954365 24.63851681 60.07971364 20.79980469 60.06866455 C16.88542184 60.05844978 12.97103294 60.05387077 9.05664062 60.04882812 C1.37107657 60.03809134 -6.31445645 60.02101529 -14 60 C-10.78271072 56.18450883 -7.56790221 52.43773724 -3.984375 48.95703125 C-3.29085938 48.27576172 -2.59734375 47.59449219 -1.8828125 46.89257812 C-0.44707077 45.49233551 0.99046507 44.0939304 2.4296875 42.69726562 C3.11804688 42.01986328 3.80640625 41.34246094 4.515625 40.64453125 C5.44810059 39.73731323 5.44810059 39.73731323 6.39941406 38.81176758 C8.85396849 36.03335873 9.89592211 33.79793052 10.375 30.125 C9.47167614 22.59730114 3.28570583 18.28366875 -2.05078125 13.46484375 C-4 11 -4 11 -3.98046875 8.56640625 C-2.84482734 5.59383094 -1.50040665 2.80510809 0 0 Z " fill="#F67D0F" transform="translate(328,151)"/>
<path d="M0 0 C5.61183677 1.47395713 10.19667827 4.67175616 14.99023438 7.84472656 C16.12984833 8.57606154 17.27082278 9.30528044 18.41308594 10.0324707 C20.739683 11.51841765 23.05772973 13.01642146 25.36914062 14.52587891 C29.45548706 17.19231636 33.58259598 19.79317184 37.70874023 22.39746094 C40.42500277 24.11595654 43.13272141 25.84711338 45.83789062 27.58300781 C48.9170833 29.55859868 52.00586671 31.51617381 55.11132812 33.45019531 C55.76456055 33.86019775 56.41779297 34.2702002 57.09082031 34.69262695 C58.77720561 35.75031598 60.46751731 36.80173797 62.15820312 37.85253906 C65.33214483 40.14776469 67.38399564 41.95457968 68.17382812 45.86816406 C68.18364728 51.46508375 67.30388363 54.37652904 63.74023438 58.71972656 C60.66512775 57.35062315 58.58217332 55.79925734 56.22851562 53.40332031 C55.56102295 52.72922119 54.89353027 52.05512207 54.20581055 51.3605957 C53.49529541 50.63348389 52.78478027 49.90637207 52.05273438 49.15722656 C51.31321533 48.41013428 50.57369629 47.66304199 49.81176758 46.89331055 C46.64982531 43.69867119 43.49982662 40.49234571 40.34863281 37.28710938 C38.04573352 34.94809363 35.73690682 32.6150467 33.42773438 30.28222656 C32.71721924 29.55511475 32.0067041 28.82800293 31.2746582 28.07885742 C30.27341919 27.06770874 30.27341919 27.06770874 29.25195312 26.03613281 C28.66889404 25.4426001 28.08583496 24.84906738 27.48510742 24.23754883 C23.95528225 21.16704049 20.60136439 20.08726424 15.86522675 20.21416378 C13.20663623 20.84667637 11.99480693 21.90054521 9.99035645 23.74623108 C9.29422745 24.38427736 8.59809845 25.02232365 7.88087463 25.67970467 C4.36888309 29.02661904 0.91016246 32.41916943 -2.51171875 35.8581543 C-3.29317261 36.63946213 -4.07462646 37.42076996 -4.87976074 38.22575378 C-7.4358928 40.78257682 -9.98847466 43.34291263 -12.54101562 45.90332031 C-14.32298248 47.68715424 -16.10517173 49.47076603 -17.88757324 51.25416565 C-22.08241121 55.45241834 -26.27501876 59.65288963 -30.46652555 63.85446745 C-35.24334094 68.64250777 -40.02303781 73.42766728 -44.80296421 78.21260154 C-54.62507986 88.04513532 -64.44361903 97.88123392 -74.25976562 107.71972656 C-74.25976562 104.14009077 -73.4095445 103.01028632 -71.50585938 100.02050781 C-70.90644531 99.07111328 -70.30703125 98.12171875 -69.68945312 97.14355469 C-69.03203125 96.11681641 -68.37460938 95.09007812 -67.69726562 94.03222656 C-66.31037035 91.84093203 -64.92365654 89.64952263 -63.53710938 87.45800781 C-62.81702906 86.32462155 -62.09681415 85.19132079 -61.37646484 84.05810547 C-58.14494939 78.96148007 -54.95302647 73.8403711 -51.75976562 68.71972656 C-50.50998548 66.71958917 -49.25998468 64.71958964 -48.00976562 62.71972656 C-47.39101562 61.72972656 -46.77226562 60.73972656 -46.13476562 59.71972656 C-44.25976562 56.71972656 -42.38476562 53.71972656 -40.50976562 50.71972656 C-39.89037109 49.7284375 -39.27097656 48.73714844 -38.6328125 47.71582031 C-37.39026019 45.72825489 -36.14677964 43.74126945 -34.90234375 41.75488281 C-31.65530143 36.5691552 -28.427947 31.37248464 -25.22851562 26.15722656 C-24.56400391 25.07957031 -23.89949219 24.00191406 -23.21484375 22.89160156 C-21.95227583 20.84323961 -20.69534863 18.79138515 -19.4453125 16.73535156 C-17.76924251 14.02367632 -16.0430629 11.36195143 -14.25976562 8.71972656 C-13.44765625 7.5015625 -13.44765625 7.5015625 -12.61914062 6.25878906 C-8.99354828 1.43031328 -6.15103647 -0.53618469 0 0 Z " fill="#5FB208" transform="translate(260.259765625,101.2802734375)"/>
<path d="M0 0 C1.15226074 -0.02739258 2.30452148 -0.05478516 3.49169922 -0.08300781 C4.49789307 -0.11442871 5.50408691 -0.14584961 6.54077148 -0.17822266 C9.828254 0.20380895 11.05159548 0.55313212 13.17529297 3.12792969 C13.56770322 6.15722222 13.71247069 8.81791965 13.67138672 11.84667969 C13.67284195 12.70096558 13.67429718 13.55525146 13.67579651 14.4354248 C13.67413705 16.2410015 13.6625704 18.04659227 13.6418457 19.85205078 C13.61289901 22.61779788 13.62123328 25.38162768 13.63427734 28.14746094 C13.62803968 29.90137652 13.61964851 31.65528603 13.60888672 33.40917969 C13.61182236 34.23736206 13.614758 35.06554443 13.61778259 35.91882324 C13.52344708 41.65220566 13.52344708 41.65220566 11.91958618 43.84375 C9.74708496 45.44318404 8.54442194 45.51824324 5.86254883 45.54785156 C4.9941185 45.56376343 4.12568817 45.57967529 3.23094177 45.59606934 C1.82474327 45.59637146 1.82474327 45.59637146 0.39013672 45.59667969 C-0.58072372 45.60429321 -1.55158417 45.61190674 -2.55186462 45.61975098 C-4.61047801 45.63056444 -6.66914632 45.63340004 -8.7277832 45.62890625 C-11.85154312 45.62794071 -14.9727906 45.66940597 -18.09619141 45.71386719 C-20.10074361 45.71907967 -22.1053043 45.72176229 -24.10986328 45.72167969 C-25.03315933 45.73807495 -25.95645538 45.75447021 -26.9077301 45.7713623 C-33.75275295 45.6998338 -39.14138019 44.01309438 -44.82470703 40.12792969 C-51.22942525 33.31094818 -52.19329139 27.77243746 -52.09814453 18.51464844 C-51.61004028 12.46912865 -48.59411214 9.73416656 -44.32470703 5.87792969 C-39.5157769 1.81219785 -36.02892168 0.87004798 -29.67236328 0.71386719 C-28.97638535 0.69450104 -28.28040741 0.67513489 -27.56333923 0.65518188 C-25.33808578 0.59562639 -23.11277043 0.5492805 -20.88720703 0.50292969 C-19.42559667 0.46469224 -17.96400746 0.42563727 -16.50244141 0.38574219 C-12.94872071 0.29200386 -9.395114 0.22505696 -5.84063721 0.16784668 C-3.89333608 0.1292886 -1.94659422 0.06511013 0 0 Z " fill="#E54140" transform="translate(435.82470703125,287.8720703125)"/>
<path d="M0 0 C0.89730331 0.00424484 1.79460663 0.00848969 2.71910095 0.01286316 C5.55133618 0.02949512 8.38282799 0.06711678 11.21484375 0.10546875 C13.14907818 0.12053566 15.08332389 0.13422053 17.01757812 0.14648438 C21.72944786 0.17934763 26.4407703 0.23102034 31.15234375 0.29296875 C27.56463502 7.01455238 23.83776038 13.57389211 19.71484375 19.98046875 C18.67372037 21.61149505 17.63339726 23.24303239 16.59375 24.875 C15.76834717 26.16978271 15.76834717 26.16978271 14.92626953 27.49072266 C12.99381324 30.54339721 11.08456071 33.60972892 9.1796875 36.6796875 C8.5105835 37.75710205 7.84147949 38.8345166 7.15209961 39.94458008 C5.84202544 42.05627698 4.53416152 44.16934707 3.22875977 46.28393555 C2.62604248 47.25371338 2.0233252 48.22349121 1.40234375 49.22265625 C0.87125 50.08101074 0.34015625 50.93936523 -0.20703125 51.82373047 C-1.94779561 54.44368445 -3.84951051 56.86533028 -5.84765625 59.29296875 C-15.4484759 57.76902912 -22.53130798 53.74239608 -28.6328125 46.0859375 C-31.46756636 41.90216895 -33.2488366 37.32305379 -33.84765625 32.29296875 C-33.9353125 31.67035156 -34.02296875 31.04773438 -34.11328125 30.40625 C-34.69328482 23.06393206 -31.83224151 17.32723779 -27.84765625 11.29296875 C-20.14432407 2.29132215 -11.54611747 -0.21023521 0 0 Z " fill="#FE9522" transform="translate(188.84765625,151.70703125)"/>
<path d="M0 0 C4.13826811 -0.08194956 8.27624345 -0.13948551 12.41513062 -0.17868042 C13.97546417 -0.19618588 15.53573738 -0.22046637 17.09585571 -0.2517395 C19.27856741 -0.29351206 21.46000616 -0.30922356 23.64306641 -0.31835938 C25.49544922 -0.34023315 25.49544922 -0.34023315 27.38525391 -0.36254883 C32.19565316 0.30575505 35.15296318 2.5999922 38.64306641 5.85742188 C40.36121954 9.29372814 40.63146654 12.42084036 39.76806641 16.10742188 C37.41006718 19.97809985 35.10411518 22.66207228 30.76806641 24.10742188 C28.48504236 24.21744754 26.19893342 24.26648576 23.91333008 24.28442383 C23.22027267 24.29099503 22.52721527 24.29756622 21.81315613 24.30433655 C19.52078132 24.32403833 17.22847193 24.33572502 14.93603516 24.34570312 C14.15193079 24.34977865 13.36782642 24.35385418 12.55996132 24.35805321 C8.40984995 24.37890048 4.25977152 24.39320808 0.10961914 24.40258789 C-4.17104817 24.41365062 -8.45119543 24.44805231 -12.73167896 24.48775959 C-16.02858937 24.51393613 -19.32537602 24.52228061 -22.62238121 24.52586937 C-24.20000407 24.53073254 -25.77762151 24.54233897 -27.35514259 24.56090736 C-29.56684943 24.58532274 -31.77721261 24.58433032 -33.98901367 24.57739258 C-35.87406364 24.58619194 -35.87406364 24.58619194 -37.79719543 24.59516907 C-41.89857224 24.0127564 -44.03047877 22.69287272 -47.23193359 20.10742188 C-50.04647954 15.88560296 -50.0387744 12.06711979 -49.23193359 7.10742188 C-46.79443359 4.04492188 -46.79443359 4.04492188 -44.23193359 2.10742188 C-43.90193359 1.77742188 -43.57193359 1.44742187 -43.23193359 1.10742188 C-40.84271059 0.94554831 -38.47991303 0.84727296 -36.08740234 0.79101562 C-34.96982292 0.75950409 -34.96982292 0.75950409 -33.82966614 0.72735596 C-31.35970511 0.66020923 -28.88965734 0.60154447 -26.41943359 0.54492188 C-25.57823975 0.52507233 -24.7370459 0.50522278 -23.87036133 0.48477173 C-18.55295245 0.36158098 -13.23536008 0.25484736 -7.91741943 0.1574707 C-5.27820325 0.10828419 -2.63911465 0.05432906 0 0 Z " fill="#555595" transform="translate(218.23193359375,29.892578125)"/>
<path d="M0 0 C0.84961807 -0.00845947 1.69923615 -0.01691895 2.57460022 -0.02563477 C3.50352585 -0.01956207 4.43245148 -0.01348938 5.38952637 -0.00723267 C6.3702562 -0.01248962 7.35098602 -0.01774658 8.36143494 -0.02316284 C11.60989207 -0.03638877 14.85786095 -0.02761541 18.10632324 -0.01748657 C20.35929458 -0.01950656 22.61226528 -0.02241736 24.86523438 -0.02618408 C29.58970355 -0.03061096 34.31400271 -0.02416457 39.03845215 -0.01016235 C45.10171288 0.00692958 51.16457525 -0.00290964 57.22782135 -0.02087975 C61.8808697 -0.03170768 66.53382322 -0.02827577 71.18687439 -0.02049637 C73.42284695 -0.01849162 75.65882806 -0.0209632 77.89479065 -0.02793503 C81.01696661 -0.03553308 84.1384927 -0.02396805 87.26062012 -0.00723267 C88.65400856 -0.01634171 88.65400856 -0.01634171 90.07554626 -0.02563477 C90.92516434 -0.01717529 91.77478241 -0.00871582 92.65014648 0 C93.38829338 0.00113108 94.12644028 0.00226215 94.88695526 0.00342751 C97.40026532 0.49299183 98.28369244 1.36699731 99.82507324 3.38095093 C100.32507324 6.31845093 100.32507324 6.31845093 99.82507324 9.38095093 C96.97237595 12.56134613 94.69131279 13.63476044 90.53025818 13.88215637 C88.7952382 13.90282107 87.05987025 13.90146285 85.3248291 13.88265991 C84.37467422 13.8880629 83.42451935 13.89346588 82.4455719 13.89903259 C79.31003517 13.91152326 76.17541592 13.89502744 73.03991699 13.87704468 C70.85946098 13.87719964 68.67900468 13.87868823 66.49855042 13.88145447 C61.93140469 13.88283857 57.36457296 13.87027713 52.79748535 13.84750366 C46.94062206 13.81910243 41.08427985 13.82186089 35.22737789 13.83459377 C30.72611533 13.84154492 26.22497343 13.83376836 21.72372627 13.82133675 C19.56394475 13.81681796 17.4041503 13.81648917 15.2443676 13.82040215 C12.22794862 13.8233092 9.21225076 13.80683175 6.19592285 13.78500366 C5.3017868 13.78950531 4.40765076 13.79400696 3.48641968 13.79864502 C-0.0759195 13.75576572 -2.52843688 13.71110369 -5.73326111 12.07444763 C-7.17492676 10.38095093 -7.17492676 10.38095093 -7.61242676 6.88095093 C-7.17492676 3.38095093 -7.17492676 3.38095093 -5.90851593 1.68601036 C-3.76812002 0.07470365 -2.65985006 0.00407574 0 0 Z " fill="#585897" transform="translate(167.1749267578125,463.6190490722656)"/>
<path d="M0 0 C5.01801728 -0.09207371 10.03307904 -0.17163196 15.05126953 -0.21972656 C16.75644894 -0.23978369 18.46156006 -0.26703657 20.16650391 -0.30175781 C22.62419524 -0.35053861 25.08097366 -0.37302719 27.5390625 -0.390625 C28.29555084 -0.41127014 29.05203918 -0.43191528 29.83145142 -0.45318604 C35.9262949 -0.45574249 39.38639555 1.56063585 43.875 5.75 C45.59804234 9.19608468 45.8333804 12.30168192 45 16 C43.1148413 19.45040918 40.81869148 22.45889118 36.95196533 23.60934448 C34.56532746 23.80920179 32.27542868 23.78874131 29.8828125 23.68359375 C29.02565643 23.67368912 28.16850037 23.66378448 27.28536987 23.65357971 C24.56346177 23.61457647 21.84567615 23.52679325 19.125 23.4375 C17.273496 23.4023674 15.42192839 23.3704318 13.5703125 23.34179688 C9.04403291 23.27082027 4.52659491 23.1338852 0 23 C0 15.41 0 7.82 0 0 Z " fill="#3F3B75" transform="translate(213,30)"/>
<path d="M0 0 C7.20822896 -0.07405325 14.41623741 -0.12855664 21.62475586 -0.16479492 C24.07792008 -0.17989881 26.53105724 -0.20038321 28.98413086 -0.22631836 C32.50641555 -0.26263057 36.02834381 -0.27971036 39.55078125 -0.29296875 C40.65086014 -0.30845261 41.75093903 -0.32393646 42.88435364 -0.33988953 C44.41560127 -0.34022942 44.41560127 -0.34022942 45.9777832 -0.34057617 C46.87713089 -0.34723801 47.77647858 -0.35389984 48.70307922 -0.36076355 C51 0 51 0 52.79045105 1.33378601 C54.66648255 3.91811294 54.38683336 5.9053331 54 9 C52.79045105 10.66621399 52.79045105 10.66621399 51 12 C48.70307922 12.36076355 48.70307922 12.36076355 45.9777832 12.34057617 C44.95695145 12.34034958 43.93611969 12.34012299 42.88435364 12.33988953 C41.78427475 12.32440567 40.68419586 12.30892181 39.55078125 12.29296875 C37.85915108 12.28660149 37.85915108 12.28660149 36.13334656 12.28010559 C32.52615633 12.26329311 28.91952178 12.22563528 25.3125 12.1875 C22.86914868 12.17245653 20.42578863 12.15876754 17.98242188 12.14648438 C11.98806666 12.11338102 5.99412759 12.06158026 0 12 C0 8.04 0 4.08 0 0 Z " fill="#3D3973" transform="translate(213,464)"/>
<path d="M0 0 C4.29696335 3.38271583 6.66927091 6.46441031 7.375 11.875 C6.88822519 15.93145679 5.6272346 17.88880113 3 21 C-1.34747901 23.89831934 -4.81863494 24.81811027 -10 24 C-13.81645899 21.58720883 -16.55710229 19.32869314 -18 15 C-18.75040308 7.37090201 -18.75040308 7.37090201 -15.75 3.625 C-10.69047939 -1.2045424 -6.6931858 -1.86453033 0 0 Z " fill="#FE9222" transform="translate(411,299)"/>
<path d="M0 0 C0.66 0.33 1.32 0.66 2 1 C2 11.89 2 22.78 2 34 C0.68 33.67 -0.64 33.34 -2 33 C-2.04938149 28.62176083 -2.0857104 24.24366854 -2.10986328 19.86523438 C-2.11993043 18.3752968 -2.13358518 16.88537903 -2.15087891 15.39550781 C-2.17509653 13.25580972 -2.18647564 11.11637247 -2.1953125 8.9765625 C-2.21102295 7.04417725 -2.21102295 7.04417725 -2.22705078 5.07275391 C-2 2 -2 2 0 0 Z " fill="#3E3A74" transform="translate(65,166)"/>
<path d="M0 0 C0.99 0 1.98 0 3 0 C3 10.89 3 21.78 3 33 C1.68 32.67 0.36 32.34 -1 32 C-1.02465504 27.60343827 -1.04283842 23.2069128 -1.05493164 18.81030273 C-1.05997121 17.31355082 -1.06680287 15.81680384 -1.07543945 14.32006836 C-1.08752159 12.17300193 -1.09323191 10.02600038 -1.09765625 7.87890625 C-1.10289307 6.5854126 -1.10812988 5.29191895 -1.11352539 3.95922852 C-1 1 -1 1 0 0 Z " fill="#3E3A74" transform="translate(64,130)"/>
</svg>
